<?xml version="1.0" encoding="utf-8"?>
<!-- Generator: Adobe Illustrator 12.0.1, SVG Export Plug-In . SVG Version: 6.00 Build 51448)  -->
<!DOCTYPE svg PUBLIC "-//W3C//DTD SVG 1.1//EN" "http://www.w3.org/Graphics/SVG/1.1/DTD/svg11.dtd" [
	<!ENTITY ns_svg "http://www.w3.org/2000/svg">
	<!ENTITY ns_xlink "http://www.w3.org/1999/xlink">
]>

<svg  version="1.1" id="Layer_1" xmlns="&ns_svg;" xmlns:xlink="&ns_xlink;" width="129.5" height="179.6"
	 viewBox="0 0 129.5 179.6" overflow="visible" enable-background="new 0 0 129.5 179.6" xml:space="preserve">
<defs>
  <style type="text/css">
    .icon-color {fill: white;}
  </style>
</defs>
<g>
	<path class="icon-color" stroke="#000000" d="M125.25,70.05c0-4.2-1.5-7.8-4.5-10.8c-3-2.9-6.6-4.5-10.8-4.5c-3.5,0-6.7,1.1-9.4,3.3
		l-35.8,35.8l-35.9-35.8c-2.7-2.2-5.7-3.3-9.3-3.3c-4.2,0-7.9,1.6-10.8,4.6c-3,2.9-4.5,6.5-4.5,10.7s1.5,7.7,4.3,10.7l34.7,34.7
		l-33.7,33.6c-2.9,3.1-4.3,6.7-4.3,11c0,4.2,1.5,7.8,4.4,10.7c0.8,0.8,1.7,1.5,2.5,2.1c2.4,1.7,5.2,2.5,8.4,2.5
		c3.1,0,5.8-0.8,8.3-2.5c0.1-0.1,0.2-0.2,0.3-0.3l35.6-35.5l35.6,35.5c0.1,0.1,0.2,0.2,0.4,0.3c2.4,1.7,5.2,2.5,8.3,2.5
		c3.2,0,5.9-0.8,8.4-2.5c0.8-0.6,1.6-1.3,2.4-2.1c2.9-2.9,4.4-6.5,4.4-10.7c0-4.3-1.4-7.9-4.3-11l-33.6-33.6l34.6-34.5
		C123.75,77.85,125.25,74.25,125.25,70.05z"/>
	<path class="icon-color" stroke="#000000" d="M92.85,32.35c0-7.8-2.8-14.5-8.2-19.9c-5.4-5.5-12.1-8.2-19.9-8.2
		c-7.7,0-14.3,2.7-19.8,8.2c-5.4,5.4-8.2,12.1-8.2,19.9c0,7.7,2.8,14.3,8.2,19.8c5.5,5.4,12.1,8.2,19.8,8.2c7.8,0,14.5-2.8,19.9-8.2
		C90.05,46.65,92.85,40.05,92.85,32.35z"/>
	<path class="icon-color" stroke="#000000" stroke-width="8.5" stroke-linecap="round" d="M84.65,12.45c-5.4-5.5-12.1-8.2-19.9-8.2
		c-7.7,0-14.3,2.7-19.8,8.2c-5.4,5.4-8.2,12.1-8.2,19.9c0,7.7,2.8,14.3,8.2,19.8c5.5,5.4,12.1,8.2,19.8,8.2c7.8,0,14.5-2.8,19.9-8.2
		c5.4-5.5,8.2-12.1,8.2-19.8C92.85,24.55,90.05,17.85,84.65,12.45"/>
	<path class="icon-color" stroke="#000000" stroke-width="8.5" stroke-linecap="round" d="M125.25,70.05c0,4.2-1.5,7.8-4.3,10.9
		l-34.6,34.5l33.6,33.6c2.9,3.1,4.3,6.7,4.3,11c0,4.2-1.5,7.8-4.4,10.7c-0.8,0.8-1.6,1.5-2.4,2.1c-2.5,1.7-5.2,2.5-8.4,2.5
		c-3.1,0-5.9-0.8-8.3-2.5c-0.2-0.1-0.3-0.2-0.4-0.3l-35.6-35.5l-35.6,35.5c-0.1,0.1-0.2,0.2-0.3,0.3c-2.5,1.7-5.2,2.5-8.3,2.5
		c-3.2,0-6-0.8-8.4-2.5c-0.8-0.6-1.7-1.3-2.5-2.1c-2.9-2.9-4.4-6.5-4.4-10.7c0-4.3,1.4-7.9,4.3-11l33.7-33.6l-34.7-34.7
		c-2.8-3-4.3-6.5-4.3-10.7s1.5-7.8,4.5-10.7c2.9-3,6.6-4.6,10.8-4.6c3.6,0,6.6,1.1,9.3,3.3l35.9,35.8l35.8-35.8
		c2.7-2.2,5.9-3.3,9.4-3.3c4.2,0,7.8,1.6,10.8,4.5C123.75,62.25,125.25,65.85,125.25,70.05"/>
</g>
</svg>
