<?xml version="1.0" encoding="utf-8"?>
<!-- Generator: Adobe Illustrator 12.0.1, SVG Export Plug-In . SVG Version: 6.00 Build 51448)  -->
<!DOCTYPE svg PUBLIC "-//W3C//DTD SVG 1.1//EN" "http://www.w3.org/Graphics/SVG/1.1/DTD/svg11.dtd" [
	<!ENTITY ns_svg "http://www.w3.org/2000/svg">
	<!ENTITY ns_xlink "http://www.w3.org/1999/xlink">
	<!ENTITY fill_color "#FFFFFF">
	<!ENTITY stroke_color "#000000">
]>
<svg  version="1.1" id="stock-buddy" xmlns="&ns_svg;" xmlns:xlink="&ns_xlink;" width="75" height="75" viewBox="0 0 75 75"
	 overflow="visible" enable-background="new 0 0 75 75" xml:space="preserve">
<path fill="&fill_color;" stroke="&stroke_color;" stroke-width="3.5" d="M43.362,44.113l10.1,10.1c0.751,0.75,1.216,1.785,1.216,2.932
	c0,2.286-1.856,4.143-4.146,4.143c-1.146,0-2.179-0.463-2.933-1.212L37.5,49.975L27.4,60.075c-0.75,0.749-1.787,1.21-2.933,1.21
	c-2.285,0-4.142-1.854-4.142-4.141c0-1.146,0.465-2.182,1.212-2.932l10.103-10.1L21.538,34.01c-0.747-0.749-1.212-1.785-1.212-2.93
	c0-2.289,1.853-4.145,4.145-4.145c1.143,0,2.18,0.465,2.93,1.214L37.5,38.25l10.1-10.101c0.754-0.749,1.787-1.214,2.933-1.214
	c2.289,0,4.146,1.856,4.146,4.145c0,1.145-0.465,2.179-1.216,2.93L43.362,44.113z"/>
<circle fill="&fill_color;" stroke="&stroke_color;" stroke-width="3.5" cx="37.5" cy="19.862" r="8.122"/>
</svg>
