<?xml version="1.0" encoding="utf-8"?>
<!-- Generator: Adobe Illustrator 12.0.1, SVG Export Plug-In . SVG Version: 6.00 Build 51448)  -->
<!DOCTYPE svg PUBLIC "-//W3C//DTD SVG 1.1//EN" "http://www.w3.org/Graphics/SVG/1.1/DTD/svg11.dtd" [
	<!ENTITY ns_svg "http://www.w3.org/2000/svg">
	<!ENTITY ns_xlink "http://www.w3.org/1999/xlink">
	<!ENTITY stroke_color "#FFFFFF">
]>
<svg  version="1.1" id="Icon" xmlns="&ns_svg;" xmlns:xlink="&ns_xlink;" width="75" height="75" viewBox="0 0 75 75"
	 overflow="visible" enable-background="new 0 0 75 75" xml:space="preserve">

<path fill="none" stroke="&stroke_color;" stroke-width="3.5" d="M37.5,16.19c11.769,0,21.307,9.543,21.307,21.308
	c0,11.768-9.538,21.313-21.307,21.313c-11.769,0-21.308-9.545-21.308-21.313C16.193,25.733,25.732,16.19,37.5,16.19z"/>
<path fill="none" stroke="&stroke_color;" stroke-width="3.5" stroke-linecap="round" d="M35.401,48.052
	c-4.879-0.975-8.555-5.282-8.555-10.447c0-5.884,4.769-10.656,10.653-10.656c5.885,0,10.655,4.772,10.655,10.656
	c0,5.075-3.551,9.323-8.305,10.394"/>
<polyline fill="none" stroke="&stroke_color;" stroke-width="3.5" stroke-linecap="round" stroke-linejoin="round" points="32.836,41.636 
	35.401,48.052 28.646,49.496 "/>
</svg>
