<?xml version="1.0" encoding="UTF-8" standalone="no"?>
<!-- Created with Inkscape (http://www.inkscape.org/) -->
<!DOCTYPE svg PUBLIC "-//W3C//DTD SVG 1.1//EN" "http://www.w3.org/Graphics/SVG/1.1/DTD/svg11.dtd" [
        <!ENTITY ns_svg "http://www.w3.org/2000/svg">
        <!ENTITY ns_xlink "http://www.w3.org/1999/xlink">
        <!ENTITY fill_color "#ffffff">
        <!ENTITY stroke_color "#4d4d4d">
]>
<svg
   xmlns:dc="http://purl.org/dc/elements/1.1/"
   xmlns:cc="http://web.resource.org/cc/"
   xmlns:rdf="http://www.w3.org/1999/02/22-rdf-syntax-ns#"
   xmlns:svg="http://www.w3.org/2000/svg"
   xmlns="http://www.w3.org/2000/svg"
   xmlns:xlink="http://www.w3.org/1999/xlink"
   xmlns:sodipodi="http://sodipodi.sourceforge.net/DTD/sodipodi-0.dtd"
   xmlns:inkscape="http://www.inkscape.org/namespaces/inkscape"
   version="1.0"
   width="75"
   height="75"
   id="svg2913"
   sodipodi:version="0.32"
   inkscape:version="0.44"
   sodipodi:docname="abiword-save.svg"
   sodipodi:docbase="/home/jirwin/olpc/sugar-jhbuild/build/share/icons/olpc/scalable/stock">
  <metadata
     id="metadata2070">
    <rdf:RDF>
      <cc:Work
         rdf:about="">
        <dc:format>image/svg+xml</dc:format>
        <dc:type
           rdf:resource="http://purl.org/dc/dcmitype/StillImage" />
      </cc:Work>
    </rdf:RDF>
  </metadata>
  <sodipodi:namedview
     inkscape:window-height="581"
     inkscape:window-width="849"
     inkscape:pageshadow="2"
     inkscape:pageopacity="0.0"
     guidetolerance="10.0"
     gridtolerance="10.0"
     objecttolerance="10.0"
     borderopacity="1.0"
     bordercolor="#666666"
     pagecolor="#ffffff"
     id="base"
     inkscape:zoom="5.04"
     inkscape:cx="37.5"
     inkscape:cy="37.5"
     inkscape:window-x="56"
     inkscape:window-y="99"
     inkscape:current-layer="svg2913" />
  <g
     id="layer2"
     stroke="&stroke_color;" />
  <g
     id="layer1"
     stroke="&stroke_color;">
    <path
       d="M 24.25134,26.218364 C 23.610496,26.218364 23.193948,26.524772 22.937612,27.109305 C 22.937611,27.109305 16.304869,45.169401 16.304869,45.169401 C 16.304869,45.169401 16.048531,45.878521 16.048531,47.050271 C 16.048531,47.050271 16.048531,57.239927 16.048531,57.239927 C 16.048531,58.383086 16.722993,58.95581 17.746769,58.955808 L 57.286876,58.955808 C 58.296697,58.955808 58.92103,58.197462 58.92103,57.008943 L 58.92103,46.819287 C 58.92103,46.819287 59.02968,46.005777 58.824903,45.433385 L 51.935825,27.274293 C 51.746621,26.733759 51.282773,26.230934 50.782303,26.218364 L 24.25134,26.218364 z "
       style="fill:none;fill-opacity:1;fill-rule:evenodd;stroke-width:3.5;stroke-linecap:round;stroke-linejoin:round;stroke-miterlimit:4;stroke-dasharray:none;stroke-opacity:1"
       stroke="&stroke_color;"
       id="path4196" />
    <path
       d="M 16.036125,46.31706 L 16.82011,45.586133 L 55.383254,45.652128 L 58.933437,45.987171 L 58.933437,57.009493 C 58.933437,58.198011 58.311031,58.955916 57.301209,58.955916 L 17.740095,58.955916 C 16.716318,58.955916 16.036125,58.383549 16.036125,57.24039 L 16.036125,46.31706 z "
       style="fill-opacity:1;fill-rule:evenodd;stroke-width:3.5;stroke-linecap:butt;stroke-linejoin:miter;stroke-opacity:1"
       fill="&fill_color;"
       stroke="&stroke_color;"
       id="path4170" />
    <path
       d="M 16.318601,45.174118 C 15.586209,46.720296 16.31797,47.700798 17.380572,47.700798 C 17.380572,47.700798 57.369271,47.700798 57.369271,47.700798 C 58.516687,47.675658 59.261289,46.632303 58.834058,45.438098 L 51.949556,27.264867 C 51.760355,26.724333 51.278195,26.221508 50.777726,26.208938 L 24.265074,26.208938 C 23.62423,26.208938 23.203102,26.529489 22.946766,27.114021 C 22.946766,27.114021 16.318601,45.174118 16.318601,45.174118 z "
       style="fill-opacity:1;fill-rule:evenodd;stroke-width:3.5;stroke-linecap:butt;stroke-linejoin:miter;stroke-opacity:1"
       fill="&fill_color;"
       stroke="&stroke_color;"
       id="path3093" />
    <path
       d="M 15.964205,39.678855 C 14.907577,6.7122729 42.149796,11.922448 41.986561,29.070486 L 49.484866,29.070486 L 37.818751,42.782727 L 25.584026,29.070486 C 25.584026,29.070486 33.316644,29.070486 33.316644,29.070486 C 33.785293,17.487642 16.175205,14.098871 15.964205,39.678855 z "
       style="fill-opacity:1;fill-rule:nonzero;stroke-width:3.5;stroke-linecap:butt;stroke-linejoin:miter;marker:none;marker-start:none;marker-mid:none;marker-end:none;stroke-miterlimit:4;stroke-dasharray:none;stroke-dashoffset:0;stroke-opacity:1;visibility:visible;display:block;overflow:visible"
       fill="&fill_color;"
       stroke="&stroke_color;"
       id="path1432" />
  </g>
</svg>
