<?xml version="1.0" encoding="UTF-8" standalone="no"?>
<!-- Created with Inkscape (http://www.inkscape.org/) -->
<!DOCTYPE svg PUBLIC "-//W3C//DTD SVG 1.1//EN" "http://www.w3.org/Graphics/SVG/1.1/DTD/svg11.dtd" [
        <!ENTITY ns_svg "http://www.w3.org/2000/svg">
        <!ENTITY ns_xlink "http://www.w3.org/1999/xlink">
        <!ENTITY fill_color "#ffffff">
        <!ENTITY stroke_color "#4d4d4d">
]>
<svg
   xmlns:svg="http://www.w3.org/2000/svg"
   xmlns="http://www.w3.org/2000/svg"
   xmlns:xlink="http://www.w3.org/1999/xlink"
   version="1.0"
   width="75"
   height="75"
   id="svg2913">
  <g
     transform="matrix(1.000499,0,0,0.956976,-1.871294e-2,2.570286)"
     style="stroke:#4d4d4d;stroke-opacity:1"
     id="g2001">
    <path
       d="M 24.25134,26.218364 C 23.610496,26.218364 23.193948,26.524772 22.937612,27.109305 C 22.937611,27.109305 16.304869,45.169401 16.304869,45.169401 C 16.304869,45.169401 16.048531,45.878521 16.048531,47.050271 C 16.048531,47.050271 16.048531,57.239927 16.048531,57.239927 C 16.048531,58.383086 16.722993,58.95581 17.746769,58.955808 L 57.286876,58.955808 C 58.296697,58.955808 58.92103,58.197462 58.92103,57.008943 L 58.92103,46.819287 C 58.92103,46.819287 59.02968,46.005777 58.824903,45.433385 L 51.935825,27.274293 C 51.746621,26.733759 51.282773,26.230934 50.782303,26.218364 L 24.25134,26.218364 z "
       style="fill:none;fill-opacity:1;fill-rule:evenodd;stroke-width:2.08105326;stroke-linecap:round;stroke-linejoin:round;stroke-miterlimit:4;stroke-dasharray:none;stroke-opacity:1"
       stroke="&stroke_color;"
       id="path4196" />
    <path
       d="M 16.036125,46.31706 L 16.82011,45.586133 L 55.383254,45.652128 L 58.933437,45.987171 L 58.933437,57.009493 C 58.933437,58.198011 58.311031,58.955916 57.301209,58.955916 L 17.740095,58.955916 C 16.716318,58.955916 16.036125,58.383549 16.036125,57.24039 L 16.036125,46.31706 z "
       style="fill-opacity:1;fill-rule:evenodd;stroke-width:1.1148839px;stroke-linecap:butt;stroke-linejoin:miter;stroke-opacity:1"
       fill="&fill_color;"
       stroke="&stroke_color;"
       id="path4170" />
    <path
       d="M 16.318601,45.174118 C 15.586209,46.720296 16.31797,47.700798 17.380572,47.700798 C 17.380572,47.700798 57.369271,47.700798 57.369271,47.700798 C 58.516687,47.675658 59.261289,46.632303 58.834058,45.438098 L 51.949556,27.264867 C 51.760355,26.724333 51.278195,26.221508 50.777726,26.208938 L 24.265074,26.208938 C 23.62423,26.208938 23.203102,26.529489 22.946766,27.114021 C 22.946766,27.114021 16.318601,45.174118 16.318601,45.174118 z "
       style="fill-opacity:1;fill-rule:evenodd;stroke-width:1.09254909px;stroke-linecap:butt;stroke-linejoin:miter;stroke-opacity:1"
       fill="&fill_color;"
       stroke="&stroke_color;"
       id="path3093" />
  </g>
  <path
     d="M 54.79287,48.181789 C 21.794795,47.843679 28.828436,21.820566 45.962373,22.678 L 46.283007,15.508857 L 59.490702,27.223691 L 45.260988,38.360496 C 45.260988,38.360496 45.030165,30.967324 45.030165,30.967324 C 33.472171,30.045503 28.530686,48.075048 54.79287,48.181789 z "
     style="fill-opacity:1;fill-rule:nonzero;stroke-width:1.01815069;stroke-linecap:butt;stroke-linejoin:miter;marker:none;marker-start:none;marker-mid:none;marker-end:none;stroke-miterlimit:4;stroke-dasharray:none;stroke-dashoffset:0;stroke-opacity:1;visibility:visible;display:block;overflow:visible"
     fill="&fill_color;"
     stroke="&stroke_color;"
     id="path1432" />
</svg>
