<?xml version="1.0" encoding="utf-8"?>
<!-- Generator: Adobe Illustrator 12.0.1, SVG Export Plug-In . SVG Version: 6.00 Build 51448)  -->
<!DOCTYPE svg PUBLIC "-//W3C//DTD SVG 1.1//EN" "http://www.w3.org/Graphics/SVG/1.1/DTD/svg11.dtd" [
	<!ENTITY ns_svg "http://www.w3.org/2000/svg">
	<!ENTITY ns_xlink "http://www.w3.org/1999/xlink">
	<!ENTITY stroke_color "#000000">
	<!ENTITY fill_color "#FFFFFF">
]>
<svg  version="1.1" id="Icon" xmlns="&ns_svg;" xmlns:xlink="&ns_xlink;" width="44.902" height="44.902"
	 viewBox="0 0 44.902 44.902" overflow="visible" enable-background="new 0 0 44.902 44.902" xml:space="preserve">
<circle cx="22.451" cy="22.451" r="22.451"/>
<path fill="#FFFFFF" d="M16.459,12.369c0,2.095-1.694,3.791-3.788,3.791c-2.09,0-3.787-1.696-3.787-3.791
	c0-2.091,1.696-3.786,3.787-3.786C14.764,8.583,16.459,10.28,16.459,12.369z"/>
<path fill="#FFFFFF" d="M8.401,18.661c2.092,0,3.788,1.696,3.788,3.791c0,2.09-1.696,3.785-3.788,3.785
	c-2.091,0-3.785-1.695-3.785-3.785C4.616,20.357,6.312,18.661,8.401,18.661z"/>
<path fill="#FFFFFF" d="M12.364,28.446c2.094,0,3.79,1.692,3.79,3.787c0,2.092-1.696,3.784-3.79,3.784
	c-2.089,0-3.785-1.692-3.785-3.784C8.579,30.139,10.276,28.446,12.364,28.446z"/>
<path fill="#FFFFFF" d="M18.661,36.501c0-2.094,1.692-3.789,3.789-3.789c2.09,0,3.786,1.695,3.786,3.789
	c0,2.091-1.696,3.785-3.786,3.785C20.354,40.286,18.661,38.59,18.661,36.501z"/>
<circle fill="#FFFFFF" cx="32.23" cy="32.536" r="3.786"/>
<path fill="#FFFFFF" d="M36.502,26.241c-2.092,0-3.787-1.695-3.787-3.787s1.695-3.785,3.791-3.785c2.088,0,3.782,1.693,3.782,3.785
	S38.594,26.241,36.502,26.241z"/>
<circle fill="#FFFFFF" cx="32.534" cy="12.671" r="3.786"/>
<circle fill="#FFFFFF" cx="22.452" cy="8.403" r="3.787"/>
</svg>
