<?xml version="1.0" encoding="utf-8"?>
<!-- Generator: Adobe Illustrator 12.0.1, SVG Export Plug-In . SVG Version: 6.00 Build 51448)  -->
<!DOCTYPE svg PUBLIC "-//W3C//DTD SVG 1.1//EN" "http://www.w3.org/Graphics/SVG/1.1/DTD/svg11.dtd" [
	<!ENTITY ns_svg "http://www.w3.org/2000/svg">
	<!ENTITY ns_xlink "http://www.w3.org/1999/xlink">
]>
<svg  version="1.1" id="Icon" xmlns="&ns_svg;" xmlns:xlink="&ns_xlink;" width="75" height="75" viewBox="0 0 75 75"
	 overflow="visible" enable-background="new 0 0 75 75" xml:space="preserve">

<circle cx="37.5" cy="37.5" r="22.451"/>
<path fill="#FFFFFF" d="M31.508,27.418c0,2.095-1.694,3.791-3.788,3.791c-2.09,0-3.787-1.696-3.787-3.791
	c0-2.091,1.696-3.786,3.787-3.786C29.813,23.632,31.508,25.329,31.508,27.418z"/>
<path fill="#FFFFFF" d="M23.45,33.71c2.092,0,3.788,1.696,3.788,3.791c0,2.09-1.696,3.785-3.788,3.785
	c-2.091,0-3.785-1.695-3.785-3.785C19.665,35.406,21.361,33.71,23.45,33.71z"/>
<path fill="#FFFFFF" d="M27.413,43.495c2.094,0,3.79,1.693,3.79,3.787c0,2.092-1.696,3.785-3.79,3.785
	c-2.089,0-3.785-1.693-3.785-3.785C23.628,45.188,25.325,43.495,27.413,43.495z"/>
<path fill="#FFFFFF" d="M33.71,51.55c0-2.094,1.693-3.789,3.789-3.789c2.09,0,3.786,1.695,3.786,3.789
	c0,2.091-1.696,3.785-3.786,3.785C35.403,55.335,33.71,53.639,33.71,51.55z"/>
<circle fill="#FFFFFF" cx="47.28" cy="47.585" r="3.786"/>
<path fill="#FFFFFF" d="M51.551,41.29c-2.092,0-3.788-1.695-3.788-3.787s1.696-3.785,3.791-3.785c2.088,0,3.783,1.693,3.783,3.785
	S53.642,41.29,51.551,41.29z"/>
<circle fill="#FFFFFF" cx="47.583" cy="27.72" r="3.786"/>
<circle fill="#FFFFFF" cx="37.501" cy="23.452" r="3.787"/>
</svg>
