<?xml version="1.0" encoding="utf-8"?>
<!-- Generator: Adobe Illustrator 12.0.1, SVG Export Plug-In . SVG Version: 6.00 Build 51448)  -->
<!DOCTYPE svg PUBLIC "-//W3C//DTD SVG 1.1//EN" "http://www.w3.org/Graphics/SVG/1.1/DTD/svg11.dtd" [
	<!ENTITY ns_svg "http://www.w3.org/2000/svg">
	<!ENTITY ns_xlink "http://www.w3.org/1999/xlink">
	<!ENTITY fill_color "#FFFFFF">
	<!ENTITY stroke_color "#000000">
]>
<svg  version="1.1" id="Layer_1" xmlns="&ns_svg;" xmlns:xlink="&ns_xlink;" width="75" height="75" viewBox="0 0 75 75"
	 overflow="visible" enable-background="new 0 0 75 75" xml:space="preserve">
<linearGradient id="XMLID_3_" gradientUnits="userSpaceOnUse" x1="17.3291" y1="28.4702" x2="57.7891" y2="28.4702">
	<stop  offset="0" style="stop-color:&stroke_color;"/>
	<stop  offset="1" style="stop-color:&stroke_color;"/>
</linearGradient>
<path fill="url(#XMLID_3_)" stroke="&stroke_color;" stroke-width="3.5" stroke-linecap="round" stroke-linejoin="round" d="M18.81,25.744
	h37.5c0.816,0,1.479,0.663,1.479,1.48v2.493c0,0.814-0.663,1.479-1.479,1.479h-37.5c-0.818,0-1.48-0.664-1.48-1.479v-2.492
	C17.329,26.406,17.991,25.744,18.81,25.744z"/>
<rect x="20.075" y="31.196" fill="&fill_color;" stroke="&stroke_color;" stroke-width="3.5" stroke-linecap="round" stroke-linejoin="round" width="34.967" height="23.349"/>
<linearGradient id="XMLID_4_" gradientUnits="userSpaceOnUse" x1="17.3291" y1="57.2725" x2="57.7891" y2="57.2725">
	<stop  offset="0" style="stop-color:&stroke_color;"/>
	<stop  offset="1" style="stop-color:&stroke_color;"/>
</linearGradient>
<path fill="url(#XMLID_4_)" stroke="&stroke_color;" stroke-width="3.5" stroke-linecap="round" stroke-linejoin="round" d="M18.81,54.545
	h37.5c0.816,0,1.479,0.661,1.479,1.479v2.492c0,0.818-0.663,1.483-1.479,1.483h-37.5c-0.818,0-1.48-0.664-1.48-1.483v-2.492
	C17.329,55.21,17.991,54.545,18.81,54.545z"/>
<path fill="none" stroke="&stroke_color;" stroke-width="3.5" stroke-linecap="round" stroke-linejoin="round" d="M20.074,54.543
	l9.016-23.348l8.332,23.346l8.363-23.347"/>
<path fill="none" stroke="&stroke_color;" stroke-width="3.5" stroke-linecap="round" stroke-linejoin="round" d="M55.039,54.543
	l-9.253-23.348"/>
<path sodipodi:cy="30.38743" sodipodi:type="arc" sodipodi:ry="1.4736885" sodipodi:cx="30.009657" sodipodi:rx="1.8756036" fill="&fill_color;" stroke="&stroke_color;" stroke-width="3.5" stroke-linecap="round" stroke-linejoin="round" d="
	M35.765,16.884c0.58,1.531-0.18,3.235-1.697,3.811c-1.516,0.575-3.217-0.199-3.797-1.729c-0.577-1.53,0.183-3.237,1.698-3.812
	C33.486,14.581,35.186,15.354,35.765,16.884z"/>
<path sodipodi:cy="30.38743" sodipodi:type="arc" sodipodi:ry="1.4736885" sodipodi:cx="30.009657" sodipodi:rx="1.8756036" fill="&fill_color;" stroke="&stroke_color;" stroke-width="3.5" stroke-linecap="round" stroke-linejoin="round" d="
	M43.803,23.89c-1.098,1.188-2.954,1.255-4.146,0.152c-1.189-1.102-1.263-2.956-0.163-4.144c1.099-1.187,2.954-1.256,4.143-0.154
	C44.827,20.847,44.902,22.702,43.803,23.89z"/>
<line fill="none" stroke="&stroke_color;" stroke-width="3.5" stroke-linecap="round" stroke-linejoin="round" x1="44.174" y1="20.416" x2="59.628" y2="12.817"/>
<line fill="none" stroke="&stroke_color;" stroke-width="3.5" stroke-linecap="round" stroke-linejoin="round" x1="15" y1="8.876" x2="30.423" y2="16.544"/>
</svg>
