<?xml version="1.0" encoding="utf-8"?>
<!-- Generator: Adobe Illustrator 12.0.1, SVG Export Plug-In . SVG Version: 6.00 Build 51448)  -->
<!DOCTYPE svg PUBLIC "-//W3C//DTD SVG 1.1//EN" "http://www.w3.org/Graphics/SVG/1.1/DTD/svg11.dtd" [
	<!ENTITY ns_svg "http://www.w3.org/2000/svg">
	<!ENTITY ns_xlink "http://www.w3.org/1999/xlink">
	<!ENTITY stroke_color "#000000">
	<!ENTITY fill_color "#AAAAAA">
]>
<svg  version="1.1" id="Icon" xmlns="&ns_svg;" xmlns:xlink="&ns_xlink;" width="48.773" height="48.406"
	 viewBox="0 0 48.773 48.406" overflow="visible" enable-background="new 0 0 48.773 48.406" xml:space="preserve">
<g id="Journal">
	<path fill="&fill_color;" stroke="&stroke_color;" stroke-width="3.5" d="M35.339,9.326V8.213c0-2.165-2.168-4.306-4.307-4.306H1.75v42.748
		h29.282c2.786,0,4.307-1.812,4.307-4.308V9.326z"/>
	<line fill="&fill_color;" stroke="&stroke_color;" stroke-width="3.5" x1="10.96" y1="3.908" x2="10.96" y2="46.656"/>
</g>
<path id="Pencil" fill="&fill_color;" stroke="&stroke_color;" stroke-width="3.5" d="M35.339,21.75L46.656,7.152
	c0.029-0.03,0.187-0.246,0.187-0.246c0.113-0.199,0.184-0.425,0.184-0.682c0-0.074-0.002-0.148-0.016-0.223
	c-0.107-0.931-0.879-2.066-2.016-2.963c-1.14-0.895-2.425-1.382-3.353-1.274c-0.404,0.048-0.975,0.464-0.975,0.464l-5.328,7.097
	l-7.848,10.453l-2.568,3.344l-4.274,10.164c-0.052,0.129-0.019,0.276,0.087,0.366c0.107,0.089,0.263,0.101,0.377,0.023l9.628-6.195
	c0.014-0.014,0.012-0.039,0.028-0.055c0.08-0.062,0.174-0.115,0.236-0.195c0.01-0.01,0.043-0.053,0.049-0.062l2.248-2.793
	L35.339,21.75z"/>
</svg>

