<?xml version="1.0" encoding="utf-8"?>
<!-- Generator: Adobe Illustrator 12.0.1, SVG Export Plug-In . SVG Version: 6.00 Build 51448)  -->
<!DOCTYPE svg PUBLIC "-//W3C//DTD SVG 1.1//EN" "http://www.w3.org/Graphics/SVG/1.1/DTD/svg11.dtd" [
	<!ENTITY ns_svg "http://www.w3.org/2000/svg">
	<!ENTITY ns_xlink "http://www.w3.org/1999/xlink">
	<!ENTITY fill_color "#FFFFFF">
	<!ENTITY stroke_color "&stroke_color;">
]>
<svg  version="1.1" id="Icon" xmlns="&ns_svg;" xmlns:xlink="&ns_xlink;" width="44.346" height="50.289"
	 viewBox="0 0 44.346 50.289" overflow="visible" enable-background="new 0 0 44.346 50.289" xml:space="preserve">
<g id="Drum">
	<rect id="rect10" x="6.395" y="22.177" fill="&fill_color;" stroke="&stroke_color;" stroke-width="3.5" width="32.002" height="21.371"/>
	<path id="path21" fill="none" stroke="&stroke_color;" stroke-width="3.5" stroke-linecap="round" stroke-linejoin="round" d="
		M38.395,43.546l-8.469-21.369l-0.002-0.002L22.27,43.544l-7.625-21.367L6.394,43.546"/>
	
		<linearGradient id="path8_1_" gradientUnits="userSpaceOnUse" x1="3.8826" y1="760.2461" x2="40.9119" y2="760.2461" gradientTransform="matrix(1 0 0 1 0 -740.5645)">
		<stop  offset="0" style="stop-color:&stroke_color;"/>
		<stop  offset="1" style="stop-color:&stroke_color;"/>
	</linearGradient>
	<path id="path8" fill="url(#path8_1_)" stroke="&stroke_color;" stroke-width="3.5" stroke-linecap="round" stroke-linejoin="round" d="
		M5.237,17.188h34.321c0.747,0,1.354,0.606,1.354,1.354v2.281c0,0.746-0.605,1.353-1.354,1.353H5.237
		c-0.749,0-1.354-0.606-1.354-1.353v-2.281C3.882,17.794,4.488,17.188,5.237,17.188z"/>
	
		<linearGradient id="path17_1_" gradientUnits="userSpaceOnUse" x1="3.8826" y1="786.6074" x2="40.9119" y2="786.6074" gradientTransform="matrix(1 0 0 1 0 -740.5645)">
		<stop  offset="0" style="stop-color:&stroke_color;"/>
		<stop  offset="1" style="stop-color:&stroke_color;"/>
	</linearGradient>
	<path id="path17" fill="url(#path17_1_)" stroke="&stroke_color;" stroke-width="3.5" stroke-linecap="round" stroke-linejoin="round" d="
		M5.237,43.548h34.321c0.747,0,1.354,0.604,1.354,1.353v2.281c0,0.75-0.605,1.357-1.354,1.357H5.237
		c-0.749,0-1.354-0.607-1.354-1.357V44.9C3.882,44.156,4.488,43.548,5.237,43.548z"/>
</g>
<g id="Drumstick_2">
	<path id="path25" fill="&fill_color;" stroke="&stroke_color;" stroke-width="3.5" d="M28.111,15.492c-1.005,1.087-2.702,1.148-3.795,0.139
		c-1.088-1.009-1.155-2.706-0.148-3.793c1.005-1.087,2.704-1.149,3.791-0.141C29.049,12.707,29.117,14.404,28.111,15.492z"/>
	
		<line id="line27" fill="none" stroke="&stroke_color;" stroke-width="3.5" stroke-linecap="round" stroke-linejoin="round" x1="28.451" y1="12.312" x2="42.595" y2="5.357"/>
</g>
<g id="Drumstick_1">
	<path id="path23" fill="&fill_color;" stroke="&stroke_color;" stroke-width="3.5" d="M20.755,9.079c0.531,1.401-0.166,2.961-1.554,3.488
		s-2.944-0.182-3.475-1.582c-0.528-1.4,0.168-2.962,1.554-3.489C18.669,6.972,20.225,7.679,20.755,9.079z"/>
	
		<line id="line29" fill="none" stroke="&stroke_color;" stroke-width="3.5" stroke-linecap="round" stroke-linejoin="round" x1="1.75" y1="1.75" x2="15.865" y2="8.768"/>
</g>
</svg>

