<?xml version="1.0" encoding="utf-8"?>
<!DOCTYPE svg PUBLIC "-//W3C//DTD SVG 1.1//EN" "http://www.w3.org/Graphics/SVG/1.1/DTD/svg11.dtd" [
	<!ENTITY ns_svg "http://www.w3.org/2000/svg">
	<!ENTITY ns_xlink "http://www.w3.org/1999/xlink">
]>
<!-- Created with Inkscape (http://www.inkscape.org/) -->
<svg
   xmlns="&ns_svg;"
   xmlns:xlink="&ns_xlink;"
   version="1.1"
   width="259.40457"
   height="167.61369"
   viewBox="0 0 259.40457 167.61369"
   id="Icon">

<g transform="translate(-171.6177,-540.1715)" id="layer1">
  <path
       d="M 206.20866,722.65343 C 211.15114,722.96097 216.10882,722.87387 221.05829,722.89622 C 227.12157,722.89263 233.18484,722.88361 239.24812,722.87653 C 244.8072,723.63597 250.10416,722.29927 255.48624,721.68979 C 260.34995,721.29356 264.40849,718.92481 268.73406,716.92265 C 276.62075,713.20907 253.5596,725.50794 245.93074,729.72586 C 250.07894,726.28974 253.9449,722.49059 257.92226,718.83845 C 263.17444,714.39905 266.71391,708.46558 270.54594,702.8502 C 273.40237,698.56842 274.71867,693.5519 276.38851,688.73779 C 277.92396,683.14183 278.88398,677.40472 280.015,671.71945 C 280.09289,665.86324 282.62791,660.75249 284.47585,655.38207 C 286.97499,650.65091 289.48739,645.93231 292.07146,641.2485 C 294.65056,634.63763 299.28068,629.39162 303.5553,623.88202 C 307.69753,618.06143 312.66477,613.07321 317.6369,608.01834 C 333.47387,594.8946 351.1741,585.9292 370.45245,580.8791 C 376.10395,579.23997 381.33585,580.8706 386.8844,581.55038 C 393.14597,582.29873 397.86359,586.31273 402.92533,589.70219 C 406.79594,593.29191 410.57039,597.32005 414.02277,601.19834 C 414.60448,601.66187 415.18618,602.1254 415.76789,602.58893 L 380.02698,625.0608 C 379.47284,624.62387 378.91869,624.18693 378.36454,623.74999 C 375.0461,619.79291 371.60532,615.66196 367.66311,612.30239 C 362.72746,609.3256 358.35201,606.03596 352.33942,605.69435 C 347.19382,605.5062 342.14568,604.42244 337.04454,606.33157 C 321.92278,611.61318 297.12522,622.73768 359.31145,591.05747 C 358.38254,591.52122 357.45362,591.98497 356.52471,592.44872 C 351.11803,597.02625 345.78095,601.44321 342.01301,607.64363 C 337.7051,612.75001 332.97624,617.58507 330.29407,623.82596 C 327.79646,628.58328 325.44645,633.42546 322.90961,638.17134 C 320.74818,643.05342 317.65966,647.63135 317.64894,653.28096 C 316.62051,659.1029 315.5886,664.91826 314.50406,670.72737 C 312.81991,675.88981 311.30723,681.1321 308.94899,686.03183 C 305.08439,691.83768 301.34957,697.8042 296.7768,703.08427 C 292.63508,706.55789 288.51958,709.96355 285.14964,714.2271 C 268.90094,723.89177 253.26819,735.38399 235.7405,743.10225 C 231.16977,744.64975 226.83401,746.81581 221.88208,747.1218 C 216.3688,747.3478 210.82312,747.87703 205.27132,747.56212 C 199.22611,747.55504 193.18091,747.54602 187.1357,747.54243 C 181.96313,747.56551 176.78432,747.49078 171.61772,747.78522 L 206.20866,722.65343 z "
       fill="#ffffff"
       stroke="#ffffff"
       id="path1" />
  <path
       d="M 367.6197,620.14123 C 367.5693,623.30418 366.18393,626.19154 365.45368,629.26877 C 363.85958,634.50961 363.19088,639.92475 362.19861,645.28088 C 361.47588,651.71306 361.58159,658.19446 361.52006,664.65527 C 360.83749,669.96621 362.36096,674.91026 363.36634,680.01254 C 364.40809,685.10495 367.97723,688.77352 370.70458,692.88336 C 373.59193,696.87913 377.73106,699.38314 381.44598,702.41964 C 385.27237,705.2501 389.94477,706.0369 394.27329,707.60399 C 399.07939,708.96477 404.00215,709.84764 408.88495,710.91325 C 414.02355,711.83704 417.72785,708.82245 422.06002,706.89246 C 432.19949,701.26178 401.87271,718.31726 391.77788,724.02758 L 431.0223,708.51659 C 417.14106,716.79228 403.55249,725.74275 389.22446,733.31224 C 384.19932,734.54105 379.79767,736.76804 374.4281,735.12178 C 369.50489,733.86491 364.5413,732.72146 359.61584,731.44865 C 354.89211,729.53974 349.82358,728.27992 345.7672,724.97213 C 341.96551,721.67674 337.77401,718.80786 334.75843,714.65345 C 331.48857,710.11457 327.86912,705.86967 326.45417,700.26501 C 325.23985,694.77265 323.35048,689.45542 324.14651,683.6776 C 324.21736,677.10382 324.23385,670.52751 324.5615,663.95958 C 325.25328,658.52746 325.67405,653.03775 327.54817,647.83174 C 328.19863,645.10495 328.11653,641.61911 329.52316,639.55238 L 367.6197,620.14123 z "
       fill="#ffffff"
       stroke="#ffffff"
       id="path2" />
</g>
</svg>
