<?xml version="1.0" encoding="utf-8"?>
<!-- Generator: Adobe Illustrator 12.0.1, SVG Export Plug-In . SVG Version: 6.00 Build 51448)  -->
<!DOCTYPE svg PUBLIC "-//W3C//DTD SVG 1.1//EN" "http://www.w3.org/Graphics/SVG/1.1/DTD/svg11.dtd" [
	<!ENTITY ns_svg "http://www.w3.org/2000/svg">
	<!ENTITY ns_xlink "http://www.w3.org/1999/xlink">
	<!ENTITY fill_color "#FFFFFF">
	<!ENTITY stroke_color "&stroke_color;">
]>
<svg  version="1.1" id="Icon" xmlns="&ns_svg;" xmlns:xlink="&ns_xlink;" width="44.695" height="46.326"
	 viewBox="0 0 44.695 46.326" overflow="visible" enable-background="new 0 0 44.695 46.326" xml:space="preserve">
<g id="Paper">
	<polygon fill="&fill_color;" stroke="&stroke_color;" stroke-width="3.5" points="34.637,44.576 34.637,1.75 13.694,1.75 1.75,13.689 
		1.75,44.576 	"/>
	<polyline fill="none" stroke="&stroke_color;" stroke-width="3.5" points="1.75,13.689 13.694,13.689 13.694,1.75 	"/>
</g>
<path id="Pencil" fill="&fill_color;" stroke="&stroke_color;" stroke-width="3.5" d="M34.637,13.288L24.444,26.783L22.356,29.5l-3.476,8.267
	c-0.046,0.104-0.018,0.223,0.069,0.295c0.089,0.071,0.211,0.084,0.307,0.02l7.826-5.037c0.012-0.008,0.012-0.027,0.022-0.043
	c0.064-0.049,0.142-0.092,0.195-0.162c0.004-0.002,0.034-0.041,0.034-0.049l1.831-2.271l5.469-7.054l8.012-10.329
	c0.021-0.023,0.148-0.203,0.148-0.203c0.097-0.161,0.148-0.345,0.148-0.556c0-0.061,0-0.118-0.012-0.176
	c-0.088-0.763-0.716-1.682-1.64-2.413c-0.923-0.728-1.969-1.123-2.728-1.034c-0.326,0.042-0.789,0.375-0.789,0.375L34.637,13.288z"
	/>
</svg>

