<?xml version="1.0" encoding="UTF-8" standalone="no"?>
<!-- Created with Inkscape (http://www.inkscape.org/) -->
<svg
   xmlns:svg="http://www.w3.org/2000/svg"
   xmlns="http://www.w3.org/2000/svg"
   version="1.0"
   width="48"
   height="48"
   viewBox="0 0 40.938 42.182"
   id="Layer_1"
   xml:space="preserve"><defs
   id="defs22" />
<defs>
  <style type="text/css">
    .fill-color {fill: white;}
  </style>
</defs>
<g
   transform="matrix(1.642121,0,0,1.642121,-15.36003,-15.16578)"
   id="g3">
	<circle
   class="fill-color"
   cx="21.792"
   cy="22.104"
   r="11.817"
   style="stroke:#010101;stroke-width:2"
   id="circle5" />
</g>
<path
   d="M 18.48079,1.730001 C 18.48079,1.730001 10.841645,9.9159723 10.841645,21.208836 C 10.841645,32.500057 18.48079,40.539879 18.48079,40.539879"
   style="fill:none;stroke:#010101;stroke-width:3.2842412"
   id="path7" />
<path
   d="M 22.334847,1.730001 C 22.334847,1.730001 29.840981,10.643432 29.840981,21.208836 C 29.840981,31.77424 22.334847,40.539879 22.334847,40.539879"
   style="fill:none;stroke:#010101;stroke-width:3.2842412"
   id="path9" />
<line
   x1="39.815216"
   y1="21.131657"
   x2="1.0217632"
   y2="21.131657"
   id="line11"
   style="fill:none;stroke:#010101;stroke-width:3.2842412" />
<line
   x1="20.425058"
   y1="1.7283604"
   x2="20.425058"
   y2="40.539879"
   id="line13"
   style="fill:none;stroke:#2a2d7c;stroke-width:3.2842412" />
<polygon
   points="40.938,0 0,0.623 0,42.182 40.938,41.56 40.938,0 "
   style="fill:none"
   id="polygon15" />
<line
   x1="20.425058"
   y1="1.7283604"
   x2="20.425058"
   y2="40.539879"
   id="line17"
   style="fill:none;stroke:#1d5a2d;stroke-width:3.2842412" />
<line
   x1="20.425058"
   y1="1.7283604"
   x2="20.425058"
   y2="40.539879"
   id="line19"
   style="fill:none;stroke:#010101;stroke-width:3.2842412" />
</svg>
