<?xml version="1.0" encoding="utf-8"?>
<!-- Generator: Adobe Illustrator 13.0.2, SVG Export Plug-In . SVG Version: 6.00 Build 14948)  -->
<!DOCTYPE svg PUBLIC "-//W3C//DTD SVG 1.1//EN" "http://www.w3.org/Graphics/SVG/1.1/DTD/svg11.dtd">
<svg version="1.1"
	 id="Layer_1" inkscape:output_extension="org.inkscape.output.svg.inkscape" sodipodi:version="0.32" inkscape:version="0.45.1" sodipodi:docname="badge-channel-6.svg" xmlns:inkscape="http://www.inkscape.org/namespaces/inkscape" xmlns:dc="http://purl.org/dc/elements/1.1/" xmlns:rdf="http://www.w3.org/1999/02/22-rdf-syntax-ns#" sodipodi:docbase="/home/dcbw/Development/olpc/sugar-jhbuild/source/artwork/icons/scalable/device" xmlns:sodipodi="http://sodipodi.sourceforge.net/DTD/sodipodi-0.dtd" xmlns:cc="http://web.resource.org/cc/" xmlns:svg="http://www.w3.org/2000/svg"
	 xmlns="http://www.w3.org/2000/svg" xmlns:xlink="http://www.w3.org/1999/xlink" x="0px" y="0px" width="27.25px" height="27.25px"
	 viewBox="0 0 27.25 27.25" enable-background="new 0 0 27.25 27.25" xml:space="preserve">
<sodipodi:namedview  id="base" inkscape:window-width="872" inkscape:pageshadow="2" inkscape:window-height="619" inkscape:current-layer="g3223" inkscape:cx="13.625" pagecolor="#ffffff" inkscape:cy="12.928786" inkscape:window-x="5" inkscape:zoom="14.93578" inkscape:window-y="47" gridtolerance="10.0" borderopacity="1.0" objecttolerance="10.0" inkscape:pageopacity="0.0" guidetolerance="10.0" bordercolor="#666666">
	</sodipodi:namedview>
<g id="g3223">
	<rect id="rect3225" x="1.125" y="1.125" fill="#010101" stroke="#FFFFFF" stroke-width="2.25" width="25" height="25"/>
	<g enable-background="new    ">
		<path fill="#FFFFFF" d="M17.301,7.688v1.707c-0.471-0.223-0.945-0.393-1.424-0.51c-0.479-0.118-0.955-0.177-1.424-0.177
			c-1.238,0-2.182,0.417-2.834,1.253c-0.653,0.834-1.025,2.096-1.118,3.785c0.365-0.539,0.822-0.951,1.373-1.239
			c0.55-0.287,1.156-0.431,1.818-0.431c1.392,0,2.492,0.422,3.298,1.266c0.807,0.845,1.211,1.993,1.211,3.447
			c0,1.422-0.422,2.563-1.262,3.423c-0.842,0.859-1.961,1.29-3.359,1.29c-1.602,0-2.827-0.614-3.674-1.842
			c-0.848-1.228-1.271-3.008-1.271-5.34c0-2.189,0.52-3.935,1.559-5.236s2.434-1.953,4.185-1.953c0.469,0,0.944,0.047,1.424,0.139
			C16.281,7.363,16.781,7.502,17.301,7.688z M13.581,13.561c-0.841,0-1.508,0.287-1.999,0.862c-0.492,0.575-0.738,1.364-0.738,2.366
			c0,0.995,0.246,1.782,0.738,2.36c0.491,0.579,1.158,0.868,1.999,0.868s1.507-0.289,2-0.868c0.492-0.578,0.737-1.365,0.737-2.36
			c0-1.002-0.245-1.791-0.737-2.366S14.422,13.561,13.581,13.561z"/>
	</g>
</g>
</svg>
