<?xml version="1.0" ?><!DOCTYPE svg  PUBLIC '-//W3C//DTD SVG 1.1//EN'  'http://www.w3.org/Graphics/SVG/1.1/DTD/svg11.dtd' [
	<!ENTITY stroke_color "#666666">
	<!ENTITY fill_color "#ffffff">
]><svg enable-background="new 0 0 55 55" height="55px" version="1.1" viewBox="0 0 55 55" width="55px" x="0px" xml:space="preserve" xmlns="http://www.w3.org/2000/svg" xmlns:xlink="http://www.w3.org/1999/xlink" y="0px"><g display="block" id="emblem-notification">
	<g display="inline">
		<g>
			<rect fill="&fill_color;" height="40" stroke="&stroke_color;" stroke-width="3.5" width="40" x="7.5" y="7.5"/>
		</g>
		<g enable-background="new    ">
			<path d="M24.563,37.676c0-1.547,1.26-2.807,2.808-2.807c1.547,0,2.808,1.26,2.808,2.807     c0,1.549-1.261,2.809-2.808,2.809C25.823,40.484,24.563,39.225,24.563,37.676z M24.779,16.439c0-1.512,1.116-2.447,2.592-2.447     c1.44,0,2.591,0.972,2.591,2.447v13.858c0,1.477-1.151,2.449-2.591,2.449c-1.476,0-2.592-0.938-2.592-2.449V16.439z" fill="&stroke_color;"/>
		</g>
	</g>
</g></svg>