<?xml version="1.0" ?><!DOCTYPE svg  PUBLIC '-//W3C//DTD SVG 1.1//EN'  'http://www.w3.org/Graphics/SVG/1.1/DTD/svg11.dtd' [
	<!ENTITY stroke_color "#666666">
	<!ENTITY fill_color "#ffffff">
]><svg enable-background="new 0 0 55.884 55.226" height="55.226px" version="1.1" viewBox="0 0 55.884 55.226" width="55.884px" x="0px" xml:space="preserve" xmlns="http://www.w3.org/2000/svg" xmlns:xlink="http://www.w3.org/1999/xlink" y="0px"><g display="block" id="emblem-download">
	<g id="Cursor_5_">
		<g>
			<path d="M45.553,21.607c-1.548,0-2.946,0.631-3.96,1.643l-8.049,8.05L33.543,7.507     c-0.004-1.428-0.549-2.864-1.64-3.959c-2.191-2.185-5.738-2.185-7.922,0c-1.097,1.096-1.639,2.529-1.642,3.961l-0.002,23.789     L14.29,23.25c-1.012-1.015-2.413-1.643-3.96-1.643c-3.094-0.001-5.598,2.511-5.6,5.603c-0.001,1.546,0.631,2.952,1.636,3.962     l15.97,15.972l0,0h0l5.606,5.606l21.573-21.579c1.01-1.011,1.638-2.411,1.641-3.958C51.157,24.115,48.648,21.606,45.553,21.607z" fill="&fill_color;"/>
		</g>
		<g>
			<path d="M45.553,21.607     c-1.548,0-2.946,0.631-3.96,1.643l-8.049,8.05L33.543,7.507c-0.004-1.428-0.549-2.864-1.64-3.959     c-2.191-2.185-5.738-2.185-7.922,0c-1.097,1.096-1.639,2.529-1.642,3.961l-0.002,23.789L14.29,23.25     c-1.012-1.015-2.413-1.643-3.96-1.643c-3.094-0.001-5.598,2.511-5.6,5.603c-0.001,1.546,0.631,2.952,1.636,3.962l15.97,15.972     l0,0h0l5.606,5.606l21.573-21.579c1.01-1.011,1.638-2.411,1.641-3.958C51.157,24.115,48.648,21.606,45.553,21.607z" fill="none" stroke="&stroke_color;" stroke-linecap="round" stroke-width="3.5"/>
		</g>
	</g>
</g></svg>