<?xml version="1.0" ?><!DOCTYPE svg  PUBLIC '-//W3C//DTD SVG 1.1//EN'  'http://www.w3.org/Graphics/SVG/1.1/DTD/svg11.dtd' [
	<!ENTITY stroke_color "#666666">
	<!ENTITY fill_color "#ffffff">
]><svg enable-background="new 0 0 55 55" height="55px" version="1.1" viewBox="0 0 55 55" width="55px" x="0px" xml:space="preserve" xmlns="http://www.w3.org/2000/svg" xmlns:xlink="http://www.w3.org/1999/xlink" y="0px"><g display="block" id="emblem-busy">
	<g display="inline">
		<path d="M27.5,50C15.072,50,5,39.925,5,27.5C5,15.073,15.072,5,27.5,5    C39.932,5,50,15.077,50,27.5C50,39.925,39.929,50,27.5,50z" fill="&fill_color;" stroke="&stroke_color;" stroke-width="3.5"/>
		<path d="M29.6,16.95    c4.878,0.973,8.555,5.281,8.555,10.444c0,5.885-4.771,10.657-10.654,10.657c-5.889,0-10.658-4.768-10.658-10.657    c0-4.425,2.701-8.223,6.546-9.831" fill="none" stroke="&stroke_color;" stroke-linecap="round" stroke-linejoin="round" stroke-width="3.5"/>
		<polyline fill="none" points="    32.164,23.364 29.6,16.95 36.354,15.505   " stroke="&stroke_color;" stroke-linecap="round" stroke-linejoin="round" stroke-width="3.5"/>
	</g>
</g></svg>