<?xml version="1.0" encoding="utf-8"?>
<!-- Generator: Adobe Illustrator 12.0.1, SVG Export Plug-In . SVG Version: 6.00 Build 51448)  -->
<!DOCTYPE svg PUBLIC "-//W3C//DTD SVG 1.1//EN" "http://www.w3.org/Graphics/SVG/1.1/DTD/svg11.dtd" [
	<!ENTITY ns_svg "http://www.w3.org/2000/svg">
	<!ENTITY ns_xlink "http://www.w3.org/1999/xlink">
        <!ENTITY fill_color "#FFFFFF">
        <!ENTITY stroke_color "#000000">
]>
<svg  version="1.1" id="Sketch" xmlns="&ns_svg;" xmlns:xlink="&ns_xlink;" width="52" height="52" viewBox="8 6 58 56"
	 overflow="visible" xml:space="preserve">

<path fill="&fill_color;" stroke="&stroke_color;" stroke-width="3.5" d="M61.256,48.453c-1.22-9.197-9.483-19.292-24.009-24.424
	c-8.104-2.862-18.316-1.41-22.38,7.176c-4.39,9.272,3.688,20.409,14.949,20.315c7.494-0.061,15.002,2.828,19.49,5.639
	C54.443,60.381,62.31,56.402,61.256,48.453z M53.898,48.547c-0.633,1.83-2.629,2.809-4.471,2.182
	c-1.83-0.629-2.81-2.629-2.181-4.465c0.63-1.834,2.626-2.812,4.463-2.186C53.544,44.707,54.524,46.709,53.898,48.547z"/>
<path fill="&fill_color;" stroke="&stroke_color;" stroke-width="3.5" d="M43.753,33.955c0,0,7.481-9.249,9.44-12.689
	c2.879-5.052,4.313-10.158,2.112-11.112c-1.618-0.704-6.048,3.1-8.371,7.271c-1.573,2.831-7.157,14.474-7.157,14.474L43.753,33.955z
	"/>
<path fill="&fill_color;" stroke="&stroke_color;" stroke-width="3.5" d="M43.753,33.955l-4.013-2.081c0,0-3.153,2.133-4.355,4.255
	c-1.201,2.135-1.247,6.286-3.352,8.458c-1.265,1.303-0.011,1.029-0.011,1.029s7.597-2.633,9.101-4.957
	C42.615,38.354,43.753,33.955,43.753,33.955z"/>
</svg>
