<?xml version="1.0" encoding="UTF-8"?>
<!DOCTYPE svg PUBLIC "-//W3C//DTD SVG 1.1//EN" "http://www.w3.org/Graphics/SVG/1.1/DTD/svg11.dtd" [
  <!ENTITY fill_color "#FFFFFF">
  <!ENTITY stroke_color "#010101">
]>
<svg
   xmlns="http://www.w3.org/2000/svg"
   version="1.1"
   width="55"
   height="55"
   viewBox="0 0 55 55"
   id="svg2"
   xml:space="preserve"><g
     transform="matrix(0.69235104,0,0,0.69235104,57.084974,-10.100226)"
     id="g4382"><g
       transform="translate(-80.093659,12.220029)"
       id="g4308"
       style="fill:none;stroke:&stroke_color;;stroke-opacity:1"><g
         id="g4310"
         style="fill:none;stroke:&stroke_color;;stroke-opacity:1"><path
           d="m 6.736,49.002 h 24.52 c 2.225,0 3.439,-1.447 3.439,-3.441 v -27.28 c 0,-1.73 -1.732,-3.441 -3.439,-3.441 h -4.389"
           id="path4312"
           style="fill:none;stroke:&stroke_color;;stroke-width:3.5;stroke-linecap:round;stroke-linejoin:round;stroke-opacity:1" /></g></g><g
       transform="translate(-80.093659,12.220029)"
       id="g4314"
       style="fill:none;stroke:&stroke_color;;stroke-opacity:1"><g
         id="g4316"
         style="fill:none;stroke:&stroke_color;;stroke-opacity:1"><path
           d="m 26.867,38.592 c 0,1.836 -1.345,3.201 -3.441,4.047 L 6.736,49.002 V 14.84 l 16.69,-8.599 c 2.228,-0.394 3.441,0.84 3.441,2.834 v 29.517 z"
           id="path4318"
           style="fill:none;stroke:&stroke_color;;stroke-width:3.5;stroke-linecap:round;stroke-linejoin:round;stroke-opacity:1" /></g></g><path
       d="m -70.669659,54.827029 c 0,0 -1.351,-0.543 -2.702,-0.543 -1.351,0 -2.703,0.543 -2.703,0.543"
       id="path4320"
       style="fill:none;stroke:&stroke_color;;stroke-width:2.25;stroke-linecap:round;stroke-linejoin:round;stroke-opacity:1" /><path
       d="m -70.669659,44.226029 c 0,0 -1.239,-0.543 -2.815,-0.543 -1.577,0 -2.59,0.543 -2.59,0.543"
       id="path4322"
       style="fill:none;stroke:&stroke_color;;stroke-width:2.25;stroke-linecap:round;stroke-linejoin:round;stroke-opacity:1" /><path
       d="m -70.669659,33.898029 c 0,0 -1.125,-0.544 -2.927,-0.544 -1.802,0 -2.478,0.544 -2.478,0.544"
       id="path4324"
       style="fill:none;stroke:&stroke_color;;stroke-width:2.25;stroke-linecap:round;stroke-linejoin:round;stroke-opacity:1" /><line
       style="fill:none;stroke:&stroke_color;;stroke-width:2.25;stroke-linecap:round;stroke-linejoin:round;stroke-opacity:1"
       x1="-66.884659"
       x2="-66.884659"
       y1="58.753029"
       y2="23.725029"
       id="line4326" /></g><g
     transform="matrix(1,0,0,-1,-30.386573,49.171266)"
     id="g4770"><g
       transform="translate(34.0803,-1006.42)"
       id="g4772"><polyline
         transform="matrix(-0.469241,0.469241,-0.469241,-0.469241,66.2906,1019.03)"
         style="fill:none;stroke:&stroke_color;;stroke-width:3.5;stroke-linecap:round;stroke-linejoin:round"
         points="51.562,15.306 41.17,16.188 42.053,5.794"
         id="polyline4774" /><path
         d="m 39.363241,1033.1291 -0.05636,9.9115 -8.750608,0.067"
         id="path4776"
         style="fill:none;stroke:&stroke_color;;stroke-width:2.5;stroke-linecap:round;stroke-linejoin:round;stroke-miterlimit:4;stroke-opacity:1;stroke-dasharray:none" /></g></g><path
     d="m 40.058085,29.264056 c -6.453587,0 -11.685018,5.231431 -11.685018,11.685018 0,6.453588 5.231431,11.685019 11.685018,11.685019 6.453588,0 11.685019,-5.231431 11.685019,-11.685019 0,-6.453587 -5.231431,-11.685018 -11.685019,-11.685018 z m 0,4.233702 c 4.119035,0 7.451316,3.332282 7.451316,7.451316 0,4.119035 -3.332281,7.451317 -7.451316,7.451317 -4.119033,0 -7.451316,-3.332282 -7.451316,-7.451317 0,-4.119034 3.332283,-7.451315 7.451316,-7.451315 z"
     id="path3176"
     style="fill:none;stroke:&stroke_color;;stroke-width:1.37290418;stroke-linecap:butt;stroke-linejoin:miter;stroke-miterlimit:4;stroke-opacity:1;stroke-dasharray:none" /><rect
     width="3.4245946"
     height="4.642292"
     ry="0.72496533"
     x="39.236778"
     y="-32.990669"
     transform="matrix(0,1,-1,0,0,0)"
     id="rect3946-0-6"
     style="color:#000000;fill:&stroke_color;;fill-opacity:1;fill-rule:nonzero;stroke:&stroke_color;;stroke-width:0.8564592;stroke-linecap:butt;stroke-linejoin:miter;stroke-miterlimit:4;stroke-opacity:1;stroke-dasharray:none;stroke-dashoffset:0;marker:none;visibility:visible;display:inline;overflow:visible;enable-background:accumulate" /><rect
     width="3.4245946"
     height="4.642292"
     ry="0.60413778"
     x="38.345787"
     y="48.023304"
     id="rect3946-8"
     style="color:#000000;fill:&stroke_color;;fill-opacity:1;fill-rule:nonzero;stroke:&stroke_color;;stroke-width:0.8564592;stroke-linecap:butt;stroke-linejoin:miter;stroke-miterlimit:4;stroke-opacity:1;stroke-dasharray:none;stroke-dashoffset:0;marker:none;visibility:visible;display:inline;overflow:visible;enable-background:accumulate" /><rect
     width="3.4245946"
     height="4.642292"
     ry="0.60413778"
     x="38.345787"
     y="29.234726"
     id="rect3946"
     style="fill:&stroke_color;;fill-opacity:1;stroke:&stroke_color;;stroke-width:0.8564592;stroke-linejoin:miter;stroke-miterlimit:4;stroke-opacity:1;stroke-dasharray:none" /><rect
     width="3.4245946"
     height="4.642292"
     ry="0.66455156"
     x="39.236778"
     y="-51.79599"
     transform="matrix(0,1,-1,0,0,0)"
     id="rect3946-0"
     style="color:#000000;fill:&stroke_color;;fill-opacity:1;fill-rule:nonzero;stroke:&stroke_color;;stroke-width:0.8564592;stroke-linecap:butt;stroke-linejoin:miter;stroke-miterlimit:4;stroke-opacity:1;stroke-dasharray:none;stroke-dashoffset:0;marker:none;visibility:visible;display:inline;overflow:visible;enable-background:accumulate" /></svg>
