<?xml version="1.0" ?><!DOCTYPE svg  PUBLIC '-//W3C//DTD SVG 1.1//EN'  'http://www.w3.org/Graphics/SVG/1.1/DTD/svg11.dtd' [
	<!ENTITY stroke_color "#010101">
	<!ENTITY fill_color "#FFFFFF">
]><svg enable-background="new 0 0 75 75" height="75px" version="1.1" viewBox="0 0 75 75" width="75px" x="0px" xml:space="preserve" xmlns="http://www.w3.org/2000/svg" xmlns:xlink="http://www.w3.org/1999/xlink" y="0px"><g display="block" id="stock-xo">
	<path d="M43.359,45.101L53.46,55.201c0.752,0.75,1.217,1.784,1.217,2.932   c0,2.287-1.855,4.143-4.146,4.143c-1.145,0-2.178-0.463-2.932-1.211L37.498,50.963l-10.1,10.1c-0.75,0.75-1.787,1.211-2.933,1.211   c-2.285,0-4.143-1.854-4.143-4.141c0-1.146,0.465-2.184,1.212-2.934l10.104-10.101L21.535,34.996   c-0.747-0.748-1.212-1.785-1.212-2.93c0-2.289,1.854-4.145,4.146-4.145c1.143,0,2.18,0.465,2.93,1.214l10.099,10.101l10.101-10.102   c0.754-0.749,1.787-1.214,2.934-1.214c2.289,0,4.146,1.856,4.146,4.145c0,1.146-0.467,2.179-1.217,2.931L43.359,45.101z" fill="&fill_color;" stroke="&stroke_color;" stroke-width="3.5"/>
	<circle cx="37.497" cy="20.849" fill="&fill_color;" r="8.122" stroke="&stroke_color;" stroke-width="3.5"/>
</g></svg>