<?xml version="1.0" ?><!DOCTYPE svg  PUBLIC '-//W3C//DTD SVG 1.1//EN'  'http://www.w3.org/Graphics/SVG/1.1/DTD/svg11.dtd' [
	<!ENTITY stroke_color "#010101">
	<!ENTITY fill_color "#ffffff">
]>
<svg
   xmlns:dc="http://purl.org/dc/elements/1.1/"
   xmlns:cc="http://creativecommons.org/ns#"
   xmlns:rdf="http://www.w3.org/1999/02/22-rdf-syntax-ns#"
   xmlns:svg="http://www.w3.org/2000/svg"
   xmlns="http://www.w3.org/2000/svg"
   version="1.1"
   width="55"
   height="55"
   viewBox="0 0 55 55"
   id="Layer_1"
   xml:space="preserve"><metadata
     id="metadata41"><rdf:RDF><cc:Work
         rdf:about=""><dc:format>image/svg+xml</dc:format><dc:type
           rdf:resource="http://purl.org/dc/dcmitype/StillImage" /><dc:title></dc:title></cc:Work></rdf:RDF></metadata><defs
     id="defs39" /><g
     transform="matrix(0.77424441,0,0,0.77424441,-2.8662203,-0.94380403)"
     id="g3"><g
       id="g5"><g
         id="g7"><path
           d="M 53.321,35.815 46.38,17.895 C 46.093,17.156 45.461,16.656 44.739,16.504 L 33.53,16.476 c -0.819,0.091 -1.562,0.621 -1.869,1.446 L 25.11,35.535 c -0.436,1.168 0.159,2.469 1.328,2.902 0.26,0.097 0.525,0.143 0.787,0.143 0.917,0 1.777,-0.562 2.115,-1.472 l 4.189,-11.26 v 7.518 1.345 4.484 2.689 26.004 c 0,1.238 1.004,2.241 2.241,2.241 1.238,0 2.243,-1.003 2.243,-2.241 V 41.885 h 2.24 v 26.004 c 0,1.238 1.004,2.241 2.242,2.241 1.237,0 2.242,-1.003 2.242,-2.241 v -26.004 -2.689 -4.484 -1.345 -7.21 l 4.373,11.29 c 0.346,0.895 1.199,1.442 2.104,1.442 0.271,0 0.546,-0.049 0.815,-0.153 1.165,-0.452 1.742,-1.758 1.292,-2.921 z"
           id="path9"
           style="fill:&fill_color;;stroke:&stroke_color;;stroke-width:4.25199986;stroke-linecap:round;stroke-linejoin:round;stroke-miterlimit:10" /><circle
           cx="39.083"
           cy="8.8800001"
           r="5.5349998"
           id="circle11"
           style="fill:&fill_color;;stroke:&stroke_color;;stroke-width:4.25199986;stroke-linecap:round;stroke-linejoin:round;stroke-miterlimit:10" /></g><polygon
         points="33.459,37.349 44.836,37.349 47.49,46.477 31.055,46.477 "
         id="polygon13"
         style="fill:&fill_color;;stroke:&stroke_color;;stroke-width:4.25199986;stroke-linecap:round;stroke-linejoin:round;stroke-miterlimit:10" /><circle
         cx="39.026001"
         cy="18.809"
         r="0.91600001"
         id="circle15"
         style="fill:&fill_color;;stroke:&stroke_color;;stroke-width:4.25199986;stroke-linecap:round;stroke-linejoin:round;stroke-miterlimit:10" /><circle
         cx="39.026001"
         cy="21.858999"
         r="0.91600001"
         id="circle17"
         style="fill:&fill_color;;stroke:&stroke_color;;stroke-width:4.25199986;stroke-linecap:round;stroke-linejoin:round;stroke-miterlimit:10" /><circle
         cx="39.026001"
         cy="24.985001"
         r="0.91600001"
         id="circle19"
         style="fill:&fill_color;;stroke:&stroke_color;;stroke-width:4.25199986;stroke-linecap:round;stroke-linejoin:round;stroke-miterlimit:10" /></g><g
       id="g21"><g
         id="g23"><path
           d="M 53.321,35.815 46.38,17.895 C 46.093,17.156 45.461,16.656 44.739,16.504 L 33.53,16.476 c -0.819,0.091 -1.562,0.621 -1.869,1.446 L 25.11,35.535 c -0.436,1.168 0.159,2.469 1.328,2.902 0.26,0.097 0.525,0.143 0.787,0.143 0.917,0 1.777,-0.562 2.115,-1.472 l 4.189,-11.26 v 7.518 1.345 4.484 2.689 26.004 c 0,1.238 1.004,2.241 2.241,2.241 1.238,0 2.243,-1.003 2.243,-2.241 V 41.885 h 2.24 v 26.004 c 0,1.238 1.004,2.241 2.242,2.241 1.237,0 2.242,-1.003 2.242,-2.241 v -26.004 -2.689 -4.484 -1.345 -7.21 l 4.373,11.29 c 0.346,0.895 1.199,1.442 2.104,1.442 0.271,0 0.546,-0.049 0.815,-0.153 1.165,-0.452 1.742,-1.758 1.292,-2.921 z"
           id="path25"
           style="fill:&fill_color;" /><circle
           cx="39.083"
           cy="8.8800001"
           r="5.5349998"
           id="circle27"
           style="fill:&fill_color;" /></g><polygon
         points="33.459,37.349 44.836,37.349 47.49,46.477 31.055,46.477 "
         id="polygon29"
         style="fill:&fill_color;" /><circle
         cx="39.026001"
         cy="18.809"
         r="0.91600001"
         id="circle31"
         style="fill:&stroke_color;" /><circle
         cx="39.026001"
         cy="21.858999"
         r="0.91600001"
         id="circle33"
         style="fill:&stroke_color;" /><circle
         cx="39.026001"
         cy="24.985001"
         r="0.91600001"
         id="circle35"
         style="fill:&stroke_color;" /></g></g></svg>
