<?xml version="1.0" ?><!DOCTYPE svg  PUBLIC '-//W3C//DTD SVG 1.1//EN'  'http://www.w3.org/Graphics/SVG/1.1/DTD/svg11.dtd' [
	<!ENTITY stroke_color "#010101">
	<!ENTITY fill_color "#ffffff">
]>
<svg
   xmlns:dc="http://purl.org/dc/elements/1.1/"
   xmlns:cc="http://creativecommons.org/ns#"
   xmlns:rdf="http://www.w3.org/1999/02/22-rdf-syntax-ns#"
   xmlns:svg="http://www.w3.org/2000/svg"
   xmlns="http://www.w3.org/2000/svg"
   version="1.1"
   width="55"
   height="55"
   viewBox="0 0 55 55"
   id="Layer_1"
   xml:space="preserve"><metadata
     id="metadata41"><rdf:RDF><cc:Work
         rdf:about=""><dc:format>image/svg+xml</dc:format><dc:type
           rdf:resource="http://purl.org/dc/dcmitype/StillImage" /><dc:title></dc:title></cc:Work></rdf:RDF></metadata><defs
     id="defs39" /><g
     transform="matrix(0.81933639,0,0,0.81933639,-4.1333491,-4.2896391)"
     id="g3804"><g
       id="g3806"><g
         id="g3808"><path
           d="m 32.126,48.869 v 1.609 l -0.627,17.947 c 0,1 1.005,1.812 2.244,1.812 1.239,0 2.243,-0.812 2.243,-1.812 l 1.881,-16.352 h 1.495 l 1.881,16.352 c 0,1 1.005,1.812 2.245,1.812 1.238,0 2.242,-0.812 2.242,-1.812 L 45.103,50.478 V 48.869 L 43.85,45.247 H 33.38 l -1.254,3.622 z"
           id="path3810"
           style="fill:&fill_color;;stroke:&stroke_color;;stroke-width:4.25199986;stroke-linecap:round;stroke-linejoin:round;stroke-miterlimit:10" /><polygon
           points="44.4,43.266 48.229,57.242 29.064,57.242 32.892,43.266 "
           id="polygon3812"
           style="fill:&fill_color;;stroke:&stroke_color;;stroke-width:4.25199986;stroke-linecap:round;stroke-linejoin:round;stroke-miterlimit:10" /><path
           d="M 51.403,40.044 43.945,28.109 C 43.689,27.864 43.373,27.71 43.043,27.638 l -3.71,2.718 h -1.435 l -3.711,-2.75 c -0.518,-0.038 -1.049,0.125 -1.444,0.503 l -6.93,11.935 c -0.721,0.688 -0.721,1.805 0,2.493 0.36,0.345 0.834,0.517 1.308,0.517 0.473,0 0.945,-0.172 1.306,-0.517 L 34.188,32.224 32.75,43.44 h 11.732 l -1.438,-11.204 5.748,10.302 c 0.359,0.345 0.833,0.517 1.307,0.517 0.472,0 0.945,-0.172 1.306,-0.517 0.72,-0.689 0.72,-1.806 -0.002,-2.494 z"
           id="path3814"
           style="fill:&fill_color;;stroke:&stroke_color;;stroke-width:4.25199986;stroke-linecap:round;stroke-linejoin:round;stroke-miterlimit:10" /><circle
           cx="38.398998"
           cy="23.094999"
           r="4.4419999"
           id="circle3816"
           style="fill:&fill_color;;stroke:&stroke_color;;stroke-width:4.25199986;stroke-linecap:round;stroke-linejoin:round;stroke-miterlimit:10" /><path
           d="m 35.242,45.728 c 0,0 0.801,2.327 -1.372,4.118"
           id="path3818"
           style="fill:&fill_color;;stroke:&stroke_color;;stroke-width:4.25199986;stroke-linecap:round;stroke-linejoin:round;stroke-miterlimit:10" /><path
           d="m 41.861,45.728 c 0,0 -0.8,2.327 1.372,4.118"
           id="path3820"
           style="fill:&fill_color;;stroke:&stroke_color;;stroke-width:4.25199986;stroke-linecap:round;stroke-linejoin:round;stroke-miterlimit:10" /><path
           d="m 39.356,34.063 1.279,-1.284 c 0.213,-0.211 0.201,-0.567 -0.024,-0.794 -0.227,-0.227 -0.582,-0.237 -0.793,-0.023 l -1.278,1.281 -1.278,-1.281 c -0.211,-0.214 -0.566,-0.203 -0.794,0.023 -0.225,0.227 -0.235,0.583 -0.022,0.794 l 1.277,1.284 -1.255,1.259 c -0.212,0.215 -0.201,0.57 0.023,0.797 0.227,0.228 0.582,0.235 0.794,0.022 l 1.255,-1.259 1.255,1.259 c 0.213,0.213 0.568,0.205 0.793,-0.022 0.227,-0.227 0.236,-0.582 0.023,-0.797 l -1.255,-1.259"
           id="path3822"
           style="fill:&fill_color;;stroke:&stroke_color;;stroke-width:4.25199986;stroke-linecap:round;stroke-linejoin:round;stroke-miterlimit:10" /></g><path
         d="m 37.534,18.77 h 1.633 l 1.28,-1.284 c 0.211,-0.211 0.2,-0.567 -0.026,-0.794 -0.226,-0.226 -0.581,-0.237 -0.793,-0.023 l -1.277,1.282 -1.277,-1.282 c -0.213,-0.214 -0.567,-0.202 -0.795,0.023 -0.226,0.227 -0.235,0.583 -0.022,0.794 l 1.277,1.284 z"
         id="path3824"
         style="fill:&fill_color;;stroke:&stroke_color;;stroke-width:4.25199986;stroke-linecap:round;stroke-linejoin:round;stroke-miterlimit:10" /></g><g
       id="g3826"><g
         id="g3828"><path
           d="m 32.126,48.869 v 1.609 l -0.627,17.947 c 0,1 1.005,1.812 2.244,1.812 1.239,0 2.243,-0.812 2.243,-1.812 l 1.881,-16.352 h 1.495 l 1.881,16.352 c 0,1 1.005,1.812 2.245,1.812 1.238,0 2.242,-0.812 2.242,-1.812 L 45.103,50.478 V 48.869 L 43.85,45.247 H 33.38 l -1.254,3.622 z"
           id="path3830"
           style="fill:&fill_color;;stroke:&stroke_color;;stroke-width:0.94330001;stroke-linecap:round;stroke-linejoin:round;stroke-miterlimit:10" /><polygon
           points="44.4,43.266 48.229,57.242 29.064,57.242 32.892,43.266 "
           id="polygon3832"
           style="fill:&fill_color;" /><path
           d="M 51.403,40.044 43.945,28.109 C 43.689,27.864 43.373,27.71 43.043,27.638 l -3.71,2.718 h -1.435 l -3.711,-2.75 c -0.518,-0.038 -1.049,0.125 -1.444,0.503 l -6.93,11.935 c -0.721,0.688 -0.721,1.805 0,2.493 0.36,0.345 0.834,0.517 1.308,0.517 0.473,0 0.945,-0.172 1.306,-0.517 L 34.188,32.224 32.75,43.44 h 11.732 l -1.438,-11.204 5.748,10.302 c 0.359,0.345 0.833,0.517 1.307,0.517 0.472,0 0.945,-0.172 1.306,-0.517 0.72,-0.689 0.72,-1.806 -0.002,-2.494 z"
           id="path3834"
           style="fill:&fill_color;" /><circle
           cx="38.398998"
           cy="23.094999"
           r="4.4419999"
           id="circle3836"
           style="fill:&fill_color;" /><path
           d="m 35.242,45.728 c 0,0 0.801,2.327 -1.372,4.118"
           id="path3838"
           style="fill:&fill_color;;stroke:&stroke_color;;stroke-width:1.41729999;stroke-linecap:round;stroke-linejoin:round;stroke-miterlimit:10" /><path
           d="m 41.861,45.728 c 0,0 -0.8,2.327 1.372,4.118"
           id="path3840"
           style="fill:&fill_color;;stroke:&stroke_color;;stroke-width:1.41729999;stroke-linecap:round;stroke-linejoin:round;stroke-miterlimit:10" /><path
           d="m 39.356,34.063 1.279,-1.284 c 0.213,-0.211 0.201,-0.567 -0.024,-0.794 -0.227,-0.227 -0.582,-0.237 -0.793,-0.023 l -1.278,1.281 -1.278,-1.281 c -0.211,-0.214 -0.566,-0.203 -0.794,0.023 -0.225,0.227 -0.235,0.583 -0.022,0.794 l 1.277,1.284 -1.255,1.259 c -0.212,0.215 -0.201,0.57 0.023,0.797 0.227,0.228 0.582,0.235 0.794,0.022 l 1.255,-1.259 1.255,1.259 c 0.213,0.213 0.568,0.205 0.793,-0.022 0.227,-0.227 0.236,-0.582 0.023,-0.797 l -1.255,-1.259"
           id="path3842"
           style="fill:&stroke_color;" /></g><path
         d="m 37.534,18.77 h 1.633 l 1.28,-1.284 c 0.211,-0.211 0.2,-0.567 -0.026,-0.794 -0.226,-0.226 -0.581,-0.237 -0.793,-0.023 l -1.277,1.282 -1.277,-1.282 c -0.213,-0.214 -0.567,-0.202 -0.795,0.023 -0.226,0.227 -0.235,0.583 -0.022,0.794 l 1.277,1.284 z"
         id="path3844"
         style="fill:&fill_color;" /></g></g></svg>
