<?xml version="1.0" ?><!DOCTYPE svg  PUBLIC '-//W3C//DTD SVG 1.1//EN'  'http://www.w3.org/Graphics/SVG/1.1/DTD/svg11.dtd' [
	<!ENTITY stroke_color "#010101">
	<!ENTITY fill_color "#ffffff">
]>
<svg
   xmlns:dc="http://purl.org/dc/elements/1.1/"
   xmlns:cc="http://creativecommons.org/ns#"
   xmlns:rdf="http://www.w3.org/1999/02/22-rdf-syntax-ns#"
   xmlns:svg="http://www.w3.org/2000/svg"
   xmlns="http://www.w3.org/2000/svg"
   version="1.1"
   width="55"
   height="55"
   viewBox="0 0 55 55"
   id="Layer_1"
   xml:space="preserve"><metadata
     id="metadata41"><rdf:RDF><cc:Work
         rdf:about=""><dc:format>image/svg+xml</dc:format><dc:type
           rdf:resource="http://purl.org/dc/dcmitype/StillImage" /><dc:title></dc:title></cc:Work></rdf:RDF></metadata><defs
     id="defs39" /><g
     transform="matrix(0.81433298,0,0,0.81433298,-3.6157141,-4.0114537)"
     id="g5767"><g
       id="g5769"><path
         d="M 49.172,55.136 43.111,49.075 C 42.754,48.718 42.275,48.571 41.81,48.616 h -7.2 c -0.465,-0.045 -0.944,0.102 -1.301,0.459 l -6.061,6.061 c -0.632,0.631 -0.632,1.653 0,2.285 0.315,0.315 0.729,0.474 1.143,0.474 0.414,0 0.827,-0.158 1.145,-0.474 l 4.808,-4.809 -0.916,5.036 h 9.578 l -0.914,-5.021 4.794,4.794 c 0.315,0.315 0.73,0.474 1.144,0.474 0.412,0 0.827,-0.158 1.143,-0.474 0.631,-0.632 0.631,-1.654 -0.001,-2.285 z"
         id="path5771"
         style="fill:&fill_color;;stroke:&stroke_color;;stroke-width:4.25199986;stroke-linecap:round;stroke-linejoin:round;stroke-miterlimit:10" /><path
         d="m 44.068,60.064 c -0.632,-0.631 -1.655,-0.631 -2.286,10e-4 -0.632,0.631 -0.632,1.654 0.001,2.285 l 1.472,1.471 -3.183,3.876 c -0.565,0.69 -0.465,1.709 0.224,2.275 0.302,0.247 0.664,0.367 1.025,0.367 0.467,0 0.93,-0.202 1.249,-0.591 l 4.111,-5.008 c 0.529,-0.644 0.482,-1.581 -0.105,-2.17 l -2.508,-2.506 z"
         id="path5773"
         style="fill:&fill_color;;stroke:&stroke_color;;stroke-width:4.25199986;stroke-linecap:round;stroke-linejoin:round;stroke-miterlimit:10" /><path
         d="m 33.803,63.821 1.473,-1.471 c 0.632,-0.631 0.632,-1.654 0,-2.285 -0.631,-0.632 -1.653,-0.632 -2.286,-10e-4 l -2.509,2.507 c -0.587,0.589 -0.633,1.526 -0.105,2.17 l 4.112,5.008 c 0.32,0.389 0.783,0.591 1.249,0.591 0.361,0 0.725,-0.12 1.024,-0.367 0.69,-0.566 0.791,-1.585 0.224,-2.275 l -3.182,-3.877 z"
         id="path5775"
         style="fill:&fill_color;;stroke:&stroke_color;;stroke-width:4.25199986;stroke-linecap:round;stroke-linejoin:round;stroke-miterlimit:10" /><circle
         cx="38.250999"
         cy="43.348"
         r="3.4909999"
         id="circle5777"
         style="fill:&fill_color;;stroke:&stroke_color;;stroke-width:4.25199986;stroke-linecap:round;stroke-linejoin:round;stroke-miterlimit:10" /></g><path
       d="m 37.402,40.006 h 1.634 l 1.279,-1.284 c 0.212,-0.21 0.201,-0.565 -0.025,-0.793 -0.226,-0.227 -0.581,-0.237 -0.792,-0.022 l -1.278,1.28 -1.278,-1.28 c -0.212,-0.215 -0.567,-0.204 -0.794,0.022 -0.225,0.228 -0.235,0.583 -0.023,0.793 l 1.277,1.284 z"
       id="path5779"
       style="fill:&fill_color;;stroke:&stroke_color;;stroke-width:4.25199986;stroke-linecap:round;stroke-linejoin:round;stroke-miterlimit:10" /><g
       id="g5781"><path
         d="M 49.172,55.136 43.111,49.075 C 42.754,48.718 42.275,48.571 41.81,48.616 h -7.2 c -0.465,-0.045 -0.944,0.102 -1.301,0.459 l -6.061,6.061 c -0.632,0.631 -0.632,1.653 0,2.285 0.315,0.315 0.729,0.474 1.143,0.474 0.414,0 0.827,-0.158 1.145,-0.474 l 4.808,-4.809 -0.916,5.036 h 9.578 l -0.914,-5.021 4.794,4.794 c 0.315,0.315 0.73,0.474 1.144,0.474 0.412,0 0.827,-0.158 1.143,-0.474 0.631,-0.632 0.631,-1.654 -0.001,-2.285 z"
         id="path5783"
         style="fill:&fill_color;" /><path
         d="m 44.068,60.064 c -0.632,-0.631 -1.655,-0.631 -2.286,10e-4 -0.632,0.631 -0.632,1.654 0.001,2.285 l 1.472,1.471 -3.183,3.876 c -0.565,0.69 -0.465,1.709 0.224,2.275 0.302,0.247 0.664,0.367 1.025,0.367 0.467,0 0.93,-0.202 1.249,-0.591 l 4.111,-5.008 c 0.529,-0.644 0.482,-1.581 -0.105,-2.17 l -2.508,-2.506 z"
         id="path5785"
         style="fill:&fill_color;" /><path
         d="m 33.803,63.821 1.473,-1.471 c 0.632,-0.631 0.632,-1.654 0,-2.285 -0.631,-0.632 -1.653,-0.632 -2.286,-10e-4 l -2.509,2.507 c -0.587,0.589 -0.633,1.526 -0.105,2.17 l 4.112,5.008 c 0.32,0.389 0.783,0.591 1.249,0.591 0.361,0 0.725,-0.12 1.024,-0.367 0.69,-0.566 0.791,-1.585 0.224,-2.275 l -3.182,-3.877 z"
         id="path5787"
         style="fill:&fill_color;" /><circle
         cx="38.250999"
         cy="43.348"
         r="3.4909999"
         id="circle5789"
         style="fill:&fill_color;" /></g><path
       d="m 37.402,40.006 h 1.634 l 1.279,-1.284 c 0.212,-0.21 0.201,-0.565 -0.025,-0.793 -0.226,-0.227 -0.581,-0.237 -0.792,-0.022 l -1.278,1.28 -1.278,-1.28 c -0.212,-0.215 -0.567,-0.204 -0.794,0.022 -0.225,0.228 -0.235,0.583 -0.023,0.793 l 1.277,1.284 z"
       id="path5791"
       style="fill:&stroke_color;" /><path
       d="m 37.402,40.006 h 1.634 l 1.279,-1.284 c 0.212,-0.21 0.201,-0.565 -0.025,-0.793 -0.226,-0.227 -0.581,-0.237 -0.792,-0.022 l -1.278,1.28 -1.278,-1.28 c -0.212,-0.215 -0.567,-0.204 -0.794,0.022 -0.225,0.228 -0.235,0.583 -0.023,0.793 l 1.277,1.284 z"
       id="path5793"
       style="fill:&fill_color;" /><path
       d="m 37.402,40.006 h 1.634 l 1.279,-1.284 c 0.212,-0.21 0.201,-0.565 -0.025,-0.793 -0.226,-0.227 -0.581,-0.237 -0.792,-0.022 l -1.278,1.28 -1.278,-1.28 c -0.212,-0.215 -0.567,-0.204 -0.794,0.022 -0.225,0.228 -0.235,0.583 -0.023,0.793 l 1.277,1.284 z"
       id="path5795"
       style="fill:&fill_color;" /></g></svg>
