<?xml version="1.0" ?><!DOCTYPE svg  PUBLIC '-//W3C//DTD SVG 1.1//EN'  'http://www.w3.org/Graphics/SVG/1.1/DTD/svg11.dtd' [
	<!ENTITY stroke_color "#010101">
	<!ENTITY fill_color "#ffffff">
]>
<svg
   xmlns:dc="http://purl.org/dc/elements/1.1/"
   xmlns:cc="http://creativecommons.org/ns#"
   xmlns:rdf="http://www.w3.org/1999/02/22-rdf-syntax-ns#"
   xmlns:svg="http://www.w3.org/2000/svg"
   xmlns="http://www.w3.org/2000/svg"
   version="1.1"
   width="55"
   height="55"
   viewBox="0 0 55 55"
   id="Layer_1"
   xml:space="preserve"><metadata
     id="metadata41"><rdf:RDF><cc:Work
         rdf:about=""><dc:format>image/svg+xml</dc:format><dc:type
           rdf:resource="http://purl.org/dc/dcmitype/StillImage" /><dc:title></dc:title></cc:Work></rdf:RDF></metadata><defs
     id="defs39" /><g
     transform="matrix(0.78455986,0,0,0.78455986,-2.3155303,-1.7746742)"
     id="g3438"><g
       id="g3440"><path
         d="M 52.276,36.815 43.956,23.501 C 43.67,23.229 43.318,23.057 42.95,22.978 l -4.14,3.03 h -1.6 L 33.07,22.94 c -0.578,-0.042 -1.169,0.141 -1.611,0.562 l -7.73,13.314 c -0.803,0.768 -0.803,2.014 0,2.781 0.403,0.385 0.932,0.576 1.459,0.576 0.527,0 1.055,-0.191 1.456,-0.576 L 33.07,28.09 31.465,40.603 H 44.556 L 42.95,28.104 49.36,39.597 c 0.402,0.385 0.931,0.576 1.458,0.576 0.527,0 1.055,-0.191 1.458,-0.576 0.804,-0.768 0.804,-2.014 0,-2.782 z"
         id="path3442"
         style="fill:&fill_color;;stroke:&stroke_color;;stroke-width:4.25199986;stroke-linecap:round;stroke-linejoin:round;stroke-miterlimit:10" /><circle
         cx="37.792999"
         cy="17.833"
         r="4.8979998"
         id="circle3444"
         style="fill:&fill_color;;stroke:&stroke_color;;stroke-width:4.25199986;stroke-linecap:round;stroke-linejoin:round;stroke-miterlimit:10" /><path
         d="m 42.691,15.659 c 0,-2.706 -2.192,-4.898 -4.898,-4.898 -2.705,0 -4.896,2.192 -4.896,4.898"
         id="path3446"
         style="fill:&fill_color;;stroke:&stroke_color;;stroke-width:4.25199986;stroke-linecap:round;stroke-linejoin:round;stroke-miterlimit:10" /><path
         d="m 30.808,46.522 v 1.787 l -0.698,19.92 c 0,1.109 1.116,2.01 2.492,2.01 1.374,0 2.489,-0.9 2.489,-2.01 L 37.178,50.08 h 1.66 l 2.088,18.149 c 0,1.109 1.113,2.01 2.489,2.01 1.376,0 2.49,-0.9 2.49,-2.01 L 45.212,48.31 V 46.523 L 43.819,42.502 H 32.198 l -1.39,4.02 z"
         id="path3448"
         style="fill:&fill_color;;stroke:&stroke_color;;stroke-width:4.25199986;stroke-linecap:round;stroke-linejoin:round;stroke-miterlimit:10" /><path
         d="m 46.007,14.386 c -3.41,3.047 -13.889,3.017 -16.64,-0.064"
         id="path3450"
         style="fill:&fill_color;;stroke:&stroke_color;;stroke-width:4.25199986;stroke-linecap:round;stroke-linejoin:round;stroke-miterlimit:10" /><polygon
         points="43.909,40.659 47.737,54.636 28.573,54.636 32.4,40.659 "
         id="polygon3452"
         style="fill:&fill_color;;stroke:&stroke_color;;stroke-width:4.25199986;stroke-linecap:round;stroke-linejoin:round;stroke-miterlimit:10" /><path
         d="m 34.471,42.259 c -0.026,-0.078 0.792,2.662 -1.524,4.57"
         id="path3454"
         style="fill:&fill_color;;stroke:&stroke_color;;stroke-width:4.25199986;stroke-linecap:round;stroke-linejoin:round;stroke-miterlimit:10" /><path
         d="m 41.612,42.259 c 0,0 -0.89,2.583 1.522,4.57"
         id="path3456"
         style="fill:&fill_color;;stroke:&stroke_color;;stroke-width:4.25199986;stroke-linecap:round;stroke-linejoin:round;stroke-miterlimit:10" /><line
         id="line3458"
         y2="29.499001"
         x2="38.175999"
         y1="40.633999"
         x1="38.175999"
         stroke-miterlimit="10"
         style="fill:&fill_color;;stroke:&stroke_color;;stroke-width:4.25199986;stroke-linecap:round;stroke-linejoin:round;stroke-miterlimit:10" /></g><g
       id="g3460"><path
         d="M 52.276,36.815 43.956,23.501 C 43.67,23.229 43.318,23.057 42.95,22.978 l -4.14,3.03 h -1.6 L 33.07,22.94 c -0.578,-0.042 -1.169,0.141 -1.611,0.562 l -7.73,13.314 c -0.803,0.768 -0.803,2.014 0,2.781 0.403,0.385 0.932,0.576 1.459,0.576 0.527,0 1.055,-0.191 1.456,-0.576 L 33.07,28.09 31.465,40.603 H 44.556 L 42.95,28.104 49.36,39.597 c 0.402,0.385 0.931,0.576 1.458,0.576 0.527,0 1.055,-0.191 1.458,-0.576 0.804,-0.768 0.804,-2.014 0,-2.782 z"
         id="path3462"
         style="fill:&fill_color;" /><circle
         cx="37.792999"
         cy="17.833"
         r="4.8979998"
         id="circle3464"
         style="fill:&fill_color;" /><path
         d="m 42.691,15.659 c 0,-2.706 -2.192,-4.898 -4.898,-4.898 -2.705,0 -4.896,2.192 -4.896,4.898"
         id="path3466"
         style="fill:&fill_color;;stroke:&stroke_color;;stroke-width:0.94330001;stroke-linecap:round;stroke-linejoin:round;stroke-miterlimit:10" /><path
         d="m 30.808,46.522 v 1.787 l -0.698,19.92 c 0,1.109 1.116,2.01 2.492,2.01 1.374,0 2.489,-0.9 2.489,-2.01 L 37.178,50.08 h 1.66 l 2.088,18.149 c 0,1.109 1.113,2.01 2.489,2.01 1.376,0 2.49,-0.9 2.49,-2.01 L 45.212,48.31 V 46.523 L 43.819,42.502 H 32.198 l -1.39,4.02 z"
         id="path3468"
         style="fill:&fill_color;;stroke:&stroke_color;;stroke-width:0.94330001;stroke-linecap:round;stroke-linejoin:round;stroke-miterlimit:10" /><path
         d="m 46.007,14.386 c -3.41,3.047 -13.889,3.017 -16.64,-0.064"
         id="path3470"
         style="fill:&fill_color;;stroke:&stroke_color;;stroke-width:0.94330001;stroke-linecap:round;stroke-linejoin:round;stroke-miterlimit:10" /><polygon
         points="43.909,40.659 47.737,54.636 28.573,54.636 32.4,40.659 "
         id="polygon3472"
         style="fill:&fill_color;" /><path
         d="m 34.471,42.259 c -0.026,-0.078 0.792,2.662 -1.524,4.57"
         id="path3474"
         style="fill:&fill_color;;stroke:&stroke_color;;stroke-width:1.41729999;stroke-linecap:round;stroke-linejoin:round;stroke-miterlimit:10" /><path
         d="m 41.612,42.259 c 0,0 -0.89,2.583 1.522,4.57"
         id="path3476"
         style="fill:&fill_color;;stroke:&stroke_color;;stroke-width:1.41729999;stroke-linecap:round;stroke-linejoin:round;stroke-miterlimit:10" /><line
         id="line3478"
         y2="29.499001"
         x2="38.175999"
         y1="40.633999"
         x1="38.175999"
         stroke-miterlimit="10"
         style="fill:&fill_color;;stroke:&stroke_color;;stroke-width:1.41729999;stroke-linecap:round;stroke-linejoin:round;stroke-miterlimit:10" /></g></g></svg>
