<?xml version="1.0" ?><!DOCTYPE svg  PUBLIC '-//W3C//DTD SVG 1.1//EN'  'http://www.w3.org/Graphics/SVG/1.1/DTD/svg11.dtd' [
	<!ENTITY stroke_color "#010101">
	<!ENTITY fill_color "#ffffff">
]>
<svg
   xmlns:dc="http://purl.org/dc/elements/1.1/"
   xmlns:cc="http://creativecommons.org/ns#"
   xmlns:rdf="http://www.w3.org/1999/02/22-rdf-syntax-ns#"
   xmlns:svg="http://www.w3.org/2000/svg"
   xmlns="http://www.w3.org/2000/svg"
   version="1.1"
   width="55"
   height="55"
   viewBox="0 0 55 55"
   id="Layer_1"
   xml:space="preserve"><metadata
     id="metadata41"><rdf:RDF><cc:Work
         rdf:about=""><dc:format>image/svg+xml</dc:format><dc:type
           rdf:resource="http://purl.org/dc/dcmitype/StillImage" /><dc:title></dc:title></cc:Work></rdf:RDF></metadata><defs
     id="defs39" /><g
     transform="matrix(0.77796219,0,0,0.77796219,-2.4053735,-1.272339)"
     id="g3139"><g
       id="g3141"><path
         d="m 45.442,14.226 c 0,-4.005 -3.246,-7.251 -7.249,-7.251 -4.006,0 -7.252,3.246 -7.252,7.251"
         id="path3143"
         style="fill:&fill_color;;stroke:&stroke_color;;stroke-width:4.25199986;stroke-linecap:round;stroke-linejoin:round;stroke-miterlimit:10" /><path
         d="m 32.51,11.525 c -1.452,0 -2.63,1.178 -2.63,2.631 0,1.454 1.178,2.631 2.63,2.631"
         id="path3145"
         style="fill:&fill_color;;stroke:&stroke_color;;stroke-width:4.25199986;stroke-linecap:round;stroke-linejoin:round;stroke-miterlimit:10" /><path
         d="m 43.719,11.525 c 1.453,0 2.63,1.178 2.63,2.631 0,1.454 -1.177,2.631 -2.63,2.631"
         id="path3147"
         style="fill:&fill_color;;stroke:&stroke_color;;stroke-width:4.25199986;stroke-linecap:round;stroke-linejoin:round;stroke-miterlimit:10" /><path
         d="M 52.84,36.543 45.543,22.291 c -0.39,-0.76 -1.144,-1.201 -1.939,-1.242 l -2.349,0.108 -2.835,2.835 -2.833,-2.835 -2.964,-0.104 c -0.818,0.057 -1.582,0.539 -1.944,1.339 l -6.685,14.787 c -0.525,1.159 -0.011,2.523 1.149,3.048 0.308,0.14 0.63,0.206 0.947,0.206 0.877,0 1.715,-0.504 2.1,-1.356 l 4.433,-9.801 -1.373,11.647 h 13.727 l -1.373,-12.307 5.134,10.027 c 0.409,0.795 1.215,1.254 2.053,1.254 0.354,0 0.713,-0.082 1.048,-0.253 1.132,-0.581 1.58,-1.968 1.001,-3.101 z"
         id="path3149"
         style="fill:&fill_color;;stroke:&stroke_color;;stroke-width:4.25199986;stroke-linecap:round;stroke-linejoin:round;stroke-miterlimit:10" /><path
         d="m 32.623,47.329 v 20.59 c 0,1.263 1.024,2.288 2.287,2.288 1.265,0 2.288,-1.025 2.288,-2.288 v -20.59 h 1.83 v 20.59 c 0,1.263 1.024,2.288 2.289,2.288 1.263,0 2.286,-1.025 2.286,-2.288 v -20.59 -6.406 h -10.98 v 6.406 z"
         id="path3151"
         style="fill:&fill_color;;stroke:&stroke_color;;stroke-width:4.25199986;stroke-linecap:round;stroke-linejoin:round;stroke-miterlimit:10" /><circle
         cx="38.193001"
         cy="14.225"
         r="5.6490002"
         id="circle3153"
         style="fill:&fill_color;;stroke:&stroke_color;;stroke-width:4.25199986;stroke-linecap:round;stroke-linejoin:round;stroke-miterlimit:10" /><polygon
         points="45.016,40.933 48.218,50.06 28.39,50.06 31.29,40.933 "
         id="polygon3155"
         style="fill:&fill_color;;stroke:&stroke_color;;stroke-width:4.25199986;stroke-linecap:round;stroke-linejoin:round;stroke-miterlimit:10" /><path
         d="m 39.217,27.921 1.279,-1.284 C 40.708,26.425 40.698,26.07 40.472,25.843 40.245,25.617 39.891,25.606 39.678,25.82 L 38.4,27.101 37.122,25.82 c -0.212,-0.214 -0.567,-0.202 -0.793,0.023 -0.227,0.227 -0.236,0.582 -0.024,0.794 l 1.278,1.284 -1.254,1.259 c -0.213,0.215 -0.203,0.57 0.022,0.797 0.227,0.228 0.582,0.235 0.793,0.022 l 1.256,-1.259 1.255,1.259 c 0.212,0.213 0.567,0.205 0.792,-0.022 0.227,-0.227 0.237,-0.582 0.024,-0.797 l -1.254,-1.259"
         id="path3157"
         style="fill:&fill_color;;stroke:&stroke_color;;stroke-width:4.25199986;stroke-linecap:round;stroke-linejoin:round;stroke-miterlimit:10" /></g><g
       id="g3159"><path
         d="m 45.442,14.226 c 0,-4.005 -3.246,-7.251 -7.249,-7.251 -4.006,0 -7.252,3.246 -7.252,7.251"
         id="path3161"
         style="fill:none;stroke:&fill_color;;stroke-miterlimit:10" /><path
         d="m 32.51,11.525 c -1.452,0 -2.63,1.178 -2.63,2.631 0,1.454 1.178,2.631 2.63,2.631"
         id="path3163"
         style="fill:&fill_color;" /><path
         d="m 43.719,11.525 c 1.453,0 2.63,1.178 2.63,2.631 0,1.454 -1.177,2.631 -2.63,2.631"
         id="path3165"
         style="fill:&fill_color;" /><path
         d="M 52.84,36.543 45.543,22.291 c -0.39,-0.76 -1.144,-1.201 -1.939,-1.242 l -2.349,0.108 -2.835,2.835 -2.833,-2.835 -2.964,-0.104 c -0.818,0.057 -1.582,0.539 -1.944,1.339 l -6.685,14.787 c -0.525,1.159 -0.011,2.523 1.149,3.048 0.308,0.14 0.63,0.206 0.947,0.206 0.877,0 1.715,-0.504 2.1,-1.356 l 4.433,-9.801 -1.373,9.647 h 13.727 l -1.373,-10.307 5.134,10.027 c 0.409,0.795 1.215,1.254 2.053,1.254 0.354,0 0.713,-0.082 1.048,-0.253 1.132,-0.581 1.58,-1.968 1.001,-3.101 z"
         id="path3167"
         style="fill:&fill_color;" /><path
         d="m 32.623,47.329 v 20.59 c 0,1.263 1.024,2.288 2.287,2.288 1.265,0 2.288,-1.025 2.288,-2.288 v -20.59 h 1.83 v 20.59 c 0,1.263 1.024,2.288 2.289,2.288 1.263,0 2.286,-1.025 2.286,-2.288 v -20.59 -6.406 h -10.98 v 6.406 z"
         id="path3169"
         style="fill:&fill_color;" /><circle
         cx="38.193001"
         cy="14.225"
         r="5.6490002"
         id="circle3171"
         style="fill:&fill_color;;stroke:&stroke_color;;stroke-width:0.94330001;stroke-linecap:round;stroke-linejoin:round;stroke-miterlimit:10" /><polygon
         points="45.016,40.933 48.218,50.06 28.39,50.06 31.29,40.933 "
         id="polygon3173"
         style="fill:&fill_color;" /><path
         d="m 39.217,27.921 1.279,-1.284 C 40.708,26.425 40.698,26.07 40.472,25.843 40.245,25.617 39.891,25.606 39.678,25.82 L 38.4,27.101 37.122,25.82 c -0.212,-0.214 -0.567,-0.202 -0.793,0.023 -0.227,0.227 -0.236,0.582 -0.024,0.794 l 1.278,1.284 -1.254,1.259 c -0.213,0.215 -0.203,0.57 0.022,0.797 0.227,0.228 0.582,0.235 0.793,0.022 l 1.256,-1.259 1.255,1.259 c 0.212,0.213 0.567,0.205 0.792,-0.022 0.227,-0.227 0.237,-0.582 0.024,-0.797 l -1.254,-1.259"
         id="path3175"
         style="fill:&stroke_color;" /></g></g></svg>
