<?xml version="1.0" ?><!DOCTYPE svg  PUBLIC '-//W3C//DTD SVG 1.1//EN'  'http://www.w3.org/Graphics/SVG/1.1/DTD/svg11.dtd' [
	<!ENTITY stroke_color "#010101">
	<!ENTITY fill_color "#ffffff">
]>
<svg
   xmlns:dc="http://purl.org/dc/elements/1.1/"
   xmlns:cc="http://creativecommons.org/ns#"
   xmlns:rdf="http://www.w3.org/1999/02/22-rdf-syntax-ns#"
   xmlns:svg="http://www.w3.org/2000/svg"
   xmlns="http://www.w3.org/2000/svg"
   version="1.1"
   width="55"
   height="55"
   viewBox="0 0 55 55"
   id="Layer_1"
   xml:space="preserve"><metadata
     id="metadata41"><rdf:RDF><cc:Work
         rdf:about=""><dc:format>image/svg+xml</dc:format><dc:type
           rdf:resource="http://purl.org/dc/dcmitype/StillImage" /><dc:title></dc:title></cc:Work></rdf:RDF></metadata><defs
     id="defs39" /><g
     transform="matrix(0.88806236,0,0,0.88806236,-5.2658934,-9.227334)"
     id="g4695"><g
       id="g4697"><path
         d="M 47.938,44.442 41.5,35.719 c -0.221,-0.222 -0.493,-0.361 -0.778,-0.427 l -3.203,1.631 h -1.237 l -3.203,-1.66 c -0.446,-0.034 -0.904,0.113 -1.246,0.456 l -5.979,8.724 c -0.622,0.624 -0.622,1.632 0,2.255 0.312,0.312 0.72,0.467 1.127,0.467 0.408,0 0.816,-0.155 1.128,-0.467 l 4.971,-7.259 v 8.078 h 7.644 V 39.45 l 4.961,7.248 c 0.311,0.312 0.719,0.467 1.127,0.467 0.408,0 0.815,-0.155 1.128,-0.467 0.619,-0.624 0.62,-1.632 -0.002,-2.256 z"
         id="path4699"
         style="fill:&fill_color;;stroke:&stroke_color;;stroke-width:4.25199986;stroke-linecap:round;stroke-linejoin:round;stroke-miterlimit:10" /><circle
         cx="36.705002"
         cy="30.610001"
         r="4.0180001"
         id="circle4701"
         style="fill:&fill_color;;stroke:&stroke_color;;stroke-width:4.25199986;stroke-linecap:round;stroke-linejoin:round;stroke-miterlimit:10" /><path
         d="m 32.164,50.872 v 1.456 L 31.706,68.56 c 0,0.904 0.732,1.637 1.638,1.637 0.904,0 1.638,-0.732 1.638,-1.637 l 1.372,-14.789 h 1.093 l 1.372,14.789 c 0,0.904 0.733,1.637 1.638,1.637 0.905,0 1.639,-0.732 1.639,-1.637 L 41.638,52.329 v -1.456 l -0.915,-3.276 h -7.644 l -0.915,3.275 z"
         id="path4703"
         style="fill:&fill_color;;stroke:&stroke_color;;stroke-width:4.25199986;stroke-linecap:round;stroke-linejoin:round;stroke-miterlimit:10" /><polygon
         points="43.828,57.625 30.024,57.625 32.782,47.559 41.069,47.559 "
         id="polygon4705"
         style="fill:&fill_color;;stroke:&stroke_color;;stroke-width:4.25199986;stroke-linecap:round;stroke-linejoin:round;stroke-miterlimit:10" /><circle
         cx="39.248001"
         cy="49.804001"
         r="0.91500002"
         id="circle4707"
         style="fill:&fill_color;;stroke:&stroke_color;;stroke-width:4.25199986;stroke-linecap:round;stroke-linejoin:round;stroke-miterlimit:10" /></g><g
       id="g4709"><path
         d="M 47.938,44.442 41.5,35.719 c -0.221,-0.222 -0.493,-0.361 -0.778,-0.427 l -3.203,1.631 h -1.237 l -3.203,-1.66 c -0.446,-0.034 -0.904,0.113 -1.246,0.456 l -5.979,8.724 c -0.622,0.624 -0.622,1.632 0,2.255 0.312,0.312 0.72,0.467 1.127,0.467 0.408,0 0.816,-0.155 1.128,-0.467 l 4.971,-7.259 v 8.078 h 7.644 V 39.45 l 4.961,7.248 c 0.311,0.312 0.719,0.467 1.127,0.467 0.408,0 0.815,-0.155 1.128,-0.467 0.619,-0.624 0.62,-1.632 -0.002,-2.256 z"
         id="path4711"
         style="fill:&fill_color;" /><circle
         cx="36.705002"
         cy="30.610001"
         r="4.0180001"
         id="circle4713"
         style="fill:&fill_color;" /><path
         d="m 32.164,50.872 v 1.456 L 31.706,68.56 c 0,0.904 0.732,1.637 1.638,1.637 0.904,0 1.638,-0.732 1.638,-1.637 l 1.372,-14.789 h 1.093 l 1.372,14.789 c 0,0.904 0.733,1.637 1.638,1.637 0.905,0 1.639,-0.732 1.639,-1.637 L 41.638,52.329 v -1.456 l -0.915,-3.276 h -7.644 l -0.915,3.275 z"
         id="path4715"
         style="fill:&fill_color;;stroke:&stroke_color;;stroke-width:0.94330001;stroke-linecap:round;stroke-linejoin:round;stroke-miterlimit:10" /><polygon
         points="43.828,57.625 30.024,57.625 32.782,47.559 41.069,47.559 "
         id="polygon4717"
         style="fill:&fill_color;" /><circle
         cx="39.248001"
         cy="49.804001"
         r="0.91500002"
         id="circle4719"
         style="fill:&stroke_color;" /></g></g></svg>
