<?xml version="1.0" ?><!DOCTYPE svg  PUBLIC '-//W3C//DTD SVG 1.1//EN'  'http://www.w3.org/Graphics/SVG/1.1/DTD/svg11.dtd' [
	<!ENTITY stroke_color "#010101">
	<!ENTITY fill_color "#ffffff">
]>
<svg
   xmlns:dc="http://purl.org/dc/elements/1.1/"
   xmlns:cc="http://creativecommons.org/ns#"
   xmlns:rdf="http://www.w3.org/1999/02/22-rdf-syntax-ns#"
   xmlns:svg="http://www.w3.org/2000/svg"
   xmlns="http://www.w3.org/2000/svg"
   version="1.1"
   width="55"
   height="55"
   viewBox="0 0 55 55"
   id="Layer_1"
   xml:space="preserve"><metadata
     id="metadata41"><rdf:RDF><cc:Work
         rdf:about=""><dc:format>image/svg+xml</dc:format><dc:type
           rdf:resource="http://purl.org/dc/dcmitype/StillImage" /><dc:title></dc:title></cc:Work></rdf:RDF></metadata><defs
     id="defs39" /><g
     transform="matrix(0.87871471,0,0,0.87871471,-6.2399538,-8.5512839)"
     id="g5228"><g
       id="g5230"><g
         id="g5232"><g
           id="g5234"><path
             d="M 49.438,49.322 43.001,43.343 C 42.78,43.121 42.508,42.982 42.223,42.918 L 40.85,44.09 H 35.953 L 34.58,42.887 c -0.447,-0.033 -0.904,0.114 -1.246,0.456 l -5.979,5.979 c -0.623,0.624 -0.623,1.633 0,2.256 0.311,0.312 0.719,0.467 1.127,0.467 0.408,0 0.815,-0.155 1.127,-0.467 l 4.971,-4.972 v 5.855 h 7.644 v -5.387 l 4.96,4.503 c 0.311,0.312 0.72,0.467 1.127,0.467 0.409,0 0.816,-0.155 1.128,-0.467 0.623,-0.622 0.623,-1.631 -10e-4,-2.255 z"
             id="path5236"
             style="fill:&fill_color;;stroke:&stroke_color;;stroke-width:4.25199986;stroke-linecap:round;stroke-linejoin:round;stroke-miterlimit:10" /><circle
             cx="38.207001"
             cy="37.973"
             r="4.0190001"
             id="circle5238"
             style="fill:&fill_color;;stroke:&stroke_color;;stroke-width:4.25199986;stroke-linecap:round;stroke-linejoin:round;stroke-miterlimit:10" /><path
             d="m 34.58,55.821 v 1.455 L 33.208,68.56 c 0,0.904 0.733,1.637 1.638,1.637 0.905,0 1.638,-0.732 1.638,-1.637 l 1.373,-11.283 h 1.092 L 40.32,68.56 c 0,0.904 0.734,1.637 1.639,1.637 0.905,0 1.637,-0.732 1.637,-1.637 L 42.224,57.277 V 55.822 52.546 H 34.58 v 3.275 z"
             id="path5240"
             style="fill:&fill_color;;stroke:&stroke_color;;stroke-width:4.25199986;stroke-linecap:round;stroke-linejoin:round;stroke-miterlimit:10" /></g><polygon
           points="42.516,52.465 45.272,62.531 31.47,62.531 34.227,52.465 "
           id="polygon5242"
           style="fill:&fill_color;;stroke:&stroke_color;;stroke-width:4.25199986;stroke-linecap:round;stroke-linejoin:round;stroke-miterlimit:10" /><line
           id="line5244"
           y2="42.865002"
           x2="36.25"
           y1="53.999001"
           x1="36.25"
           stroke-miterlimit="10"
           style="fill:&fill_color;;stroke:&stroke_color;;stroke-width:4.25199986;stroke-linecap:round;stroke-linejoin:round;stroke-miterlimit:10" /><line
           id="line5246"
           y2="42.865002"
           x2="40.491001"
           y1="53.999001"
           x1="40.491001"
           stroke-miterlimit="10"
           style="fill:&fill_color;;stroke:&stroke_color;;stroke-width:4.25199986;stroke-linecap:round;stroke-linejoin:round;stroke-miterlimit:10" /></g><path
         d="m 37.437,34.028 h 1.633 l 1.28,-1.285 c 0.213,-0.21 0.201,-0.565 -0.026,-0.793 -0.226,-0.227 -0.58,-0.237 -0.792,-0.022 l -1.277,1.28 -1.277,-1.28 c -0.214,-0.215 -0.568,-0.204 -0.796,0.022 -0.224,0.228 -0.233,0.583 -0.022,0.793 l 1.277,1.285 z"
         id="path5248"
         style="fill:&fill_color;;stroke:&stroke_color;;stroke-width:4.25199986;stroke-linecap:round;stroke-linejoin:round;stroke-miterlimit:10" /></g><g
       id="g5250"><g
         id="g5252"><g
           id="g5254"><path
             d="M 49.438,49.322 43.001,43.343 C 42.78,43.121 42.508,42.982 42.223,42.918 L 40.85,44.09 H 35.953 L 34.58,42.887 c -0.447,-0.033 -0.904,0.114 -1.246,0.456 l -5.979,5.979 c -0.623,0.624 -0.623,1.633 0,2.256 0.311,0.312 0.719,0.467 1.127,0.467 0.408,0 0.815,-0.155 1.127,-0.467 l 4.971,-4.972 v 5.855 h 7.644 v -5.387 l 4.96,4.503 c 0.311,0.312 0.72,0.467 1.127,0.467 0.409,0 0.816,-0.155 1.128,-0.467 0.623,-0.622 0.623,-1.631 -10e-4,-2.255 z"
             id="path5256"
             style="fill:&fill_color;" /><circle
             cx="38.207001"
             cy="37.973"
             r="4.0190001"
             id="circle5258"
             style="fill:&fill_color;" /><path
             d="m 34.58,55.821 v 1.455 L 33.208,68.56 c 0,0.904 0.733,1.637 1.638,1.637 0.905,0 1.638,-0.732 1.638,-1.637 l 1.373,-11.283 h 1.092 L 40.32,68.56 c 0,0.904 0.734,1.637 1.639,1.637 0.905,0 1.637,-0.732 1.637,-1.637 L 42.224,57.277 V 55.822 52.546 H 34.58 v 3.275 z"
             id="path5260"
             style="fill:&fill_color;" /></g><polygon
           points="42.516,52.465 45.272,62.531 31.47,62.531 34.227,52.465 "
           id="polygon5262"
           style="fill:&fill_color;;stroke:&stroke_color;;stroke-width:0.94330001;stroke-linecap:round;stroke-linejoin:round;stroke-miterlimit:10" /><line
           id="line5264"
           y2="42.865002"
           x2="36.25"
           y1="53.999001"
           x1="36.25"
           stroke-miterlimit="10"
           style="fill:&fill_color;;stroke:&stroke_color;;stroke-width:1.41729999;stroke-linecap:round;stroke-linejoin:round;stroke-miterlimit:10" /><line
           id="line5266"
           y2="42.865002"
           x2="40.491001"
           y1="53.999001"
           x1="40.491001"
           stroke-miterlimit="10"
           style="fill:&fill_color;;stroke:&stroke_color;;stroke-width:1.41729999;stroke-linecap:round;stroke-linejoin:round;stroke-miterlimit:10" /></g><path
         d="m 37.437,34.028 h 1.633 l 1.28,-1.285 c 0.213,-0.21 0.201,-0.565 -0.026,-0.793 -0.226,-0.227 -0.58,-0.237 -0.792,-0.022 l -1.277,1.28 -1.277,-1.28 c -0.214,-0.215 -0.568,-0.204 -0.796,0.022 -0.224,0.228 -0.233,0.583 -0.022,0.793 l 1.277,1.285 z"
         id="path5268"
         style="fill:&fill_color;" /></g></g></svg>
