<?xml version="1.0" ?><!DOCTYPE svg  PUBLIC '-//W3C//DTD SVG 1.1//EN'  'http://www.w3.org/Graphics/SVG/1.1/DTD/svg11.dtd' [
	<!ENTITY stroke_color "#010101">
	<!ENTITY fill_color "#ffffff">
]>
<svg
   xmlns:dc="http://purl.org/dc/elements/1.1/"
   xmlns:cc="http://creativecommons.org/ns#"
   xmlns:rdf="http://www.w3.org/1999/02/22-rdf-syntax-ns#"
   xmlns:svg="http://www.w3.org/2000/svg"
   xmlns="http://www.w3.org/2000/svg"
   version="1.1"
   width="55"
   height="55"
   viewBox="0 0 55 55"
   id="Layer_1"
   xml:space="preserve"><metadata
     id="metadata29"><rdf:RDF><cc:Work
         rdf:about=""><dc:format>image/svg+xml</dc:format><dc:type
           rdf:resource="http://purl.org/dc/dcmitype/StillImage" /><dc:title></dc:title></cc:Work></rdf:RDF></metadata><defs
     id="defs27" /><g
     transform="matrix(0.8028505,0,0,0.8028505,-3.0665056,-3.2484094)"
     id="g3174"><g
       id="g3152"><path
         d="M 52.357,37.03 45.119,22.891 c -0.387,-0.754 -1.135,-1.19 -1.925,-1.231 l -2.329,0.105 -2.812,2.813 -2.811,-2.813 -2.941,-0.103 c -0.812,0.056 -1.569,0.535 -1.928,1.328 l -6.634,14.67 c -0.519,1.15 -0.009,2.504 1.142,3.023 0.305,0.139 0.626,0.204 0.939,0.204 0.871,0 1.703,-0.499 2.084,-1.345 L 32.3,29.819 30.94,41.375 h 13.618 l -1.364,-12.208 5.094,9.946 c 0.405,0.791 1.205,1.245 2.037,1.245 0.35,0 0.706,-0.082 1.039,-0.252 1.124,-0.575 1.569,-1.953 0.993,-3.076 z"
         id="path3154"
         style="fill:&fill_color;;stroke:&stroke_color;;stroke-width:4.25199986;stroke-linecap:round;stroke-linejoin:round;stroke-miterlimit:10" /><path
         d="m 32.302,47.73 v 20.426 c 0,1.254 1.016,2.27 2.27,2.27 1.254,0 2.27,-1.016 2.27,-2.27 V 47.73 h 1.815 v 20.426 c 0,1.254 1.017,2.27 2.271,2.27 1.253,0 2.268,-1.016 2.268,-2.27 V 47.73 41.375 H 32.302 v 6.355 z"
         id="path3156"
         style="fill:&fill_color;;stroke:&stroke_color;;stroke-width:4.25199986;stroke-linecap:round;stroke-linejoin:round;stroke-miterlimit:10" /><path
         d="m 37.829,20.494 c 3.093,0 5.602,-2.509 5.602,-5.604 0,-3.096 -2.509,-5.604 -5.602,-5.604 -3.098,0 -5.607,2.509 -5.607,5.604 0,3.095 2.509,5.604 5.607,5.604 z"
         id="path3158"
         style="fill:&fill_color;;stroke:&stroke_color;;stroke-width:4.25199986;stroke-linecap:round;stroke-linejoin:round;stroke-miterlimit:10" /></g><path
       d="M 52.357,37.03 45.119,22.891 c -0.387,-0.754 -1.135,-1.19 -1.925,-1.231 l -2.329,0.105 -2.812,2.813 -2.811,-2.813 -2.941,-0.103 c -0.812,0.056 -1.569,0.535 -1.928,1.328 l -6.634,14.67 c -0.519,1.15 -0.009,2.504 1.142,3.023 0.305,0.139 0.626,0.204 0.939,0.204 0.871,0 1.703,-0.499 2.084,-1.345 l 4.396,-9.723 -1.361,9.757 h 13.618 l -1.364,-10.411 5.094,9.946 c 0.405,0.791 1.205,1.245 2.037,1.245 0.35,0 0.706,-0.082 1.039,-0.252 1.125,-0.573 1.57,-1.951 0.994,-3.074 z"
       id="path3160"
       style="fill:&fill_color;" /><path
       d="m 32.302,47.73 v 20.426 c 0,1.254 1.016,2.27 2.27,2.27 1.254,0 2.27,-1.016 2.27,-2.27 V 47.73 h 1.815 v 20.426 c 0,1.254 1.017,2.27 2.271,2.27 1.253,0 2.268,-1.016 2.268,-2.27 V 47.73 41.375 H 32.302 v 6.355 z"
       id="path3162"
       style="fill:&fill_color;" /><path
       d="m 37.829,20.494 c 3.093,0 5.602,-2.509 5.602,-5.604 0,-3.096 -2.509,-5.604 -5.602,-5.604 -3.098,0 -5.607,2.509 -5.607,5.604 0,3.095 2.509,5.604 5.607,5.604 z"
       id="path3164"
       style="fill:&fill_color;" /><path
       d="m 38.798,28.105 1.27,-1.275 c 0.21,-0.209 0.2,-0.562 -0.023,-0.787 -0.226,-0.226 -0.577,-0.235 -0.789,-0.023 l -1.267,1.272 -1.268,-1.272 c -0.21,-0.212 -0.563,-0.202 -0.787,0.023 -0.224,0.225 -0.235,0.578 -0.023,0.787 l 1.268,1.275 -1.244,1.248 c -0.21,0.212 -0.201,0.565 0.022,0.79 0.225,0.226 0.577,0.233 0.787,0.023 l 1.245,-1.249 1.244,1.249 c 0.211,0.21 0.564,0.202 0.786,-0.023 0.227,-0.225 0.235,-0.578 0.025,-0.79 l -1.246,-1.248"
       id="path3166"
       style="fill:&stroke_color;" /></g></svg>
