<?xml version="1.0" ?><!DOCTYPE svg  PUBLIC '-//W3C//DTD SVG 1.1//EN'  'http://www.w3.org/Graphics/SVG/1.1/DTD/svg11.dtd' [
	<!ENTITY stroke_color "#010101">
	<!ENTITY fill_color "#ffffff">
]>
<svg
   xmlns:dc="http://purl.org/dc/elements/1.1/"
   xmlns:cc="http://creativecommons.org/ns#"
   xmlns:rdf="http://www.w3.org/1999/02/22-rdf-syntax-ns#"
   xmlns:svg="http://www.w3.org/2000/svg"
   xmlns="http://www.w3.org/2000/svg"
   version="1.1"
   width="55"
   height="55"
   viewBox="0 0 55 55"
   id="Layer_1"
   xml:space="preserve"><metadata
     id="metadata29"><rdf:RDF><cc:Work
         rdf:about=""><dc:format>image/svg+xml</dc:format><dc:type
           rdf:resource="http://purl.org/dc/dcmitype/StillImage" /><dc:title></dc:title></cc:Work></rdf:RDF></metadata><defs
     id="defs27" /><g
     transform="matrix(0.84771306,0,0,0.84771306,-5.1535893,-6.4490242)"
     id="g3927"><g
       id="g3893"><path
         d="m 50.633,40.861 -7.062,-9.568 c -0.242,-0.244 -0.54,-0.396 -0.854,-0.468 l -3.512,1.788 h -1.358 l -3.513,-1.821 c -0.491,-0.036 -0.993,0.125 -1.369,0.501 l -6.557,9.568 c -0.684,0.684 -0.684,1.793 0,2.475 0.342,0.342 0.788,0.512 1.236,0.512 0.447,0 0.896,-0.17 1.235,-0.512 l 5.454,-7.964 -1.361,10.22 h 11.106 l -1.362,-10.207 5.442,7.951 c 0.342,0.342 0.789,0.512 1.236,0.512 0.447,0 0.896,-0.17 1.237,-0.512 0.684,-0.682 0.684,-1.791 0.002,-2.475 z"
         id="path3895"
         style="fill:&fill_color;;stroke:&stroke_color;;stroke-width:4.25199986;stroke-linecap:round;stroke-linejoin:round;stroke-miterlimit:10" /><circle
         cx="38.312"
         cy="25.938"
         r="4.408"
         id="circle3897"
         style="fill:&fill_color;;stroke:&stroke_color;;stroke-width:4.25199986;stroke-linecap:round;stroke-linejoin:round;stroke-miterlimit:10" /><path
         d="m 33.33,49.164 v 1.598 l -0.502,17.805 c 0,0.99 0.805,1.795 1.796,1.795 0.993,0 1.798,-0.805 1.798,-1.795 l 1.505,-16.225 h 1.198 l 1.505,16.225 c 0,0.99 0.805,1.795 1.797,1.795 0.993,0 1.798,-0.805 1.798,-1.795 L 43.722,50.762 V 49.164 L 42.717,45.57 h -8.383 l -1.004,3.594 z"
         id="path3899"
         style="fill:&fill_color;;stroke:&stroke_color;;stroke-width:4.25199986;stroke-linecap:round;stroke-linejoin:round;stroke-miterlimit:10" /><path
         d="m 36.089,46.047 c 0,0 0.794,2.309 -1.361,4.084"
         id="path3901"
         style="fill:&fill_color;;stroke:&stroke_color;;stroke-width:4.25199986;stroke-linecap:round;stroke-linejoin:round;stroke-miterlimit:10" /><path
         d="m 40.839,46.047 c 0,0 -0.794,2.309 1.362,4.084"
         id="path3903"
         style="fill:&fill_color;;stroke:&stroke_color;;stroke-width:4.25199986;stroke-linecap:round;stroke-linejoin:round;stroke-miterlimit:10" /><line
         id="line3905"
         y2="32.897999"
         x2="38.508999"
         y1="43.943001"
         x1="38.508999"
         stroke-miterlimit="10"
         style="fill:&fill_color;;stroke:&stroke_color;;stroke-width:4.25199986;stroke-linecap:round;stroke-linejoin:round;stroke-miterlimit:10" /></g><g
       id="g3907"><path
         d="m 50.633,40.861 -7.062,-9.568 c -0.242,-0.244 -0.54,-0.396 -0.854,-0.468 l -3.512,1.788 h -1.358 l -3.513,-1.821 c -0.491,-0.036 -0.993,0.125 -1.369,0.501 l -6.557,9.568 c -0.684,0.684 -0.684,1.793 0,2.475 0.342,0.342 0.788,0.512 1.236,0.512 0.447,0 0.896,-0.17 1.235,-0.512 l 5.454,-7.964 -1.361,10.22 h 11.106 l -1.362,-10.207 5.442,7.951 c 0.342,0.342 0.789,0.512 1.236,0.512 0.447,0 0.896,-0.17 1.237,-0.512 0.684,-0.682 0.684,-1.791 0.002,-2.475 z"
         id="path3909"
         style="fill:&fill_color;" /><circle
         cx="38.312"
         cy="25.938"
         r="4.408"
         id="circle3911"
         style="fill:&fill_color;" /><path
         d="m 33.33,49.164 v 1.598 l -0.502,17.805 c 0,0.99 0.805,1.795 1.796,1.795 0.993,0 1.798,-0.805 1.798,-1.795 l 1.505,-16.225 h 1.198 l 1.505,16.225 c 0,0.99 0.805,1.795 1.797,1.795 0.993,0 1.798,-0.805 1.798,-1.795 L 43.722,50.762 V 49.164 L 42.717,45.57 h -8.383 l -1.004,3.594 z"
         id="path3913"
         style="fill:&fill_color;" /><path
         d="m 36.089,46.047 c 0,0 0.794,2.309 -1.361,4.084"
         id="path3915"
         style="fill:&fill_color;;stroke:&stroke_color;;stroke-width:1.41729999;stroke-linecap:round;stroke-linejoin:round;stroke-miterlimit:10" /><path
         d="m 40.839,46.047 c 0,0 -0.794,2.309 1.362,4.084"
         id="path3917"
         style="fill:&fill_color;;stroke:&stroke_color;;stroke-width:1.41729999;stroke-linecap:round;stroke-linejoin:round;stroke-miterlimit:10" /><line
         id="line3919"
         y2="32.897999"
         x2="38.508999"
         y1="43.943001"
         x1="38.508999"
         stroke-miterlimit="10"
         style="fill:&fill_color;;stroke:&stroke_color;;stroke-width:1.41729999;stroke-linecap:round;stroke-linejoin:round;stroke-miterlimit:10" /></g></g></svg>
