<?xml version="1.0" ?><!DOCTYPE svg  PUBLIC '-//W3C//DTD SVG 1.1//EN'  'http://www.w3.org/Graphics/SVG/1.1/DTD/svg11.dtd' [
	<!ENTITY stroke_color "#010101">
	<!ENTITY fill_color "#ffffff">
]>
<svg
   xmlns:dc="http://purl.org/dc/elements/1.1/"
   xmlns:cc="http://creativecommons.org/ns#"
   xmlns:rdf="http://www.w3.org/1999/02/22-rdf-syntax-ns#"
   xmlns:svg="http://www.w3.org/2000/svg"
   xmlns="http://www.w3.org/2000/svg"
   version="1.1"
   width="55"
   height="55"
   viewBox="0 0 55 55"
   id="Layer_1"
   xml:space="preserve"><metadata
     id="metadata29"><rdf:RDF><cc:Work
         rdf:about=""><dc:format>image/svg+xml</dc:format><dc:type
           rdf:resource="http://purl.org/dc/dcmitype/StillImage" /><dc:title></dc:title></cc:Work></rdf:RDF></metadata><defs
     id="defs27" /><g
     transform="matrix(0.78448859,0,0,0.78448859,-2.5439028,-1.9405353)"
     id="g3631"><g
       id="g3597"><path
         d="M 52.139,37.797 44.07,24.886 C 43.794,24.622 43.452,24.454 43.093,24.377 L 39.08,27.316 H 37.528 L 33.514,24.34 c -0.562,-0.039 -1.135,0.137 -1.563,0.545 l -7.495,12.911 c -0.779,0.744 -0.779,1.952 0,2.696 0.391,0.373 0.902,0.56 1.414,0.56 0.512,0 1.023,-0.187 1.412,-0.56 L 33.514,29.335 31.957,43.447 H 44.65 l -1.557,-14.1 6.219,11.145 c 0.389,0.373 0.9,0.56 1.414,0.56 0.511,0 1.021,-0.187 1.412,-0.56 0.78,-0.743 0.78,-1.951 0.001,-2.695 z"
         id="path3599"
         style="fill:&fill_color;;stroke:&stroke_color;;stroke-width:4.25199986;stroke-linecap:round;stroke-linejoin:round;stroke-miterlimit:10" /><circle
         cx="38.071999"
         cy="18.966"
         r="4.8060002"
         id="circle3601"
         style="fill:&fill_color;;stroke:&stroke_color;;stroke-width:4.25199986;stroke-linecap:round;stroke-linejoin:round;stroke-miterlimit:10" /><path
         d="m 31.285,47.343 v 1.741 L 30.607,68.5 c 0,1.079 1.086,1.957 2.428,1.957 1.34,0 2.426,-0.878 2.426,-1.957 l 2.035,-17.691 h 1.618 L 41.148,68.5 c 0,1.079 1.086,1.957 2.428,1.957 1.34,0 2.426,-0.878 2.426,-1.957 L 45.324,49.084 V 47.343 L 43.968,43.425 H 32.643 l -1.358,3.918 z"
         id="path3603"
         style="fill:&fill_color;;stroke:&stroke_color;;stroke-width:4.25199986;stroke-linecap:round;stroke-linejoin:round;stroke-miterlimit:10" /><path
         d="m 34.408,43.943 c 0,0 0.867,2.519 -1.482,4.454"
         id="path3605"
         style="fill:&fill_color;;stroke:&stroke_color;;stroke-width:4.25199986;stroke-linecap:round;stroke-linejoin:round;stroke-miterlimit:10" /><path
         d="m 41.818,43.943 c 0,0 -0.867,2.519 1.482,4.454"
         id="path3607"
         style="fill:&fill_color;;stroke:&stroke_color;;stroke-width:4.25199986;stroke-linecap:round;stroke-linejoin:round;stroke-miterlimit:10" /><path
         d="m 39.106,31.476 1.384,-1.389 c 0.23,-0.23 0.218,-0.613 -0.027,-0.86 -0.242,-0.245 -0.628,-0.257 -0.857,-0.024 l -1.382,1.386 -1.382,-1.386 c -0.23,-0.232 -0.615,-0.221 -0.859,0.024 -0.242,0.247 -0.254,0.63 -0.024,0.86 l 1.382,1.389 -1.357,1.36 c -0.229,0.232 -0.219,0.618 0.024,0.862 0.246,0.246 0.63,0.254 0.859,0.026 l 1.357,-1.362 1.358,1.362 c 0.229,0.228 0.613,0.22 0.855,-0.026 0.247,-0.244 0.258,-0.63 0.027,-0.862 l -1.358,-1.36"
         id="path3609"
         style="fill:&fill_color;;stroke:&stroke_color;;stroke-width:4.25199986;stroke-linecap:round;stroke-linejoin:round;stroke-miterlimit:10" /></g><g
       id="g3611"><path
         d="M 52.139,37.797 44.07,24.886 C 43.794,24.622 43.452,24.454 43.093,24.377 L 39.08,27.316 H 37.528 L 33.514,24.34 c -0.562,-0.039 -1.135,0.137 -1.563,0.545 l -7.495,12.911 c -0.779,0.744 -0.779,1.952 0,2.696 0.391,0.373 0.902,0.56 1.414,0.56 0.512,0 1.023,-0.187 1.412,-0.56 L 33.514,29.335 31.957,43.447 H 44.65 l -1.557,-14.1 6.219,11.145 c 0.389,0.373 0.9,0.56 1.414,0.56 0.511,0 1.021,-0.187 1.412,-0.56 0.78,-0.743 0.78,-1.951 0.001,-2.695 z"
         id="path3613"
         style="fill:&fill_color;" /><circle
         cx="38.071999"
         cy="18.966"
         r="4.8060002"
         id="circle3615"
         style="fill:&fill_color;" /><path
         d="m 31.285,47.343 v 1.741 L 30.607,68.5 c 0,1.079 1.086,1.957 2.428,1.957 1.34,0 2.426,-0.878 2.426,-1.957 l 2.035,-17.691 h 1.618 L 41.148,68.5 c 0,1.079 1.086,1.957 2.428,1.957 1.34,0 2.426,-0.878 2.426,-1.957 L 45.324,49.084 V 47.343 L 43.968,43.425 H 32.643 l -1.358,3.918 z"
         id="path3617"
         style="fill:&fill_color;" /><path
         d="m 34.408,43.943 c 0,0 0.867,2.519 -1.482,4.454"
         id="path3619"
         style="fill:&fill_color;;stroke:&stroke_color;;stroke-width:1.41729999;stroke-linecap:round;stroke-linejoin:round;stroke-miterlimit:10" /><path
         d="m 41.818,43.943 c 0,0 -0.867,2.519 1.482,4.454"
         id="path3621"
         style="fill:&fill_color;;stroke:&stroke_color;;stroke-width:1.41729999;stroke-linecap:round;stroke-linejoin:round;stroke-miterlimit:10" /><path
         d="m 39.106,31.476 1.384,-1.389 c 0.23,-0.23 0.218,-0.613 -0.027,-0.86 -0.242,-0.245 -0.628,-0.257 -0.857,-0.024 l -1.382,1.386 -1.382,-1.386 c -0.23,-0.232 -0.615,-0.221 -0.859,0.024 -0.242,0.247 -0.254,0.63 -0.024,0.86 l 1.382,1.389 -1.357,1.36 c -0.229,0.232 -0.219,0.618 0.024,0.862 0.246,0.246 0.63,0.254 0.859,0.026 l 1.357,-1.362 1.358,1.362 c 0.229,0.228 0.613,0.22 0.855,-0.026 0.247,-0.244 0.258,-0.63 0.027,-0.862 l -1.358,-1.36"
         id="path3623"
         style="fill:&stroke_color;" /></g></g></svg>
