<?xml version="1.0" ?><!DOCTYPE svg  PUBLIC '-//W3C//DTD SVG 1.1//EN'  'http://www.w3.org/Graphics/SVG/1.1/DTD/svg11.dtd' [
	<!ENTITY stroke_color "#010101">
	<!ENTITY fill_color "#ffffff">
]>
<svg
   xmlns:dc="http://purl.org/dc/elements/1.1/"
   xmlns:cc="http://creativecommons.org/ns#"
   xmlns:rdf="http://www.w3.org/1999/02/22-rdf-syntax-ns#"
   xmlns:svg="http://www.w3.org/2000/svg"
   xmlns="http://www.w3.org/2000/svg"
   version="1.1"
   width="55"
   height="55"
   viewBox="0 0 55 55"
   id="Layer_1"
   xml:space="preserve"><metadata
     id="metadata29"><rdf:RDF><cc:Work
         rdf:about=""><dc:format>image/svg+xml</dc:format><dc:type
           rdf:resource="http://purl.org/dc/dcmitype/StillImage" /><dc:title></dc:title></cc:Work></rdf:RDF></metadata><defs
     id="defs27" /><g
     transform="matrix(0.78005333,0,0,0.78005333,-2.0670805,13.828005)"
     id="g3006"><g
       transform="translate(0,-20)"
       id="g3"><g
         id="g5"><path
           d="M 51.893,36.611 45.006,18.832 C 44.722,18.099 44.094,17.603 43.377,17.453 L 32.258,17.425 c -0.812,0.091 -1.55,0.616 -1.855,1.436 l -6.498,17.473 c -0.433,1.158 0.158,2.449 1.318,2.881 0.257,0.095 0.521,0.141 0.779,0.141 0.91,0 1.764,-0.558 2.1,-1.46 l 4.156,-11.171 v 7.458 1.334 4.449 2.668 25.796 c 0,1.229 0.995,2.225 2.224,2.225 1.229,0 2.224,-0.995 2.224,-2.225 V 42.633 h 2.224 v 25.796 c 0,1.229 0.995,2.225 2.224,2.225 1.229,0 2.225,-0.995 2.225,-2.225 V 42.633 39.965 35.516 34.182 27.03 l 4.338,11.199 c 0.344,0.889 1.19,1.432 2.09,1.432 0.268,0 0.541,-0.049 0.808,-0.151 1.151,-0.448 1.725,-1.746 1.278,-2.899 z"
           id="path7"
           style="fill:&fill_color;;stroke:&stroke_color;;stroke-width:4.25199986;stroke-linecap:round;stroke-linejoin:round;stroke-miterlimit:10" /><circle
           cx="37.766998"
           cy="9.8900003"
           r="5.4910002"
           id="circle9"
           style="fill:&fill_color;;stroke:&stroke_color;;stroke-width:4.25199986;stroke-linecap:round;stroke-linejoin:round;stroke-miterlimit:10" /></g><polygon
         points="40.578,30.013 37.767,17.684 34.955,30.013 37.767,32.825 "
         id="polygon11"
         style="fill:&fill_color;;stroke:&stroke_color;;stroke-width:4.25199986;stroke-linecap:round;stroke-linejoin:round;stroke-miterlimit:10" /></g><g
       transform="translate(0,-20)"
       id="g13"><g
         id="g15"><path
           d="M 51.893,36.611 45.006,18.832 C 44.722,18.099 44.094,17.603 43.377,17.453 L 32.258,17.425 c -0.812,0.091 -1.55,0.616 -1.855,1.436 l -6.498,17.473 c -0.433,1.158 0.158,2.449 1.318,2.881 0.257,0.095 0.521,0.141 0.779,0.141 0.91,0 1.764,-0.558 2.1,-1.46 l 4.156,-11.171 v 7.458 1.334 4.449 2.668 25.796 c 0,1.229 0.995,2.225 2.224,2.225 1.229,0 2.224,-0.995 2.224,-2.225 V 42.633 h 2.224 v 25.796 c 0,1.229 0.995,2.225 2.224,2.225 1.229,0 2.225,-0.995 2.225,-2.225 V 42.633 39.965 35.516 34.182 27.03 l 4.338,11.199 c 0.344,0.889 1.19,1.432 2.09,1.432 0.268,0 0.541,-0.049 0.808,-0.151 1.151,-0.448 1.725,-1.746 1.278,-2.899 z"
           id="path17"
           style="fill:&fill_color;" /><circle
           cx="37.766998"
           cy="9.8900003"
           r="5.4910002"
           id="circle19"
           style="fill:&fill_color;" /></g><polygon
         points="40.578,30.013 37.767,17.684 34.955,30.013 37.767,32.825 "
         id="polygon21"
         style="fill:&fill_color;" /></g><polygon
       points="40.578,30.013 37.767,17.684 34.955,30.013 37.767,32.825 "
       transform="translate(0,-20)"
       id="polygon23"
       style="fill:&fill_color;;stroke:&stroke_color;;stroke-width:1.41729999;stroke-linecap:round;stroke-linejoin:round;stroke-miterlimit:10" /></g></svg>
