<?xml version="1.0" ?><!DOCTYPE svg  PUBLIC '-//W3C//DTD SVG 1.1//EN'  'http://www.w3.org/Graphics/SVG/1.1/DTD/svg11.dtd' [
	<!ENTITY stroke_color "#010101">
	<!ENTITY fill_color "#ffffff">
]>
<svg
   xmlns:dc="http://purl.org/dc/elements/1.1/"
   xmlns:cc="http://creativecommons.org/ns#"
   xmlns:rdf="http://www.w3.org/1999/02/22-rdf-syntax-ns#"
   xmlns:svg="http://www.w3.org/2000/svg"
   xmlns="http://www.w3.org/2000/svg"
   version="1.1"
   width="55"
   height="55"
   viewBox="0 0 55 55"
   id="Layer_1"
   xml:space="preserve"><metadata
     id="metadata29"><rdf:RDF><cc:Work
         rdf:about=""><dc:format>image/svg+xml</dc:format><dc:type
           rdf:resource="http://purl.org/dc/dcmitype/StillImage" /><dc:title></dc:title></cc:Work></rdf:RDF></metadata><defs
     id="defs27" /><g
     transform="matrix(0.79858172,0,0,0.79858172,-3.0972594,-2.9634569)"
     id="g3345"><g
       id="g3303"><path
         d="M 52.475,37.301 44.221,24.092 c -0.284,-0.271 -0.634,-0.44 -0.998,-0.52 l -4.107,3.007 h -1.587 l -4.106,-3.044 c -0.574,-0.041 -1.161,0.14 -1.6,0.557 l -7.668,13.209 c -0.798,0.763 -0.798,1.997 0,2.76 0.399,0.381 0.923,0.569 1.447,0.569 0.521,0 1.046,-0.188 1.444,-0.569 l 6.376,-11.415 -1.593,14.228 h 12.985 l -1.592,-14.215 6.359,11.402 c 0.398,0.381 0.924,0.569 1.446,0.569 0.523,0 1.047,-0.188 1.446,-0.569 0.799,-0.763 0.799,-1.998 0.002,-2.76 z"
         id="path3305"
         style="fill:&fill_color;;stroke:&stroke_color;;stroke-width:4.25199986;stroke-linecap:round;stroke-linejoin:round;stroke-miterlimit:10" /><circle
         cx="38.106998"
         cy="18.469"
         r="4.8590002"
         id="circle3307"
         style="fill:&fill_color;;stroke:&stroke_color;;stroke-width:4.25199986;stroke-linecap:round;stroke-linejoin:round;stroke-miterlimit:10" /><path
         d="m 31.176,46.931 v 1.772 l -0.691,19.761 c 0,1.102 1.107,1.993 2.473,1.993 1.363,0 2.469,-0.892 2.469,-1.993 l 2.072,-18.005 h 1.646 l 2.07,18.005 c 0,1.102 1.105,1.993 2.47,1.993 1.365,0 2.471,-0.892 2.471,-1.993 L 45.467,48.703 V 46.931 L 44.085,42.942 H 32.556 l -1.38,3.989 z"
         id="path3309"
         style="fill:&fill_color;;stroke:&stroke_color;;stroke-width:4.25199986;stroke-linecap:round;stroke-linejoin:round;stroke-miterlimit:10" /><path
         d="m 34.356,43.471 c 0,0 0.881,2.562 -1.513,4.535"
         id="path3311"
         style="fill:&fill_color;;stroke:&stroke_color;;stroke-width:4.25199986;stroke-linecap:round;stroke-linejoin:round;stroke-miterlimit:10" /><path
         d="m 41.895,43.471 c 0,0 -0.882,2.562 1.512,4.535"
         id="path3313"
         style="fill:&fill_color;;stroke:&stroke_color;;stroke-width:4.25199986;stroke-linecap:round;stroke-linejoin:round;stroke-miterlimit:10" /><polygon
         points="38.031,15.806 42.465,16.485 42.465,12.098 33.499,12.098 33.499,16.485 "
         id="polygon3315"
         style="fill:&fill_color;;stroke:&stroke_color;;stroke-width:4.25199986;stroke-linecap:round;stroke-linejoin:round;stroke-miterlimit:10" /><path
         d="m 31.562,17.438 c 3.385,-3.021 10.148,-2.993 12.877,0.065"
         id="path3317"
         style="fill:&fill_color;;stroke:&stroke_color;;stroke-width:4.25199986;stroke-linecap:round;stroke-linejoin:round;stroke-miterlimit:10" /><line
         id="line3319"
         y2="31.724001"
         x2="38.485001"
         y1="42.769001"
         x1="38.485001"
         stroke-miterlimit="10"
         style="fill:&fill_color;;stroke:&stroke_color;;stroke-width:4.25199986;stroke-linecap:round;stroke-linejoin:round;stroke-miterlimit:10" /></g><g
       id="g3321"><path
         d="M 52.475,37.301 44.221,24.092 c -0.284,-0.271 -0.634,-0.44 -0.998,-0.52 l -4.107,3.007 h -1.587 l -4.106,-3.044 c -0.574,-0.041 -1.161,0.14 -1.6,0.557 l -7.668,13.209 c -0.798,0.763 -0.798,1.997 0,2.76 0.399,0.381 0.923,0.569 1.447,0.569 0.521,0 1.046,-0.188 1.444,-0.569 l 6.376,-11.415 -1.593,14.228 h 12.985 l -1.592,-14.215 6.359,11.402 c 0.398,0.381 0.924,0.569 1.446,0.569 0.523,0 1.047,-0.188 1.446,-0.569 0.799,-0.763 0.799,-1.998 0.002,-2.76 z"
         id="path3323"
         style="fill:&fill_color;" /><circle
         cx="38.106998"
         cy="18.469"
         r="4.8590002"
         id="circle3325"
         style="fill:&fill_color;" /><path
         d="m 31.176,46.931 v 1.772 l -0.691,19.761 c 0,1.102 1.107,1.993 2.473,1.993 1.363,0 2.469,-0.892 2.469,-1.993 l 2.072,-18.005 h 1.646 l 2.07,18.005 c 0,1.102 1.105,1.993 2.47,1.993 1.365,0 2.471,-0.892 2.471,-1.993 L 45.467,48.703 V 46.931 L 44.085,42.942 H 32.556 l -1.38,3.989 z"
         id="path3327"
         style="fill:&fill_color;" /><path
         d="m 34.356,43.471 c 0,0 0.881,2.562 -1.513,4.535"
         id="path3329"
         style="fill:&fill_color;;stroke:&stroke_color;;stroke-width:1.41729999;stroke-linecap:round;stroke-linejoin:round;stroke-miterlimit:10" /><path
         d="m 41.895,43.471 c 0,0 -0.882,2.562 1.512,4.535"
         id="path3331"
         style="fill:&fill_color;;stroke:&stroke_color;;stroke-width:1.41729999;stroke-linecap:round;stroke-linejoin:round;stroke-miterlimit:10" /><polygon
         points="38.031,15.806 42.465,16.485 42.465,12.098 33.499,12.098 33.499,16.485 "
         id="polygon3333"
         style="fill:&fill_color;" /><path
         d="m 31.562,17.438 c 3.385,-3.021 10.148,-2.993 12.877,0.065"
         id="path3335"
         style="fill:&fill_color;;stroke:&stroke_color;;stroke-width:0.93580002;stroke-linecap:round;stroke-linejoin:round;stroke-miterlimit:10" /><line
         id="line3337"
         y2="31.724001"
         x2="38.485001"
         y1="42.769001"
         x1="38.485001"
         stroke-miterlimit="10"
         style="fill:&fill_color;;stroke:&stroke_color;;stroke-width:1.41729999;stroke-linecap:round;stroke-linejoin:round;stroke-miterlimit:10" /></g></g></svg>
