<?xml version="1.0" ?><!DOCTYPE svg  PUBLIC '-//W3C//DTD SVG 1.1//EN'  'http://www.w3.org/Graphics/SVG/1.1/DTD/svg11.dtd' [
	<!ENTITY stroke_color "#010101">
	<!ENTITY fill_color "#ffffff">
]>
<svg
   xmlns:dc="http://purl.org/dc/elements/1.1/"
   xmlns:cc="http://creativecommons.org/ns#"
   xmlns:rdf="http://www.w3.org/1999/02/22-rdf-syntax-ns#"
   xmlns:svg="http://www.w3.org/2000/svg"
   xmlns="http://www.w3.org/2000/svg"
   version="1.1"
   width="55"
   height="55"
   viewBox="0 0 55 55"
   id="Layer_1"
   xml:space="preserve"><metadata
     id="metadata29"><rdf:RDF><cc:Work
         rdf:about=""><dc:format>image/svg+xml</dc:format><dc:type
           rdf:resource="http://purl.org/dc/dcmitype/StillImage" /><dc:title></dc:title></cc:Work></rdf:RDF></metadata><defs
     id="defs27" /><g
     transform="matrix(0.93267339,0,0,0.93267339,-8.0632444,-12.469593)"
     id="g5503"><g
       id="g5469"><g
         id="g5471"><path
           d="m 49.083,49.506 -6.385,-5.932 c -0.22,-0.221 -0.489,-0.358 -0.771,-0.422 l -1.362,1.164 h -4.859 l -1.361,-1.194 c -0.443,-0.033 -0.898,0.112 -1.238,0.452 l -5.93,5.932 c -0.618,0.617 -0.618,1.618 0,2.237 0.309,0.309 0.713,0.463 1.118,0.463 0.403,0 0.809,-0.154 1.118,-0.463 l 4.932,-4.932 v 5.808 h 7.583 v -5.344 l 4.919,4.468 c 0.311,0.309 0.715,0.463 1.119,0.463 0.405,0 0.811,-0.154 1.118,-0.463 0.618,-0.619 0.618,-1.62 -0.001,-2.237 z"
           id="path5473"
           style="fill:&fill_color;;stroke:&stroke_color;;stroke-width:4.25199986;stroke-linecap:round;stroke-linejoin:round;stroke-miterlimit:10" /><circle
           cx="37.939999"
           cy="38.244999"
           r="3.9860001"
           id="circle5475"
           style="fill:&fill_color;;stroke:&stroke_color;;stroke-width:4.25199986;stroke-linecap:round;stroke-linejoin:round;stroke-miterlimit:10" /><path
           d="m 34.344,55.951 v 1.445 L 32.982,68.59 c 0,0.896 0.727,1.624 1.624,1.624 0.897,0 1.624,-0.728 1.624,-1.624 l 1.363,-11.193 h 1.083 l 1.361,11.193 c 0,0.896 0.728,1.624 1.625,1.624 0.898,0 1.625,-0.728 1.625,-1.624 L 41.926,57.397 v -1.445 -3.249 h -7.583 v 3.248 z"
           id="path5477"
           style="fill:&fill_color;;stroke:&stroke_color;;stroke-width:4.25199986;stroke-linecap:round;stroke-linejoin:round;stroke-miterlimit:10" /></g><line
         id="line5479"
         y2="43.099998"
         x2="36"
         y1="54.145"
         x1="36"
         stroke-miterlimit="10"
         style="fill:&fill_color;;stroke:&stroke_color;;stroke-width:4.25199986;stroke-linecap:round;stroke-linejoin:round;stroke-miterlimit:10" /><line
         id="line5481"
         y2="43.099998"
         x2="40.207001"
         y1="54.145"
         x1="40.207001"
         stroke-miterlimit="10"
         style="fill:&fill_color;;stroke:&stroke_color;;stroke-width:4.25199986;stroke-linecap:round;stroke-linejoin:round;stroke-miterlimit:10" /></g><g
       id="g5483"><g
         id="g5485"><path
           d="m 49.083,49.506 -6.385,-5.932 c -0.22,-0.221 -0.489,-0.358 -0.771,-0.422 l -1.362,1.164 h -4.859 l -1.361,-1.194 c -0.443,-0.033 -0.898,0.112 -1.238,0.452 l -5.93,5.932 c -0.618,0.617 -0.618,1.618 0,2.237 0.309,0.309 0.713,0.463 1.118,0.463 0.403,0 0.809,-0.154 1.118,-0.463 l 4.932,-4.932 v 4.911 h 7.583 v -4.447 l 4.919,4.468 c 0.311,0.309 0.715,0.463 1.119,0.463 0.405,0 0.811,-0.154 1.118,-0.463 0.618,-0.619 0.618,-1.62 -0.001,-2.237 z"
           id="path5487"
           style="fill:&fill_color;" /><circle
           cx="37.939999"
           cy="38.244999"
           r="3.9860001"
           id="circle5489"
           style="fill:&fill_color;" /><path
           d="m 34.344,55.951 v 1.445 L 32.982,68.59 c 0,0.896 0.727,1.624 1.624,1.624 0.897,0 1.624,-0.728 1.624,-1.624 l 1.363,-11.193 h 1.083 l 1.361,11.193 c 0,0.896 0.728,1.624 1.625,1.624 0.898,0 1.625,-0.728 1.625,-1.624 L 41.926,57.397 v -1.445 -2.847 h -7.583 v 2.846 z"
           id="path5491"
           style="fill:&fill_color;" /></g><line
         id="line5493"
         y2="43.099998"
         x2="36.498001"
         y1="55.228001"
         x1="36.498001"
         stroke-miterlimit="10"
         style="fill:&fill_color;;stroke:&stroke_color;;stroke-width:1.18809998;stroke-linecap:round;stroke-linejoin:round;stroke-miterlimit:10" /><line
         id="line5495"
         y2="43.099998"
         x2="40.007999"
         y1="55.228001"
         x1="40.007999"
         stroke-miterlimit="10"
         style="fill:&fill_color;;stroke:&stroke_color;;stroke-width:1.18809998;stroke-linecap:round;stroke-linejoin:round;stroke-miterlimit:10" /></g></g></svg>
