<?xml version="1.0" ?><!DOCTYPE svg  PUBLIC '-//W3C//DTD SVG 1.1//EN'  'http://www.w3.org/Graphics/SVG/1.1/DTD/svg11.dtd' [
	<!ENTITY stroke_color "#010101">
	<!ENTITY fill_color "#FFFFFF">
]><svg enable-background="new 0 0 75 75" height="75px" version="1.1" viewBox="0 0 75 75" width="75px" x="0px" xml:space="preserve" xmlns="http://www.w3.org/2000/svg" xmlns:xlink="http://www.w3.org/1999/xlink" y="0px"><g display="block" id="media-flash-sd-mmc">
	<g display="inline">
		<polygon fill="&fill_color;" points="46.039,13.5 19.038,13.5 19.038,29.251 21.117,29.251     21.117,38.77 19.038,38.77 19.038,61.5 55.962,61.5 55.962,32.051 54.244,32.051 54.244,29.368 55.962,29.368 55.962,23.423   " stroke="&stroke_color;" stroke-width="3.5"/>
		<path d="M49.696,38.728c0,3.281-2.685,5.965-5.966,5.965H30.805c-3.28,0-5.965-2.684-5.965-5.965V25.733    c0-3.281,2.684-5.965,5.965-5.965H43.73c3.281,0,5.966,2.685,5.966,5.965V38.728z" fill="&stroke_color;"/>
	</g>
</g></svg>