<?xml version="1.0" ?><!DOCTYPE svg  PUBLIC '-//W3C//DTD SVG 1.1//EN'  'http://www.w3.org/Graphics/SVG/1.1/DTD/svg11.dtd' [
	<!ENTITY stroke_color "#010101">
	<!ENTITY fill_color "#ffffff">
]><svg enable-background="new 0 0 55 55" height="55px" id="Layer_1" version="1.1" viewBox="0 0 55 55" width="55px" x="0px" xml:space="preserve" xmlns="http://www.w3.org/2000/svg" xmlns:xlink="http://www.w3.org/1999/xlink" y="0px"><g display="block" id="network-wired_1_">
	<g id="network-wired">
		<line fill="none" stroke="&stroke_color;" stroke-linecap="round" stroke-width="3.5" x1="16.967" x2="16.967" y1="32.439" y2="23.993"/>
		<line fill="none" stroke="&stroke_color;" stroke-linecap="round" stroke-width="3.5" x1="29.637" x2="34.938" y1="28.215" y2="28.215"/>
		
			<rect fill="&fill_color;" height="7.599" stroke="&stroke_color;" stroke-linecap="round" stroke-width="2.25" width="9.794" x="42.157" y="24.312"/>
		<path d="M16.967,23.993    c0-2.334-1.892-4.224-4.224-4.224S8.52,21.658,8.52,23.993" fill="none" stroke="&stroke_color;" stroke-linecap="round" stroke-linejoin="round" stroke-width="3.5"/>
		<path d="M25.413,32.439    c0,2.334-1.891,4.224-4.224,4.224c-2.332,0-4.223-1.89-4.223-4.224" fill="none" stroke="&stroke_color;" stroke-linecap="round" stroke-linejoin="round" stroke-width="3.5"/>
		<path d="M25.413,32.439    c0-2.332,1.893-4.226,4.224-4.226" fill="none" stroke="&stroke_color;" stroke-linecap="round" stroke-linejoin="round" stroke-width="3.5"/>
		<path d="M8.52,23.993    c0,2.332-1.892,4.222-4.223,4.222" fill="none" stroke="&stroke_color;" stroke-linecap="round" stroke-linejoin="round" stroke-width="3.5"/>
		
			<rect fill="&fill_color;" height="11.35" stroke="&stroke_color;" stroke-linecap="round" stroke-linejoin="round" stroke-width="3.5" width="14.477" x="31.945" y="22.438"/>
	</g>
</g></svg>