<?xml version="1.0" encoding="utf-8"?>
<!-- Generator: Adobe Illustrator 13.0.2, SVG Export Plug-In . SVG Version: 6.00 Build 14948)  -->
<!DOCTYPE svg PUBLIC "-//W3C//DTD SVG 1.1//EN" "http://www.w3.org/Graphics/SVG/1.1/DTD/svg11.dtd">
<svg version="1.1" id="Layer_1" xmlns="http://www.w3.org/2000/svg" xmlns:xlink="http://www.w3.org/1999/xlink" x="0px" y="0px"
	 width="55px" height="55px" viewBox="0 0 55 55" enable-background="new 0 0 55 55" xml:space="preserve">
<g id="network-wireless-060">
	<path fill="#010101" d="M46.375,27.498c0,10.494-8.507,19.002-19,19.002s-19-8.508-19-19.002c0-10.49,8.507-18.998,19-18.998
		S46.375,17.003,46.375,27.498z"/>
	<g>
		<g>
			<g>
				<defs>
					<rect id="SVGID_1_" x="7.375" y="23.5" width="40" height="24"/>
				</defs>
				<clipPath id="SVGID_2_">
					<use xlink:href="#SVGID_1_"  overflow="visible"/>
				</clipPath>
				<path clip-path="url(#SVGID_2_)" fill="#FFFFFF" d="M46.375,27.498c0,10.494-8.507,19.002-19,19.002s-19-8.508-19-19.002
					c0-10.49,8.507-18.998,19-18.998S46.375,17.003,46.375,27.498z"/>
			</g>
		</g>
	</g>
	<path fill="none" stroke="#010101" stroke-width="3.5" stroke-linecap="round" stroke-linejoin="round" d="M46.375,27.498
		c0,10.494-8.507,19.002-19,19.002s-19-8.508-19-19.002c0-10.49,8.507-18.998,19-18.998S46.375,17.003,46.375,27.498z"/>
</g>
</svg>
