<?xml version="1.0" ?><!DOCTYPE svg  PUBLIC '-//W3C//DTD SVG 1.1//EN'  'http://www.w3.org/Graphics/SVG/1.1/DTD/svg11.dtd' [
      <!ENTITY stroke_color "#010101">
      <!ENTITY fill_color "#ffffff">
]><svg enable-background="new 0 0 55 55" height="55px" id="Layer_1" version="1.1" viewBox="0 0 55 55" width="55px" x="0px" xml:space="preserve" xmlns="http://www.w3.org/2000/svg" xmlns:xlink="http://www.w3.org/1999/xlink" y="0px">
<g
   transform="translate(0,-15.65)">
<path
   d="m 2.934,28.664 0,18.209 49.391,0 0,-18.209 -49.391,0 z M 36,45.833 l -17,0 0,-16.129 17,0 0,16.129 z"
   fill="&fill_color;"
   stroke="&stroke_color;"
   style="stroke-width:2" />
</g>
<path
   d="m 22.817123,49.135003 c 0,0 -3.23492,-8.766448 -3.243008,-9.837791 -0.0135,-1.797291 -2.398098,-2.342156 -2.398098,-2.342156 0,0 -0.621319,-2.249376 0,-2.770053 0.656117,-0.549837 2.934483,-0.629824 3.735004,0.330634 l 2.413094,2.895211 0,-12.75 c 0,0 0.888891,-1.589214 1.643962,-1.454545 0.745806,0.133019 1.356038,1.454545 1.356038,1.454545 l 0,10.5 0,-4.5 c 0,0 0.947828,-0.746067 1.5,-0.75 0.552172,-0.0039 1.5,0.75 1.5,0.75 l 0,4.5 0,-3.75 c 0,0 0.675747,-0.758712 1.5,-0.75 0.824253,0.0087 1.5,0.568182 1.5,0.568182 l 0,3.931818 0,-3 c 0,0 0.857274,-0.33549 1.5,-0.375 0.526597,-0.03237 1.448303,0.97351 1.5,1.575 0.220672,2.567514 0.969363,5.350927 0.823983,7.574377 -0.100086,1.53071 -0.67874,8.199778 -2.212713,8.199778 l -11.118262,0 z"
   fill="&fill_color;"
   stroke="&stroke_color;"
   style="stroke-width:1.5;" />
</svg>
