<?xml version="1.0" ?><!DOCTYPE svg  PUBLIC '-//W3C//DTD SVG 1.1//EN'  'http://www.w3.org/Graphics/SVG/1.1/DTD/svg11.dtd' [
      <!ENTITY stroke_color "#010101">
      <!ENTITY fill_color "#ffffff">
]><svg enable-background="new 0 0 55 55" height="55px" id="Layer_1" version="1.1" viewBox="0 0 55 55" width="55px" x="0px" xml:space="preserve" xmlns="http://www.w3.org/2000/svg" xmlns:xlink="http://www.w3.org/1999/xlink" y="0px">
<g
   transform="translate(0,-15.6)">
<path
   d="m 2.934,28.664 0,18.209 49.391,0 0,-18.209 -49.391,0 z"
   fill="&fill_color;"
   stroke="&stroke_color;"
   style="stroke-width:2" />
</g><path
   d="m 10.113335,17.999995 c 4.481574,10.248626 12.299223,4.823443 18.006668,1.48 3.636065,-2.130021 10.421669,1.48 10.421669,1.48"
   fill="none"
   stroke="&stroke_color;"
   style="stroke-width:2;stroke-linecap:round" /><path
   d="m 46.742465,8.1381941 -5.095999,6.7474989 -1.044001,1.3585 -1.7375,4.133 c -0.023,0.052 -0.009,0.1115 0.0345,0.1475 0.0445,0.036 0.1055,0.042 0.1535,0.01 l 3.913,-2.5185 c 0.0055,-0.004 0.0055,-0.0135 0.011,-0.0215 0.0325,-0.0245 0.071,-0.046 0.098,-0.081 0.0015,-10e-4 0.017,-0.0205 0.017,-0.0245 l 0.9155,-1.1355 2.7345,-3.527 4.005501,-5.1644989 c 0.011,-0.0115 0.0745,-0.1015 0.0745,-0.1015 0.048,-0.0805 0.074,-0.1725 0.074,-0.278 0,-0.0305 0,-0.059 -0.006,-0.088 -0.0435,-0.3815 -0.357501,-0.841 -0.819501,-1.2065 -0.4615,-0.364 -0.9845,-0.5615 -1.364,-0.517 -0.163,0.021 -0.3945,0.1875 -0.3945,0.1875 l -1.5695,2.0795 z"
   fill="&fill_color;"
   stroke="&stroke_color;"
   style="stroke-width:1.5" />
</svg>
