<?xml version="1.0" ?><!DOCTYPE svg  PUBLIC '-//W3C//DTD SVG 1.1//EN'  'http://www.w3.org/Graphics/SVG/1.1/DTD/svg11.dtd' [
      <!ENTITY stroke_color "#010101">
      <!ENTITY fill_color "#ffffff">
]><svg enable-background="new 0 0 55 55" height="55px" id="Layer_1" version="1.1" viewBox="0 0 55 55" width="55px" x="0px" xml:space="preserve" xmlns="http://www.w3.org/2000/svg" xmlns:xlink="http://www.w3.org/1999/xlink" y="0px">
<g
   transform="translate(0,-15.65)">
<path
   d="m 2.934,28.664 0,18.209 49.391,0 0,-18.209 -49.391,0 z M 36,45.833 l -17,0 0,-16.129 17,0 0,16.129 z"
   fill="&fill_color;"
   stroke="&stroke_color;"
   style="stroke-width:2;stroke-linejoin:round" />
</g>
<path
   d="m 33.354574,32.03197 c 0,-0.883726 -0.716404,-1.60013 -1.60013,-1.60013 -0.883726,0 -1.600124,0.716404 -1.600124,1.60013 l -2.3e-5,1.560464 c 0,0.220817 -0.179006,0.399823 -0.399823,0.399823 -0.220816,0 -0.399822,-0.179006 -0.399822,-0.399823 l -2.3e-5,-2.104658 c 0,-0.883726 -0.716404,-1.60013 -1.60013,-1.60013 -0.883726,0 -1.600124,0.716404 -1.600124,1.60013 l -2.3e-5,2.5466 c 0,0.220817 -0.179006,0.399823 -0.399823,0.399823 -0.220817,0 -0.399823,-0.179006 -0.399823,-0.399823 l -2.3e-5,-10.05961 c 0,-0.883726 -0.716404,-1.60013 -1.60013,-1.60013 -0.883726,0 -1.600124,0.716404 -1.600124,1.60013 l -2.6e-5,12.910134 c 0,0.220817 -0.179006,0.399823 -0.399823,0.399823 -0.220817,0 -0.399823,-0.179006 -0.399823,-0.399823 l -2.7e-5,-1.596425 c 0,-0.883726 -0.716404,-1.60013 -1.60013,-1.60013 -0.883726,0 -1.600124,0.716404 -1.600124,1.60013 l 0,7.056567 c 0,2.430037 1.96994,4.399961 4.399977,4.399961 l 10.400094,0 c 2.430037,0 4.399977,-1.969924 4.399977,-4.399961 l 0,-9.133693 c 0,-0.883726 -0.716404,-1.60013 -1.60013,-1.60013 -0.883726,0 -1.600124,0.716404 -1.600124,1.60013 l -2.5e-5,1.17658 c 0,0.220817 -0.179006,0.399823 -0.399823,0.399823 -0.220817,0 -0.399823,-0.179006 -0.399823,-0.399823 z"
   fill="&fill_color;"
   stroke="&stroke_color;"
   style="stroke-width:1.5;" />
</svg>
