<?xml version="1.0" encoding="UTF-8" standalone="no"?>
<!-- Created with Inkscape (http://www.inkscape.org/) -->
<!DOCTYPE svg PUBLIC "-//W3C//DTD SVG 1.1//EN" "http://www.w3.org/Graphics/SVG/1.1/DTD/svg11.dtd" [
	<!ENTITY fill_color "#FFFFFF">
	<!ENTITY stroke_color "#000000">
]>
<svg
   xmlns:svg="http://www.w3.org/2000/svg"
   xmlns="http://www.w3.org/2000/svg"
   version="1.0"
   width="75"
   height="75"
   viewBox="-13.5 -13.5 67.938 69.182"
   id="Layer_1"
   xml:space="preserve">
<defs id="defs22">
</defs>

<path
  fill="&fill_color;" stroke="&stroke_color;" stroke-width="3"
   d="M 15.820027,29.033478 C 15.324537,29.214584 8.3796958,20.80842 7.869645,20.668762 C 7.3596491,20.529118 -2.6278475,23.99372 -2.9600904,23.582905 C -3.2923691,23.172046 2.0457215,13.863433 2.0258486,13.337635 C 2.0059778,12.811893 -4.4376469,4.2281463 -4.1439709,3.7883584 C -3.8502634,3.3485233 6.726764,5.9448574 7.2222285,5.7610093 C 7.7176397,5.577181 14.22687,-3.429313 14.733357,-3.2890529 C 15.239897,-3.1487777 16.050126,7.7585008 16.376344,8.1762243 C 16.702528,8.593903 26.705417,11.717718 26.721498,12.246854 C 26.737581,12.776046 16.836542,17.150184 16.549663,17.593766 C 16.262815,18.037301 16.315463,28.852391 15.820027,29.033478 z "
   transform="matrix(0.909724,0,0,0.862888,13.63036,4.038791)"
   style="stroke-width:3"
   id="path4637" /><path
  fill="&fill_color;" stroke="&stroke_color;" stroke-width="3"
   d="M 9.9235,28.121333 L 2.8931667,38.666833 L 2.8931667,38.666833"
   style="stroke-width:3"
   id="path5528" /><path
  fill="&fill_color;" stroke="&stroke_color;" stroke-width="3"
   d="M 16.953833,28.121333 L 9.9235,38.666833"
   style="stroke-width:3"
   id="path5530" /><path
  fill="&fill_color;" stroke="&stroke_color;" stroke-width="3"
   d="M 23.984167,28.121333 L 16.953833,38.666833"
   style="stroke-width:3"
   id="path5532" /></svg>
