<?xml version="1.0" ?><!DOCTYPE svg  PUBLIC '-//W3C//DTD SVG 1.1//EN'  'http://www.w3.org/Graphics/SVG/1.1/DTD/svg11.dtd' [
	<!ENTITY stroke_color "#010101">
	<!ENTITY fill_color "#FFFFFF">
]><svg enable-background="new 0 0 55 55" height="55px" version="1.1" viewBox="0 0 55 55" width="55px" x="0px" xml:space="preserve" xmlns="http://www.w3.org/2000/svg" xmlns:xlink="http://www.w3.org/1999/xlink" y="0px"><g display="block" id="clipping-url_1_">
	<g display="inline">
		<g>
			<polygon fill="&fill_color;" points="10.932,6.088 31.874,6.088 43.818,18.027 43.818,48.914      10.932,48.914    " stroke="&stroke_color;" stroke-width="3.5"/>
			<polyline fill="none" points="43.818,18.027 31.874,18.027 31.874,6.088    " stroke="&stroke_color;" stroke-width="3.5"/>
		</g>
	</g>
	<g display="inline">
		<circle cx="27.375" cy="33.5" fill="&stroke_color;" r="9.951"/>
		<g>
			<path d="M27.376,23.549c0,0-5.603,4.197-5.603,9.988s5.603,9.914,5.603,9.914" fill="none" stroke="&fill_color;" stroke-width="1.5"/>
			<path d="M27.376,23.549c0,0,5.532,4.57,5.532,9.988     c0,5.419-5.532,9.914-5.532,9.914" fill="none" stroke="&fill_color;" stroke-width="1.5"/>
			<line fill="none" stroke="&fill_color;" stroke-width="1.5" x1="27.376" x2="27.376" y1="23.549" y2="43.451"/>
			<line fill="none" stroke="&fill_color;" stroke-width="1.5" x1="27.376" x2="27.376" y1="23.549" y2="43.451"/>
			<line fill="none" stroke="&fill_color;" stroke-width="1.5" x1="27.376" x2="27.376" y1="23.549" y2="43.451"/>
			<line fill="none" stroke="&fill_color;" stroke-width="1.5" x1="17.423" x2="37.326" y1="33.5" y2="33.5"/>
		</g>
	</g>
</g></svg>