<?xml version="1.0" encoding="utf-8"?>
<!-- Generator: Adobe Illustrator 12.0.1, SVG Export Plug-In . SVG Version: 6.00 Build 51448)  -->
<!DOCTYPE svg PUBLIC "-//W3C//DTD SVG 1.1//EN" "http://www.w3.org/Graphics/SVG/1.1/DTD/svg11.dtd" [
	<!ENTITY ns_svg "http://www.w3.org/2000/svg">
	<!ENTITY ns_xlink "http://www.w3.org/1999/xlink">
	<!ENTITY stroke_color "#FFFFFF">
]>
<svg  version="1.1" id="Icon" xmlns="&ns_svg;" xmlns:xlink="&ns_xlink;" width="75" height="75" viewBox="0 0 75 75"
	 overflow="visible" enable-background="new 0 0 75 75" xml:space="preserve">

<path fill="none" stroke="&stroke_color;" stroke-width="3.5" stroke-linecap="round" stroke-linejoin="round" d="M53.699,34.323v19.638
	c0,2.407-1.467,4.153-4.154,4.153H21.301V16.885h28.244c2.062,0,4.154,2.065,4.154,4.152v1.073"/>
<line fill="none" stroke="&stroke_color;" stroke-width="3.5" stroke-linecap="round" stroke-linejoin="round" x1="30.184" y1="16.885" x2="30.184" y2="58.114"/>
<path fill="none" stroke="&stroke_color;" stroke-width="3.5" stroke-linecap="round" stroke-linejoin="round" d="M51.734,36.627
	l12.879-16.613c0.027-0.027,0.178-0.237,0.178-0.237c0.109-0.192,0.178-0.409,0.178-0.657c0-0.071-0.004-0.144-0.014-0.215
	c-0.104-0.896-0.848-1.993-1.947-2.858c-1.098-0.862-2.338-1.331-3.232-1.228c-0.389,0.045-0.938,0.446-0.938,0.446L46.129,32.193
	l-2.479,3.225l-4.121,9.803c-0.049,0.125-0.018,0.268,0.082,0.354c0.105,0.086,0.254,0.098,0.365,0.023l9.285-5.975
	c0.014-0.014,0.012-0.039,0.029-0.053c0.078-0.061,0.168-0.111,0.229-0.188c0.008-0.012,0.041-0.053,0.047-0.062L51.734,36.627z"/>
<polyline fill="none" stroke="&stroke_color;" stroke-width="3.5" stroke-linecap="round" stroke-linejoin="round" points="25.936,43.416 
	33.858,36.734 25.936,30.054 "/>
<line fill="none" stroke="&stroke_color;" stroke-width="3.5" stroke-linecap="round" stroke-linejoin="round" x1="33.858" y1="36.734" x2="11.403" y2="36.734"/>
</svg>
