<?xml version="1.0" encoding="utf-8"?>
<!-- Generator: Adobe Illustrator 12.0.1, SVG Export Plug-In . SVG Version: 6.00 Build 51448)  -->
<!DOCTYPE svg PUBLIC "-//W3C//DTD SVG 1.1//EN" "http://www.w3.org/Graphics/SVG/1.1/DTD/svg11.dtd" [
	<!ENTITY ns_svg "http://www.w3.org/2000/svg">
	<!ENTITY ns_xlink "http://www.w3.org/1999/xlink">
]>
<svg  version="1.1" id="Icon" xmlns="&ns_svg;" xmlns:xlink="&ns_xlink;" width="55" height="55"
	 viewBox="-3.3 -3.3 55 55" overflow="visible" xml:space="preserve">
<path fill="none" stroke="#FFFFFF" stroke-width="3.5" d="M46.652,24.199c0,12.398-10.055,22.449-22.453,22.449
	c-12.396,0-22.449-10.051-22.449-22.449c0-12.4,10.053-22.449,22.449-22.449C36.598,1.75,46.652,11.799,46.652,24.199z"/>
<circle fill="#FFFFFF" cx="14.421" cy="14.117" r="3.788"/>
<path fill="#FFFFFF" d="M10.15,20.408c2.092,0,3.787,1.695,3.787,3.791c0,2.09-1.695,3.785-3.787,3.785c-2.092,0-3.785-1.695-3.785-3.785
	C6.365,22.103,8.06,20.408,10.15,20.408z"/>
<path fill="#FFFFFF" d="M14.113,30.193c2.094,0,3.791,1.693,3.791,3.787c0,2.092-1.697,3.785-3.791,3.785c-2.09,0-3.785-1.693-3.785-3.785
	C10.328,31.887,12.025,30.193,14.113,30.193z"/>
<path fill="#FFFFFF" d="M20.41,38.248c0-2.094,1.693-3.789,3.789-3.789c2.09,0,3.787,1.695,3.787,3.789c0,2.092-1.697,3.785-3.787,3.785
	C22.104,42.033,20.41,40.338,20.41,38.248z"/>
<circle fill="#FFFFFF" cx="33.98" cy="34.283" r="3.786"/>
<path fill="#FFFFFF" d="M38.252,27.988c-2.092,0-3.789-1.695-3.789-3.787s1.697-3.785,3.791-3.785c2.088,0,3.783,1.693,3.783,3.785
	S40.342,27.988,38.252,27.988z"/>
<circle fill="#FFFFFF" cx="34.283" cy="14.419" r="3.786"/>
<circle fill="#FFFFFF" cx="24.202" cy="10.15" r="3.787"/>
</svg>
