<?xml version="1.0" encoding="UTF-8"?>
<!DOCTYPE svg PUBLIC "-//W3C//DTD SVG 1.1//EN" "http://www.w3.org/Graphics/SVG/1.1/DTD/svg11.dtd"
[
  <!ENTITY fill_color "#FFFFFF">
  <!ENTITY stroke_color "#A0A0A0">
]>
<svg version="1.2" xmlns="http://www.w3.org/2000/svg" xmlns:xlink="http://www.w3.org/1999/xlink" x="0" y="0" width="55" height="55" viewBox="0, 0, 55, 55">
	<g id="edit-description">
		<path fill="&fill_color;" stroke="none" d="m19.8 50.8c-3.4 0-7.2 0-7.2 0 0 0-0.6 0-1.2-0.4-0.6-0.4-0.7-1.3-0.7-1.3 0 0 0.1-2.8 0.1-5.5-1.8 0-2.8 0-4.1-1.1 0 0-0.7-0.7-0.6-1.4 0.1-0.8 0.9-1.4 0.9-1.4 1.2-0.6 2.5 0.3 3.8 0.4v3.5c2.2 0.2 5.3 0 6.5-1.1 0 0 0.6-0.5 0.6-1.1 0.1-0.5-0.2-1-0.2-1 0 0-0.4-0.5-0.6-0.7-0.3-0.1-0.8-0.3-1.5 0-0.7 0.2-1.4 0.4-2.8 0.5-1.4 0-2-0.1-2-0.1v-9.7c-1.8-0.1-2.8 0-4.1-1.1 0 0-0.6-0.5-0.6-1.4 0-0.9 0.6-1.5 1.5-1.6 0.9-0.1 1.8 0.4 3.2 0.5v3.6c1.4 0 4.1 0 5.5-0.6 1.3-0.5 1.3-0.8 1.6-1.3 0.2-0.4-0.2-1.4-0.5-1.7-0.2-0.2-0.8-0.6-1.4-0.5-0.7 0.1-1.2 0.5-2.8 0.6-1.6 0.1-2.4-0.1-2.4-0.1v-10c-1.8 0-2.8 0-4.2-1.1 0 0-0.6-0.6-0.5-1.4 0.1-0.8 0.9-1.4 0.9-1.4 1.2-0.6 2.5 0.3 3.8 0.4v3.5c1.5 0.1 5.3-0.4 5.9-0.6 0.6-0.3 0.9-0.5 1.1-1.1 0.3-0.7 0.1-1.3-0.2-1.6-0.2-0.4-0.9-0.8-1.5-0.8-0.6 0.1-1.4 0.4-2.7 0.6-1.3 0.2-2.6 0-2.6 0-0.1-2.7 0-6.9 0-7.7 0-0.8 0.9-1.3 1.6-1.3 0.7-0.1 7.4 0 7.4 0z"/>
		<path fill="&fill_color;" stroke="none" d="m37.5 50.8h-4.4-9.3v-46.5h18.2c3.2 0 5.7 2.3 6.1 5.5-3.7 4.7-6.1 7.8-9.8 12.8-0.9 1-4.4 5.4-5.1 6.5-0.6 1.2-2.5 6.2-3.7 9-0.3 0.8-0.1 1.8 0.6 2.3 0.9 0.6 1.4 0.5 1.8 0.4 0.4 0 2.4-1.5 3.6-2.3 1.6-1.1 3.5-1.9 4.9-3.1 1.3-1.1 6.2-8.1 7.6-9.6l0.1-0.2v19.1c0 3.3-2.2 6.1-5.1 6.1z"/>
		<path fill="&fill_color;" stroke="none" d="m52.8 14c0 0 0.1-0.1 0.1-0.1q0-0.1 0-0.2 0-0.1 0-0.1c0-0.4-0.3-0.8-0.7-1.1-0.4-0.3-0.9-0.5-1.2-0.4-0.1 0-0.3 0.1-0.3 0.1l-14.6 18.8-1.6 3.9q0 0 0 0.1 0.1 0 0.2 0l3.4-2.2z"/>
	</g>
	<defs/>
</svg>