<?xml version="1.0" encoding="utf-8"?>
<!-- Generator: Adobe Illustrator 13.0.2, SVG Export Plug-In . SVG Version: 6.00 Build 14948)  -->
<!DOCTYPE svg PUBLIC "-//W3C//DTD SVG 1.1//EN" "http://www.w3.org/Graphics/SVG/1.1/DTD/svg11.dtd">
<svg version="1.1" id="Layer_1" xmlns="http://www.w3.org/2000/svg" xmlns:xlink="http://www.w3.org/1999/xlink" x="0px" y="0px"
	 width="55px" height="54.695px" viewBox="0 0 55 54.695" enable-background="new 0 0 55 54.695" xml:space="preserve">
<g id="format-text-underline">
	<g>
		<path fill="#FFFFFF" d="M16.213,12.43h3.965v17.715c0,3.125,0.566,5.374,1.699,6.748s2.969,2.061,5.508,2.061
			c2.525,0,4.355-0.687,5.488-2.061s1.699-3.623,1.699-6.748V12.43h3.965v18.203c0,3.802-0.941,6.673-2.822,8.613
			c-1.882,1.94-4.658,2.91-8.33,2.91c-3.685,0-6.468-0.97-8.35-2.91c-1.882-1.94-2.822-4.812-2.822-8.613V12.43z"/>
		<path fill="#FFFFFF" d="M12.736,47.147v-2.793h29.277v2.793H12.736z"/>
	</g>
</g>
</svg>
