<?xml version="1.0" encoding="utf-8"?>
<!-- Generator: Adobe Illustrator 13.0.0, SVG Export Plug-In . SVG Version: 6.00 Build 14948)  -->
<!DOCTYPE svg PUBLIC "-//W3C//DTD SVG 1.1//EN" "http://www.w3.org/Graphics/SVG/1.1/DTD/svg11.dtd">
<svg version="1.1" id="Layer_1" xmlns="http://www.w3.org/2000/svg" xmlns:xlink="http://www.w3.org/1999/xlink" x="0px" y="0px"
	 width="24.5px" height="24.5px" viewBox="0 0 24.5 24.5" enable-background="new 0 0 24.5 24.5" xml:space="preserve">
<g>
	<path fill="#FFFFFF" d="M0.003,12.254c0,6.766,5.484,12.25,12.25,12.25s12.25-5.484,12.25-12.25s-5.484-12.25-12.25-12.25
		S0.003,5.488,0.003,12.254z M14.852,6.588c0.341,0.341,0.512,0.788,0.512,1.236c0,0.447-0.171,0.896-0.512,1.237l-3.175,3.179
		l3.159,3.08c0.351,0.343,0.527,0.797,0.527,1.252c0,0.44-0.166,0.882-0.499,1.223c-0.674,0.69-1.78,0.705-2.474,0.03l-4.424-4.316
		c-0.001-0.001-0.001-0.001-0.001-0.002c-0.005-0.005-0.011-0.008-0.016-0.012c-0.062-0.063-0.113-0.133-0.164-0.202
		c-0.016-0.021-0.035-0.039-0.05-0.061c-0.042-0.062-0.073-0.13-0.106-0.196c-0.019-0.037-0.042-0.071-0.058-0.109
		c-0.022-0.054-0.035-0.11-0.052-0.166c-0.016-0.054-0.037-0.105-0.047-0.16c-0.01-0.045-0.01-0.091-0.016-0.136
		c-0.008-0.066-0.019-0.133-0.02-0.199c0-0.04,0.008-0.08,0.011-0.12c0.005-0.072,0.007-0.144,0.021-0.215
		c0.008-0.041,0.023-0.08,0.034-0.12c0.019-0.068,0.033-0.137,0.06-0.203c0.019-0.046,0.046-0.089,0.068-0.133
		c0.029-0.058,0.055-0.117,0.09-0.172c0.03-0.046,0.069-0.087,0.104-0.13c0.036-0.047,0.067-0.096,0.11-0.139
		c0.002-0.003,0.006-0.005,0.008-0.007c0.002-0.003,0.004-0.006,0.006-0.008l4.426-4.432C13.06,5.905,14.166,5.903,14.852,6.588z"/>
</g>
</svg>
