<?xml version="1.0" encoding="utf-8"?>
<!-- Generator: Adobe Illustrator 13.0.0, SVG Export Plug-In . SVG Version: 6.00 Build 14948)  -->
<!DOCTYPE svg PUBLIC "-//W3C//DTD SVG 1.1//EN" "http://www.w3.org/Graphics/SVG/1.1/DTD/svg11.dtd">
<svg version="1.1" id="Layer_1" xmlns="http://www.w3.org/2000/svg" xmlns:xlink="http://www.w3.org/1999/xlink" x="0px" y="0px"
	 width="24.5px" height="24.5px" viewBox="0 0 24.5 24.5" enable-background="new 0 0 24.5 24.5" xml:space="preserve">
<g>
	<path fill="#FFFFFF" d="M24.5,12.252c0-6.766-5.484-12.25-12.25-12.25S0,5.486,0,12.252s5.484,12.25,12.25,12.25
		S24.5,19.018,24.5,12.252z M9.651,17.918C9.311,17.577,9.14,17.13,9.14,16.682c0-0.447,0.171-0.896,0.512-1.237l3.175-3.178
		L9.667,9.186C9.316,8.843,9.14,8.389,9.14,7.934c0-0.44,0.166-0.882,0.499-1.223c0.674-0.691,1.78-0.706,2.474-0.031l4.424,4.317
		c0.001,0,0.001,0.001,0.001,0.001c0.005,0.005,0.011,0.008,0.016,0.012c0.062,0.063,0.113,0.132,0.164,0.202
		c0.016,0.021,0.035,0.04,0.05,0.061c0.042,0.062,0.073,0.129,0.106,0.196c0.019,0.037,0.042,0.071,0.058,0.109
		c0.022,0.054,0.035,0.111,0.052,0.167c0.016,0.053,0.037,0.105,0.047,0.16c0.01,0.044,0.01,0.09,0.016,0.135
		c0.008,0.067,0.019,0.133,0.02,0.2c0,0.04-0.008,0.08-0.011,0.12c-0.005,0.072-0.007,0.144-0.021,0.215
		c-0.008,0.041-0.023,0.08-0.034,0.12c-0.019,0.068-0.033,0.137-0.06,0.203c-0.019,0.046-0.046,0.089-0.068,0.133
		c-0.029,0.058-0.055,0.117-0.09,0.172c-0.03,0.046-0.069,0.087-0.104,0.13c-0.036,0.047-0.067,0.096-0.11,0.139
		c-0.002,0.003-0.006,0.005-0.008,0.007c-0.002,0.003-0.004,0.006-0.006,0.008l-4.426,4.432
		C11.443,18.601,10.337,18.603,9.651,17.918z"/>
</g>
</svg>
