<?xml version="1.0" encoding="utf-8"?>
<!-- Generator: Adobe Illustrator 12.0.1, SVG Export Plug-In . SVG Version: 6.00 Build 51448)  -->
<!DOCTYPE svg PUBLIC "-//W3C//DTD SVG 1.1//EN" "http://www.w3.org/Graphics/SVG/1.1/DTD/svg11.dtd" [
	<!ENTITY ns_svg "http://www.w3.org/2000/svg">
	<!ENTITY ns_xlink "http://www.w3.org/1999/xlink">
]>
<svg  version="1.1" id="Icon" xmlns="&ns_svg;" xmlns:xlink="&ns_xlink;" width="50.878" height="48.833"
	 viewBox="0 0 50.878 48.833" overflow="visible" enable-background="new 0 0 50.878 48.833" xml:space="preserve">
<path fill="none" stroke="#020202" stroke-width="3.5" d="M19.026,28.704l7.575,7.574c0.562,0.562,0.912,1.34,0.912,2.199
	c0,1.715-1.395,3.105-3.11,3.105c-0.857,0-1.633-0.348-2.199-0.908l-7.574-7.576l-7.574,7.576c-0.562,0.562-1.34,0.908-2.199,0.908
	c-1.715,0-3.107-1.393-3.107-3.105c0-0.859,0.35-1.637,0.91-2.199l7.576-7.574L2.66,21.127c-0.561-0.562-0.91-1.34-0.91-2.197
	c0-1.717,1.391-3.109,3.109-3.109c0.857,0,1.635,0.35,2.197,0.911l7.574,7.576l7.574-7.576c0.566-0.562,1.342-0.911,2.199-0.911
	c1.717,0,3.11,1.393,3.11,3.109c0,0.857-0.35,1.635-0.912,2.197L19.026,28.704z"/>
<circle fill="none" stroke="#020202" stroke-width="3.5" cx="14.629" cy="10.516" r="6.092"/>
<polyline fill="none" stroke="#FFFFFF" stroke-width="3.5" stroke-linecap="round" stroke-linejoin="round" points="41.628,1.75 
	49.128,1.75 49.128,47.083 41.628,47.083 "/>
<line fill="none" stroke="#FFFFFF" stroke-width="3.5" stroke-linecap="round" stroke-linejoin="round" x1="44.011" y1="28.704" x2="21.555" y2="28.704"/>
<polyline fill="none" stroke="#FFFFFF" stroke-width="3.5" stroke-linecap="round" stroke-linejoin="round" points="36.089,35.385 
	44.011,28.704 36.089,22.023 "/>
</svg>
