<?xml version="1.0" ?><!DOCTYPE svg  PUBLIC '-//W3C//DTD SVG 1.1//EN'  'http://www.w3.org/Graphics/SVG/1.1/DTD/svg11.dtd' [
	<!ENTITY stroke_color "#010101">
	<!ENTITY fill_color "#FFFFFF">
]><svg enable-background="new 0 0 55 55" height="55px" version="1.1" viewBox="0 0 55 55" width="55px" x="0px" xml:space="preserve" xmlns="http://www.w3.org/2000/svg" xmlns:xlink="http://www.w3.org/1999/xlink" y="0px"><g display="block" id="media-seek-forward-insensitive">
	<g display="inline">
		<g>
			<path d="M27.501,5C39.925,5.019,49.979,15.074,50,27.5C49.979,39.926,39.925,49.98,27.501,50     C15.073,49.98,5.02,39.926,5,27.5C5.02,15.074,15.073,5.019,27.501,5 M27.504,7.25c-0.001,0-0.002,0-0.003,0s-0.002,0-0.003,0     c0,0,0.001,0,0.002,0C16.351,7.27,7.268,16.354,7.25,27.504c0.018,11.144,9.104,20.229,20.254,20.246     c11.141-0.018,20.226-9.104,20.246-20.253C47.73,16.354,38.648,7.27,27.502,7.25C27.503,7.25,27.504,7.25,27.504,7.25     L27.504,7.25z" fill="#808284"/>
		</g>
		<path d="M29.256,27.518l-13.415,7.136c0,0,0,0,0-13.417L29.256,27.518z" fill="#808284" id="path2825_2_"/>
		<path d="M42.066,27.518l-13.417,7.136c0,0,0,0,0-13.417L42.066,27.518z" fill="#808284" id="path2825_1_"/>
	</g>
</g></svg>