<?xml version="1.0" ?><!DOCTYPE svg  PUBLIC '-//W3C//DTD SVG 1.1//EN'  'http://www.w3.org/Graphics/SVG/1.1/DTD/svg11.dtd' [
	<!ENTITY stroke_color "#010101">
	<!ENTITY fill_color "#FFFFFF">
]><svg enable-background="new 0 0 55 55" height="55px" version="1.1" viewBox="0 0 55 55" width="55px" x="0px" xml:space="preserve" xmlns="http://www.w3.org/2000/svg" xmlns:xlink="http://www.w3.org/1999/xlink" y="0px"><g display="block" id="media-seek-backward-insensitive">
	<g display="inline">
		<g>
			<path d="M27.499,5C39.927,5.019,49.98,15.074,50,27.5C49.98,39.926,39.927,49.98,27.499,50     C15.075,49.98,5.021,39.926,5,27.5C5.021,15.074,15.075,5.019,27.499,5 M27.502,7.25c-0.001,0-0.002,0-0.003,0s-0.002,0-0.003,0     c0,0,0.001,0,0.002,0C16.352,7.27,7.269,16.354,7.25,27.504c0.019,11.142,9.104,20.228,20.252,20.246     c11.144-0.018,20.23-9.103,20.248-20.253C47.732,16.354,38.649,7.27,27.5,7.25C27.501,7.25,27.502,7.25,27.502,7.25L27.502,7.25z     " fill="#808284"/>
		</g>
		<path d="M25.744,27.518l13.415,7.136c0,0,0,0,0-13.417L25.744,27.518z" fill="#808284" id="path2825_6_"/>
		<path d="M12.934,27.518l13.417,7.136c0,0,0,0,0-13.417L12.934,27.518z" fill="#808284" id="path2825_5_"/>
	</g>
</g></svg>