<?xml version="1.0" ?><!DOCTYPE svg  PUBLIC '-//W3C//DTD SVG 1.1//EN'  'http://www.w3.org/Graphics/SVG/1.1/DTD/svg11.dtd' [
	<!ENTITY stroke_color "#010101">
	<!ENTITY fill_color "#FFFFFF">
]><svg enable-background="new 0 0 55 55" height="55px" version="1.1" viewBox="0 0 55 55" width="55px" x="0px" xml:space="preserve" xmlns="http://www.w3.org/2000/svg" xmlns:xlink="http://www.w3.org/1999/xlink" y="0px"><g display="block" id="media-record-insensitive">
	<g display="inline">
		<g>
			<g>
				<path d="M27.498,5C39.926,5,50,15.075,50,27.5C50,39.927,39.926,50,27.498,50C15.074,50,5,39.927,5,27.5      C5,15.075,15.074,5,27.498,5 M27.498,7.25C16.333,7.25,7.25,16.334,7.25,27.5s9.083,20.25,20.248,20.25      c11.167,0,20.252-9.084,20.252-20.25S38.665,7.25,27.498,7.25L27.498,7.25z" fill="#808284"/>
			</g>
		</g>
		<path d="M35.391,27.5c0,4.354-3.531,7.889-7.889,7.889c-4.361,0-7.89-3.534-7.89-7.889    c0-4.356,3.528-7.889,7.89-7.889C31.859,19.611,35.391,23.144,35.391,27.5z" fill="#808284"/>
	</g>
</g></svg>