<?xml version="1.0" ?><!DOCTYPE svg  PUBLIC '-//W3C//DTD SVG 1.1//EN'  'http://www.w3.org/Graphics/SVG/1.1/DTD/svg11.dtd'><svg enable-background="new 0 0 55 55" height="55px" version="1.1" viewBox="0 0 55 55" width="55px" x="0px" xml:space="preserve" xmlns="http://www.w3.org/2000/svg" xmlns:xlink="http://www.w3.org/1999/xlink" y="0px"><g display="block" id="media-playback-pause-inactive">
	<circle cx="27.5" cy="27.5" display="inline" fill="none" r="17.5" stroke="#808284" stroke-width="2.25"/>
	<path d="M27.374,5C14.948,5,4.875,15.074,4.875,27.5S14.948,50,27.374,50   s22.501-10.074,22.501-22.5S39.8,5,27.374,5z M27.373,47.392c-10.937,0-19.8-8.865-19.802-19.799   C7.572,16.656,16.436,7.79,27.373,7.788c10.936,0.002,19.801,8.868,19.804,19.804C47.174,38.526,38.309,47.392,27.373,47.392z" display="inline" fill="#808284"/>
	<g display="inline">
		<g>
			<rect fill="#808284" height="12.213" width="4.512" x="21.776" y="21.465"/>
		</g>
		<g>
			<rect fill="#808284" height="12.213" width="4.514" x="28.71" y="21.465"/>
		</g>
	</g>
</g></svg>