<?xml version="1.0" ?><!DOCTYPE svg  PUBLIC '-//W3C//DTD SVG 1.1//EN'  'http://www.w3.org/Graphics/SVG/1.1/DTD/svg11.dtd'><svg enable-background="new 0 0 55 55" height="55px" version="1.1" viewBox="0 0 55 55" width="55px" x="0px" xml:space="preserve" xmlns="http://www.w3.org/2000/svg" xmlns:xlink="http://www.w3.org/1999/xlink" y="0px"><g display="block" id="media-playback-start-inactive">
	<g display="inline">
		<g>
			<path d="M27.373,10.039c-9.692,0.016-17.535,7.86-17.552,17.554     c0.017,9.692,7.86,17.535,17.552,17.551c9.694-0.017,17.537-7.859,17.553-17.551C44.909,17.898,37.066,10.055,27.373,10.039z" fill="none" stroke="#808284" stroke-width="2.25"/>
			<polygon fill="#808284" points="36.718,27.75 22.747,35.648 22.747,19.852    "/>
			<path d="M27.374,5C14.948,5,4.875,15.074,4.875,27.5S14.948,50,27.374,50s22.501-10.074,22.501-22.5     S39.8,5,27.374,5z M27.373,47.392c-10.937,0-19.8-8.865-19.802-19.799C7.572,16.656,16.436,7.79,27.373,7.788     c10.936,0.002,19.801,8.868,19.804,19.804C47.174,38.526,38.309,47.392,27.373,47.392z" fill="#808284"/>
		</g>
	</g>
</g></svg>