<?xml version="1.0" ?><!DOCTYPE svg  PUBLIC '-//W3C//DTD SVG 1.1//EN'  'http://www.w3.org/Graphics/SVG/1.1/DTD/svg11.dtd' [
	<!ENTITY stroke_color "#010101">
	<!ENTITY fill_color "#FFFFFF">
]><svg enable-background="new 0 0 55 55" height="55px" version="1.1" viewBox="0 0 55 55" width="55px" x="0px" xml:space="preserve" xmlns="http://www.w3.org/2000/svg" xmlns:xlink="http://www.w3.org/1999/xlink" y="0px"><g display="block" id="refresh">
<line
       x1="36.94524"
       x2="36.94524"
       y1="6.674417"
       y2="18.838417"
       style="fill:none;stroke:#ffffff;stroke-width:2.98670006;stroke-linecap:round;stroke-linejoin:round"
       id="line3083" /><polyline
       transform="matrix(-1,0,0,1,53.658241,0.67441702)"
       points="     11.583,12.083 16.713,6 21.843,12.083    "
       id="polyline20"
       style="fill:none;stroke:#ffffff;stroke-width:2.98670006;stroke-linecap:round;stroke-linejoin:round" /></g><g
     transform="translate(-2,0)"
     id="g3118"><rect
       width="29.428036"
       height="29.428036"
       ry="1.9073727"
       x="22.862722"
       y="20.390898"
       id="rect3071" /><g
       transform="matrix(0.46182977,0,0,0.46182977,24.93415,22.404597)"
       id="activity-browse"
       style="display:block"><circle
         cx="27.375"
         cy="27.5"
         r="19.903"
         id="circle3070"
         style="fill:#010101;stroke:#ffffff;stroke-width:3.5;display:inline" /><g
         id="g3072"
         style="display:inline"><path
           d="m 27.376,7.598 c 0,0 -11.205,8.394 -11.205,19.976 0,11.583 11.205,19.829 11.205,19.829"
           id="path3074"
           style="fill:#010101;stroke:#ffffff;stroke-width:3.5" /><path
           d="m 27.376,7.598 c 0,0 11.066,9.141 11.066,19.976 0,10.839 -11.066,19.829 -11.066,19.829"
           id="path3076"
           style="fill:#010101;stroke:#ffffff;stroke-width:3.5" /><line
           style="fill:#010101;stroke:#ffffff;stroke-width:3.5"
           x1="27.375999"
           x2="27.375999"
           y1="7.598"
           y2="47.402"
           id="line3078" /><line
           style="fill:#010101;stroke:#ffffff;stroke-width:3.5"
           x1="27.375999"
           x2="27.375999"
           y1="7.598"
           y2="47.402"
           id="line3080" /><line
           style="fill:#010101;stroke:#ffffff;stroke-width:3.5"
           x1="27.375999"
           x2="27.375999"
           y1="7.598"
           y2="47.402"
           id="line3082" /><line
           style="fill:#010101;stroke:#ffffff;stroke-width:3.5"
           x1="7.4720001"
           x2="47.278"
           y1="27.5"
           y2="27.5"
           id="line3084" /></g></g></g><g
     transform="translate(2,0)"
     id="g3130"><polygon
       points="43.449,35.914 43.449,8.928 32.113,8.928 22.727,18.311 22.727,35.914 "
       transform="translate(-18.517759,0.67441702)"
       id="polygon3077"
       style="fill:&fill_color;;stroke:&stroke_color;;stroke-width:3" /><polyline
       id="polyline3079"
       transform="translate(-18.517759,0.67441702)"
       points="22.727,18.311 32.113,18.311 32.113,8.928    "
       style="fill:none;stroke:&stroke_color;;stroke-width:3" /></g>
</svg>
