<?xml version="1.0" ?><!DOCTYPE svg  PUBLIC '-//W3C//DTD SVG 1.1//EN'  'http://www.w3.org/Graphics/SVG/1.1/DTD/svg11.dtd' [
	<!ENTITY stroke_color "#010101">
	<!ENTITY fill_color "#FFFFFF">
]><svg enable-background="new 0 0 55.125 55" height="55px" version="1.1" viewBox="0 0 55.125 55" width="55.125px" x="0px" xml:space="preserve" xmlns="http://www.w3.org/2000/svg" xmlns:xlink="http://www.w3.org/1999/xlink" y="0px"><g display="block" id="go-left">
	<g display="inline">
		<path d="M50,27.5C50,15.073,39.927,5,27.5,5C15.072,5,5,15.073,5,27.5S15.072,50,27.5,50
	C39.927,50,50,39.927,50,27.5z M18.626,44.035c-1.046-1.004-1.574-2.322-1.574-3.643c0-1.318,0.528-2.641,1.574-3.645l9.78-9.373
	l-9.729-9.077c-1.082-1.011-1.62-2.35-1.62-3.691c0-1.297,0.511-2.599,1.532-3.604c2.075-2.032,5.484-2.079,7.621-0.09
	l13.624,12.723c0,0.003,0,0.003,0,0.005c0.02,0.016,0.036,0.023,0.045,0.035c0.194,0.186,0.351,0.393,0.509,0.595
	c0.045,0.063,0.107,0.115,0.154,0.179c0.127,0.183,0.225,0.385,0.327,0.577c0.057,0.108,0.13,0.209,0.178,0.321
	c0.066,0.16,0.107,0.325,0.154,0.491c0.056,0.159,0.115,0.307,0.153,0.469c0.03,0.133,0.03,0.271,0.046,0.403
	c0.025,0.196,0.055,0.391,0.06,0.587c0,0.113-0.022,0.235-0.034,0.351c-0.012,0.213-0.018,0.426-0.06,0.634
	c-0.023,0.12-0.072,0.233-0.109,0.358c-0.059,0.197-0.101,0.4-0.185,0.598c-0.053,0.133-0.137,0.258-0.203,0.393
	c-0.094,0.168-0.176,0.346-0.276,0.504c-0.098,0.139-0.219,0.256-0.326,0.383c-0.105,0.139-0.205,0.283-0.335,0.41
	c-0.007,0.01-0.021,0.016-0.025,0.02c-0.007,0.012-0.012,0.02-0.019,0.025L26.259,44.039C24.149,46.053,20.74,46.057,18.626,44.035z" fill="&fill_color;"/>
	</g>
</g></svg>