<?xml version="1.0" ?><!DOCTYPE svg PUBLIC '-//W3C//DTD SVG 1.1//EN'
'http://www.w3.org/Graphics/SVG/1.1/DTD/svg11.dtd' [
	<!ENTITY stroke_color "#ffffff">
	<!ENTITY fill_color "#010101">
]>
<!-- Generator: Adobe Illustrator 17.1.0, SVG Export Plug-In . SVG Version: 6.00 Build 0)  -->
<svg version="1.1" id="Layer_1" xmlns="http://www.w3.org/2000/svg" xmlns:xlink="http://www.w3.org/1999/xlink" x="0px" y="0px"
	 viewBox="30 575.7 60 60" enable-background="new 30 575.7 60 60" xml:space="preserve">
<path fill="&stroke_color;" stroke-width="0" stroke-miterlimit="10" d="M85.1,585.9c-11-12.8-25.1,0.3-25.1,0.3
	s-13.8-12.9-25.1-0.3c-11.3,12.7,20.4,45.2,25.1,45.2S96.4,599,85.1,585.9z M60,590.9c2.4,0,4.4,2,4.4,4.4c0,2.4-2,4.4-4.4,4.4
	c-2.4,0-4.4-2-4.4-4.4C55.6,592.8,57.6,590.9,60,590.9z M68.6,613.4c0.9,0.9,0.8,2.3-0.1,3.3c-0.9,0.9-2.4,1-3.3,0.1l-5.2-5.2
	l-5.2,5.2c-0.9,0.9-2.3,0.8-3.3-0.1c-0.9-0.9-1-2.4-0.1-3.3l5.2-5.2l-5.3-5.3c-0.9-0.9-0.8-2.4,0.1-3.3c0.9-0.9,2.4-1,3.3-0.1
	l5.3,5.3l5.3-5.3c0.9-0.9,2.3-0.8,3.3,0.1c0.9,0.9,1,2.4,0.1,3.3l-5.3,5.3L68.6,613.4z"/>
</svg>
