<?xml version="1.0" ?><!DOCTYPE svg  PUBLIC '-//W3C//DTD SVG 1.1//EN'  'http://www.w3.org/Graphics/SVG/1.1/DTD/svg11.dtd' [
	<!ENTITY stroke_color "none">
	<!ENTITY fill_color "#ffffff">
]><svg enable-background="new 0 0 55 55" height="55px" style="" version="1.1" viewBox="0 0 55 55" width="55px" x="0px" xml:space="preserve" xmlns="http://www.w3.org/2000/svg" xmlns:xlink="http://www.w3.org/1999/xlink" y="0px"><g display="block" id="toolbar_x5F_edit" style="">
	<g style="">
		<g style="">
			<path d="M32.273,45.355L18.465,19.353c-3.814-7.899-4.424-11.525-0.141-13.536c0,0,11.524,24.763,12.583,26.696     c2.487,4.534,5.571,3.145,5.571,3.145L32.273,45.355z" fill="&fill_color;" style=""/>
			<path d="M31.573,42.948c-0.379-3.795,2.384-7.179,6.182-7.562l0,0c3.795-0.382,7.179,2.382,7.562,6.179l0,0     c0.38,3.795-2.384,7.178-6.179,7.562l0,0C35.342,49.507,31.958,46.742,31.573,42.948L31.573,42.948z M34.519,42.652     c0.223,2.167,2.153,3.743,4.323,3.529l0,0c2.165-0.223,3.744-2.153,3.529-4.321l0,0c-0.222-2.167-2.153-3.742-4.319-3.529l0,0     C35.882,38.553,34.303,40.482,34.519,42.652L34.519,42.652z" fill="&fill_color;" style=""/>
		</g>
		<g style="">
			<path d="M22.602,45.355L36.41,19.353c3.813-7.899,4.423-11.525,0.141-13.536c0,0-11.524,24.763-12.583,26.696     c-2.487,4.534-5.57,3.145-5.57,3.145L22.602,45.355z" fill="&fill_color;" style=""/>
			<path d="M23.301,42.948c-0.384,3.794-3.768,6.559-7.565,6.178l0,0c-3.795-0.384-6.559-3.767-6.178-7.562l0,0     c0.383-3.797,3.767-6.561,7.562-6.179l0,0C20.918,35.77,23.68,39.153,23.301,42.948L23.301,42.948z M20.355,42.652     c0.216-2.17-1.363-4.1-3.533-4.321l0,0c-2.167-0.213-4.098,1.362-4.319,3.529l0,0c-0.215,2.168,1.364,4.099,3.53,4.321l0,0     C18.203,46.396,20.133,44.819,20.355,42.652L20.355,42.652z" fill="&fill_color;" style=""/>
		</g>
	</g>
</g></svg>