<?xml version="1.0" ?><!DOCTYPE svg  PUBLIC '-//W3C//DTD SVG 1.1//EN'  'http://www.w3.org/Graphics/SVG/1.1/DTD/svg11.dtd' [
	<!ENTITY stroke_color "#010101">
	<!ENTITY fill_color "#666666">
]><svg enable-background="new 0 0 58.5 55" height="55px" version="1.1" viewBox="0 0 58.5 55" width="58.5px" x="0px" xml:space="preserve" xmlns="http://www.w3.org/2000/svg" xmlns:xlink="http://www.w3.org/1999/xlink" y="0px"><g display="block" id="transfer-to-video">
	<g display="inline">
		<polygon fill="&fill_color;" points="8.443,21.866 8.443,52.581     50.067,52.58 50.067,21.866 56.75,20.039 29.248,2 1.75,20.038   " stroke="&stroke_color;" stroke-linejoin="round" stroke-width="3.5"/>
	</g>
	<g display="inline">
		<g>
			<polygon fill="#ffffff" points="43.041,41.189 43.041,27.577 35.281,19.812      15.204,19.812 15.204,41.189    " stroke="&fill_color;" stroke-width="2.275"/>
			<polyline fill="none" points="35.281,19.812 35.281,27.577 43.041,27.577    " stroke="&fill_color;" stroke-width="2.275"/>
		</g>
	</g>
	<path d="M29.207,28.772c-3.092,0-5.668,3.083-5.668,3.083s2.576,3.099,5.668,3.098   c3.092-0.004,5.669-3.102,5.669-3.102S32.299,28.771,29.207,28.772z M29.207,34.031c-1.197,0-2.168-0.972-2.168-2.169   c0-1.195,0.971-2.169,2.168-2.169c1.195,0,2.167,0.974,2.167,2.169C31.374,33.06,30.402,34.031,29.207,34.031z" display="inline" fill="&fill_color;"/>
	<circle cx="29.207" cy="31.863" display="inline" fill="&fill_color;" r="0.984"/>
	<circle cx="20.998" cy="31.863" display="inline" fill="&fill_color;" r="0.984"/>
	<circle cx="18.073" cy="31.863" display="inline" fill="&fill_color;" r="0.984"/>
	<circle cx="39.847" cy="31.863" display="inline" fill="&fill_color;" r="0.984"/>
	<circle cx="36.923" cy="31.863" display="inline" fill="&fill_color;" r="0.984"/>
</g></svg>
