<?xml version="1.0" ?><!DOCTYPE svg  PUBLIC '-//W3C//DTD SVG 1.1//EN'  'http://www.w3.org/Graphics/SVG/1.1/DTD/svg11.dtd' [
	<!ENTITY stroke_color "#010101">
	<!ENTITY fill_color "#666666">
]><svg enable-background="new 0 0 58.5 55" height="55px" version="1.1" viewBox="0 0 58.5 55" width="58.5px" x="0px" xml:space="preserve" xmlns="http://www.w3.org/2000/svg" xmlns:xlink="http://www.w3.org/1999/xlink" y="0px"><g display="block" id="transfer-to-url">
	<g>
		<polygon fill="&fill_color;" points="8.443,21.866 8.443,52.581     50.067,52.58 50.067,21.866 56.75,20.039 29.248,2 1.75,20.038   " stroke="&stroke_color;" stroke-linejoin="round" stroke-width="3.5"/>
	</g>
	<g>
		<g>
			<polygon fill="#ffffff" points="18.435,16.583 32.046,16.583 39.811,24.343 39.811,44.42      18.435,44.42    " stroke="&fill_color;" stroke-width="2.275"/>
			<polyline fill="none" points="39.811,24.343 32.046,24.343 32.046,16.583    " stroke="&fill_color;" stroke-width="2.275"/>
		</g>
	</g>
	<g>
		<circle cx="29.123" cy="34.4" fill="&fill_color;" r="6.469"/>
		<g>
			<line fill="none" stroke="#ffffff" stroke-width="0.975" x1="29.124" x2="29.124" y1="27.932" y2="40.869"/>
			<line fill="none" stroke="#ffffff" stroke-width="0.975" x1="29.124" x2="29.124" y1="27.932" y2="40.869"/>
			<path d="M29.124,27.932c0,0,3.596,2.97,3.596,6.492     c0,3.523-3.596,6.445-3.596,6.445" fill="none" stroke="#ffffff" stroke-width="0.975"/>
			<path d="M29.124,27.932c0,0-3.642,2.728-3.642,6.492     c0,3.765,3.642,6.445,3.642,6.445" fill="none" stroke="#ffffff" stroke-width="0.975"/>
		</g>
	</g>
</g></svg>
