<?xml version="1.0" ?><!DOCTYPE svg  PUBLIC '-//W3C//DTD SVG 1.1//EN'  'http://www.w3.org/Graphics/SVG/1.1/DTD/svg11.dtd' [
	<!ENTITY stroke_color "#010101">
	<!ENTITY fill_color "#666666">
]><svg enable-background="new 0 0 58.5 55" height="55px" version="1.1" viewBox="0 0 58.5 55" width="58.5px" x="0px" xml:space="preserve" xmlns="http://www.w3.org/2000/svg" xmlns:xlink="http://www.w3.org/1999/xlink" y="0px"><g display="block" id="transfer-from-audio">
	<g display="inline">
		<polygon fill="&fill_color;" points="50.056,32.715 50.056,2 8.433,2     8.433,32.715 1.75,34.542 29.252,52.581 56.75,34.543   " stroke="&stroke_color;" stroke-linejoin="round" stroke-width="3.5"/>
	</g>
	<g display="inline">
		<g>
			<polygon fill="#ffffff" points="18.435,10.583 32.046,10.583 39.811,18.343 39.811,38.42      18.435,38.42    " stroke="&fill_color;" stroke-width="2.275"/>
			<polyline fill="none" points="39.811,18.343 32.046,18.343 32.046,10.583    " stroke="&fill_color;" stroke-width="2.275"/>
		</g>
	</g>
	<path d="M29.74,32.428   c-0.332-0.946-2.086-0.697-2.866-0.045c-1.56,1.306-0.275,2.857,1.511,2.131C29.401,34.098,30.072,33.377,29.74,32.428z" display="inline" fill="&fill_color;" stroke="&fill_color;" stroke-width="2.275"/>
	<line display="inline" fill="none" stroke="&fill_color;" stroke-width="1.4625" x1="30.141" x2="30.141" y1="32.499" y2="24.154"/>
	<polygon display="inline" fill="&fill_color;" points="34.109,22.899 29.424,25.212 29.424,22.698 34.109,20.383  "/>
</g></svg>
