<?xml version="1.0" ?><!DOCTYPE svg  PUBLIC '-//W3C//DTD SVG 1.1//EN'  'http://www.w3.org/Graphics/SVG/1.1/DTD/svg11.dtd' [
	<!ENTITY stroke_color "#666666">
	<!ENTITY fill_color "#ffffff">
]><svg enable-background="new 0 0 55 55" height="55px" id="Layer_1" version="1.1" viewBox="0 0 55 55" width="55px" x="0px" xml:space="preserve" xmlns="http://www.w3.org/2000/svg" xmlns:xlink="http://www.w3.org/1999/xlink" y="0px"><g display="block" id="view-details">
	<g>
		<path d="M44,5H11c-3.3,0-6,2.7-6,6v33c0,3.3,2.7,6,6,6h33c3.3,0,6-2.7,6-6V11C50,7.7,47.3,5,44,5z M14.533,37.971    c-2.064,0-3.744-1.68-3.744-3.744c0-2.063,1.68-3.744,3.744-3.744s3.744,1.681,3.744,3.744    C18.277,36.291,16.597,37.971,14.533,37.971z M27.396,37.971c-2.064,0-3.744-1.68-3.744-3.744c0-2.063,1.68-3.744,3.744-3.744    s3.745,1.681,3.745,3.744C31.141,36.291,29.461,37.971,27.396,37.971z M40.262,37.971c-2.064,0-3.744-1.68-3.744-3.744    c0-2.063,1.68-3.744,3.744-3.744c2.063,0,3.743,1.681,3.743,3.744C44.005,36.291,42.325,37.971,40.262,37.971z" fill="&fill_color;"/>
	</g>
</g></svg>