<?xml version="1.0" ?><!DOCTYPE svg  PUBLIC '-//W3C//DTD SVG 1.1//EN'  'http://www.w3.org/Graphics/SVG/1.1/DTD/svg11.dtd' [
	<!ENTITY stroke_color "#010101">
	<!ENTITY fill_color "#FFFFFF">
]><svg enable-background="new 0 0 55 55" height="55px" version="1.1" viewBox="0 0 55 55" width="55px" x="0px" xml:space="preserve" xmlns="http://www.w3.org/2000/svg" xmlns:xlink="http://www.w3.org/1999/xlink" y="0px"><g display="block" id="view-collapse">
	<path d="M4.875,5v45h45V5H4.875z M25.324,42.361c0,0.966-0.783,1.749-1.751,1.749c-0.966,0-1.749-0.783-1.749-1.749   l-0.001-6.838l-8.012,8.012c-0.342,0.341-0.79,0.512-1.237,0.512c-0.448,0-0.895-0.171-1.237-0.512   c-0.684-0.684-0.684-1.792,0-2.476l8.011-8.012h-6.836c-0.968,0-1.751-0.782-1.751-1.751c0-0.968,0.783-1.751,1.751-1.751h11.062   c0.098,0,0.194,0.013,0.291,0.029c0.015,0.002,0.03,0.002,0.045,0.005c0.048,0.009,0.093,0.027,0.14,0.041   c0.064,0.018,0.129,0.033,0.192,0.059c0.022,0.009,0.042,0.023,0.063,0.033c0.083,0.038,0.164,0.077,0.241,0.129   c0.007,0.005,0.013,0.012,0.02,0.017c0.086,0.059,0.17,0.124,0.247,0.2c0.25,0.25,0.407,0.558,0.474,0.88   c0.001,0.006,0.004,0.011,0.005,0.018c0.02,0.101,0.029,0.204,0.031,0.308c0,0.011,0.003,0.021,0.003,0.033V42.361z M43.809,13.535   l-9.014,9.013h6.84c0.964,0,1.749,0.785,1.749,1.751c0,0.966-0.785,1.749-1.749,1.749h-11.06c-0.001,0-0.003,0-0.005,0   c-0.338,0-0.676-0.098-0.969-0.293c-0.096-0.063-0.186-0.136-0.268-0.218s-0.154-0.172-0.218-0.268   c-0.196-0.294-0.296-0.634-0.295-0.974V13.234c0-0.968,0.784-1.751,1.751-1.751c0.966,0,1.75,0.783,1.75,1.751l-0.001,6.839   l9.012-9.014c0.684-0.682,1.792-0.682,2.476,0C44.49,11.743,44.49,12.852,43.809,13.535z" fill="&fill_color;"/>
</g></svg>