<?xml version="1.0" ?><!DOCTYPE svg  PUBLIC '-//W3C//DTD SVG 1.1//EN'  'http://www.w3.org/Graphics/SVG/1.1/DTD/svg11.dtd'><svg enable-background="new 0 0 55 55" height="55px" version="1.1" viewBox="0 0 55 55" width="55px" x="0px" xml:space="preserve" xmlns="http://www.w3.org/2000/svg" xmlns:xlink="http://www.w3.org/1999/xlink" y="0px"><g display="block" id="view-refresh">
	<g>
		<path d="M27.6,4.943c12.429,0,22.5,10.076,22.5,22.498c0,12.426-10.07,22.502-22.5,22.502    c-12.428,0-22.5-10.078-22.5-22.502C5.101,15.019,15.173,4.943,27.6,4.943z" fill="#FFFFFF"/>
		<path d="M25.5,37.994c-4.879-0.975-8.555-5.281-8.555-10.445    c0-5.885,4.77-10.656,10.652-10.656c5.886,0,10.656,4.771,10.656,10.656c0,5.074-3.551,9.322-8.305,10.395" fill="none" stroke="#4C4D4F" stroke-width="3.5"/>
		<polyline fill="none" points="    22.936,31.578 25.5,37.994 18.746,39.439   " stroke="#4C4D4F" stroke-linecap="round" stroke-linejoin="round" stroke-width="3.5"/>
	</g>
</g></svg>