<?xml version="1.0" ?><!DOCTYPE svg  PUBLIC '-//W3C//DTD SVG 1.1//EN'  'http://www.w3.org/Graphics/SVG/1.1/DTD/svg11.dtd' [
	<!ENTITY stroke_color "#FFFFFF">
	<!ENTITY fill_color "none">
]><svg height="55px" viewBox="0 0 55 55" width="55px" xmlns="http://www.w3.org/2000/svg" xmlns:xlink="http://www.w3.org/1999/xlink" stroke-linecap="round" stroke-linejoin="round" stroke-width="3.5" stroke="&stroke_color;" fill="&fill_color;">
 <g>
  <path d="M 50 27.5 C 50 39.8431 39.8431 50 27.5 50 C 15.1569 50 5 39.8431 5 27.5 C 5 15.1569 15.1569 5 27.5 5 C 39.8431 5 50 15.1569 50 27.5 Z " stroke="none" />
  <g>
   <path d="M 27.499 32.994 C 24.469 32.994 22.007 30.534 22.007 27.501 C 22.007 24.465 24.469 22.006 27.5 22.006 C 30.537 22.006 32.993 24.465 32.993 27.501 C 32.99 30.539 30.534 32.994 27.499 32.994 Z " fill="&stroke_color;" stroke="none" />
  </g>
 </g>
 <g>
  <path d="M 22.4008 20.942 C 23.5796 19.0238 25.5972 17.489 27.6505 16.8788 C 34.9568 14.7074 41.8417 20.693 43.1846 27.6498 C 45.148 37.8213 36.9183 46.8966 27.1358 48.274 " fill="none" />
  <path d="M 35.7266 26.3627 C 36.7984 28.3426 37.1187 30.8574 36.6206 32.9407 C 34.848 40.3538 26.2218 43.3236 19.5256 41.0081 C 9.73517 37.6227 5.99051 25.9579 9.68885 16.7973 " fill="none" />
  <path d="M 24.367 35.1946 C 22.1164 35.1328 19.7784 34.1529 18.2233 32.6798 C 12.6897 27.4381 14.4308 18.4828 19.7842 13.8414 C 27.6113 7.05535 39.5856 9.64477 45.6697 17.4279 " fill="none" />
 </g>
</svg>
