<?xml version="1.0" ?><!DOCTYPE svg  PUBLIC '-//W3C//DTD SVG 1.1//EN'  'http://www.w3.org/Graphics/SVG/1.1/DTD/svg11.dtd' [
	<!ENTITY stroke_color "#ffffff">
	<!ENTITY fill_color "none">
]><svg enable-background="new 0 0 55 55" height="55px" version="1.1" viewBox="0 0 55 55" width="55px" x="0px" xml:space="preserve" xmlns="http://www.w3.org/2000/svg" xmlns:xlink="http://www.w3.org/1999/xlink" y="0px"><g display="block" id="view-spiral">
	<path d="M19.847,50.905   c-12.027-8.145-8.539-21.303-8.539-21.303l-8.738-2.467c5-14.75,18.193-15.007,18.193-15.007l-0.916-8.763   c15.723,0,20.242,12.746,20.242,12.746l7.703-3.66c5.833,13.518-5.264,23.157-5.264,23.157l5.264,6.21   c-11.285,8.879-23.057,2.128-23.057,2.128L19.847,50.905z" display="inline" fill="&fill_color;" stroke="&stroke_color;" stroke-width="3.5"/>
	<path d="M20.763,12.129   c0,0,1.36-0.125,3.255,0.442" display="inline" fill="none" stroke="&stroke_color;" stroke-linecap="round" stroke-width="3.5"/>
	<circle cx="27.5" cy="27.5" display="inline" fill="&stroke_color;" r="5"/>
	<path d="M11.308,29.603   c0,0,0.303-1.333,1.428-2.959" display="inline" fill="none" stroke="&stroke_color;" stroke-linecap="round" stroke-width="3.5"/>
	<path d="M24.735,43.947   c0,0-1.175-0.699-2.373-2.271" display="inline" fill="none" stroke="&stroke_color;" stroke-linecap="round" stroke-width="3.5"/>
	<path d="M42.528,35.609   c0,0-1.028,0.901-2.894,1.555" display="inline" fill="none" stroke="&stroke_color;" stroke-linecap="round" stroke-width="3.5"/>
	<path d="M40.089,16.112   c0,0,0.54,1.257,0.584,3.232" display="inline" fill="none" stroke="&stroke_color;" stroke-linecap="round" stroke-width="3.5"/>
</g></svg>
