<?xml version="1.0" ?><!DOCTYPE svg  PUBLIC '-//W3C//DTD SVG 1.1//EN'  'http://www.w3.org/Graphics/SVG/1.1/DTD/svg11.dtd' [
	<!ENTITY stroke_color "#fff">
	<!ENTITY fill_color "none">
]><svg height="55px" viewBox="0 0 55 55" width="55px" xmlns="http://www.w3.org/2000/svg" xmlns:xlink="http://www.w3.org/1999/xlink" stroke-linecap="round" stroke-linejoin="round" stroke-width="3.5" stroke="&stroke_color;" fill="&fill_color;">
 <g>
  <path d="M 8.00535 7.5 L 46.9947 7.5 C 47.2719 7.50003 47.5 7.73353 47.5 8.01728 L 47.5 46.9827 C 47.5 47.2665 47.2719 47.5 46.9947 47.5 L 8.00535 47.5 C 7.87137 47.5 7.74274 47.4455 7.64801 47.3485 C 7.55327 47.2515 7.49999 47.1198 7.5 46.9827 L 7.5 8.01728 C 7.5 7.88014 7.55328 7.74848 7.64801 7.65151 C 7.74275 7.55454 7.87137 7.5 8.00535 7.5 " />
  <g>
   <path d="M 27.499 32.994 C 24.469 32.994 22.007 30.534 22.007 27.501 C 22.007 24.465 24.469 22.006 27.5 22.006 C 30.537 22.006 32.993 24.465 32.993 27.501 C 32.99 30.539 30.534 32.994 27.499 32.994 Z " fill="&stroke_color;" stroke="none" />
  </g>
 </g>
</svg>
