<?xml version="1.0" ?><!DOCTYPE svg  PUBLIC '-//W3C//DTD SVG 1.1//EN'  'http://www.w3.org/Graphics/SVG/1.1/DTD/svg11.dtd'><svg enable-background="new 0 0 55 55" height="55px" version="1.1" viewBox="0 0 55 55" width="55px" x="0px" xml:space="preserve" xmlns="http://www.w3.org/2000/svg" xmlns:xlink="http://www.w3.org/1999/xlink" y="0px"><g display="block" id="zoom-groups">
	<path d="M27.375,5c-12.426,0-22.5,10.074-22.5,22.5S14.949,50,27.375,50s22.5-10.074,22.5-22.5   S39.801,5,27.375,5z M18.634,37.955c-2.618,0-4.745-2.127-4.745-4.746c0-2.621,2.125-4.745,4.745-4.745s4.748,2.124,4.748,4.745   C23.381,35.828,21.254,37.955,18.634,37.955z M27.375,22.625c-2.621,0-4.746-2.125-4.746-4.747c0-2.618,2.125-4.742,4.746-4.742   c2.623,0,4.748,2.123,4.748,4.742C32.121,20.501,29.996,22.625,27.375,22.625z M36.113,37.953c-2.619,0-4.744-2.125-4.744-4.744   c0-2.621,2.125-4.746,4.744-4.746c2.623,0,4.748,2.125,4.748,4.746C40.861,35.828,38.736,37.953,36.113,37.953z" fill="#FFFFFF" id="zoom-groups_2_"/>
</g></svg>