<?xml version="1.0" encoding="utf-8"?>
<!-- Generator: Adobe Illustrator 13.0.1, SVG Export Plug-In . SVG Version: 6.00 Build 14948)  -->
<!DOCTYPE svg PUBLIC "-//W3C//DTD SVG 1.1//EN" "http://www.w3.org/Graphics/SVG/1.1/DTD/svg11.dtd">
<svg version="1.1" id="Icon" xmlns="http://www.w3.org/2000/svg" xmlns:xlink="http://www.w3.org/1999/xlink" x="0px" y="0px"
	 width="45.051px" height="45.051px" viewBox="0 0 45.051 45.051" enable-background="new 0 0 45.051 45.051" xml:space="preserve">
<path fill="#FFFFFF" d="M22.525,0.025c-12.426,0-22.5,10.074-22.5,22.5s10.074,22.5,22.5,22.5s22.5-10.074,22.5-22.5
	S34.951,0.025,22.525,0.025z M13.784,32.98c-2.618,0-4.745-2.126-4.745-4.746c0-2.621,2.125-4.745,4.745-4.745
	c2.621,0,4.748,2.124,4.748,4.745C18.531,30.854,16.405,32.98,13.784,32.98z M22.525,17.65c-2.62,0-4.745-2.125-4.745-4.747
	c0-2.618,2.125-4.742,4.745-4.742c2.623,0,4.748,2.123,4.748,4.742C27.272,15.526,25.147,17.65,22.525,17.65z M31.264,32.979
	c-2.62,0-4.745-2.125-4.745-4.745c0-2.621,2.125-4.746,4.745-4.746c2.622,0,4.747,2.125,4.747,4.746
	C36.011,30.854,33.886,32.979,31.264,32.979z"/>
</svg>
