<?xml version="1.0" encoding="utf-8"?>
<!-- Generator: Adobe Illustrator 13.0.1, SVG Export Plug-In . SVG Version: 6.00 Build 14948)  -->
<!DOCTYPE svg PUBLIC "-//W3C//DTD SVG 1.1//EN" "http://www.w3.org/Graphics/SVG/1.1/DTD/svg11.dtd">
<svg version="1.1" id="Icon" xmlns="http://www.w3.org/2000/svg" xmlns:xlink="http://www.w3.org/1999/xlink" x="0px" y="0px"
	 width="44.902px" height="44.902px" viewBox="0 0 44.902 44.902" enable-background="new 0 0 44.902 44.902" xml:space="preserve">
<path fill="#FFFFFF" d="M22.451-0.049c-12.426,0-22.5,10.074-22.5,22.5c0,12.427,10.074,22.5,22.5,22.5
	c12.427,0,22.5-10.073,22.5-22.5C44.951,10.025,34.878-0.049,22.451-0.049z M32.555,8.855c2.096,0,3.795,1.699,3.795,3.794
	c0,2.096-1.699,3.794-3.795,3.794c-2.095,0-3.794-1.699-3.794-3.794C28.761,10.554,30.461,8.855,32.555,8.855z M4.577,22.452
	c0-2.099,1.7-3.799,3.793-3.799c2.097,0,3.796,1.7,3.796,3.799c0,2.095-1.7,3.793-3.796,3.793
	C6.275,26.245,4.577,24.547,4.577,22.452z M12.342,36.047c-2.093,0-3.793-1.696-3.793-3.792c0-2.099,1.701-3.796,3.793-3.796
	c2.098,0,3.798,1.696,3.798,3.796C16.14,34.35,14.44,36.047,12.342,36.047z M12.649,16.146c-2.094,0-3.795-1.7-3.795-3.799
	c0-2.095,1.7-3.794,3.795-3.794c2.099,0,3.796,1.701,3.796,3.794C16.446,14.446,14.749,16.146,12.649,16.146z M22.45,40.325
	c-2.1,0-3.797-1.7-3.797-3.794c0-2.098,1.696-3.797,3.797-3.797c2.095,0,3.794,1.699,3.794,3.797
	C26.244,38.627,24.545,40.325,22.45,40.325z M22.452,12.168c-2.096,0-3.795-1.699-3.795-3.795c0-2.096,1.699-3.795,3.795-3.795
	c2.097,0,3.795,1.699,3.795,3.795C26.247,10.469,24.549,12.168,22.452,12.168z M32.252,36.352c-2.096,0-3.795-1.699-3.795-3.795
	c0-2.095,1.699-3.794,3.795-3.794c2.095,0,3.794,1.699,3.794,3.794C36.046,34.653,34.346,36.352,32.252,36.352z M36.532,26.249
	c-2.096,0-3.795-1.698-3.795-3.795c0-2.096,1.699-3.793,3.799-3.793c2.094,0,3.791,1.697,3.791,3.793
	C40.327,24.551,38.63,26.249,36.532,26.249z"/>
</svg>
