<?xml version="1.0" encoding="utf-8"?>
<!-- Generator: Adobe Illustrator 13.0.2, SVG Export Plug-In . SVG Version: 6.00 Build 14948)  -->
<!DOCTYPE svg PUBLIC "-//W3C//DTD SVG 1.1//EN" "http://www.w3.org/Graphics/SVG/1.1/DTD/svg11.dtd">
<svg version="1.1" id="Layer_1" xmlns="http://www.w3.org/2000/svg" xmlns:xlink="http://www.w3.org/1999/xlink" x="0px" y="0px"
	 width="25px" height="25px" viewBox="0 0 25 25" enable-background="new 0 0 25 25" xml:space="preserve">
<path fill="#FFFFFF" d="M12.5,0C5.598,0,0,5.597,0,12.5C0,19.402,5.598,25,12.5,25S25,19.402,25,12.5C25,5.597,19.402,0,12.5,0z
	 M18.113,4.947c1.164,0,2.107,0.943,2.107,2.107c0,1.164-0.943,2.108-2.107,2.108c-1.163,0-2.107-0.944-2.107-2.108
	C16.006,5.89,16.95,4.947,18.113,4.947z M2.57,12.5c0-1.166,0.944-2.111,2.106-2.111c1.165,0,2.109,0.945,2.109,2.111
	c0,1.164-0.944,2.107-2.109,2.107C3.514,14.607,2.57,13.664,2.57,12.5z M6.884,20.053c-1.163,0-2.106-0.941-2.106-2.104
	c0-1.166,0.945-2.108,2.106-2.108c1.166,0,2.11,0.942,2.11,2.108C8.994,19.109,8.05,20.053,6.884,20.053z M7.055,8.997
	c-1.164,0-2.106-0.945-2.106-2.111c0-1.164,0.942-2.107,2.106-2.107c1.166,0,2.109,0.944,2.109,2.107
	C9.164,8.053,8.221,8.997,7.055,8.997z M12.499,22.43c-1.167,0-2.11-0.943-2.11-2.105c0-1.165,0.942-2.109,2.11-2.109
	c1.164,0,2.108,0.944,2.108,2.109C14.607,21.486,13.663,22.43,12.499,22.43z M12.5,6.787c-1.165,0-2.107-0.944-2.107-2.108
	c0-1.164,0.943-2.107,2.107-2.107s2.107,0.943,2.107,2.107C14.607,5.843,13.665,6.787,12.5,6.787z M17.945,20.223
	c-1.166,0-2.108-0.941-2.108-2.106c0-1.163,0.942-2.107,2.108-2.107c1.162,0,2.105,0.944,2.105,2.107
	C20.053,19.279,19.107,20.223,17.945,20.223z M20.323,14.609c-1.165,0-2.108-0.943-2.108-2.108s0.943-2.107,2.11-2.107
	c1.163,0,2.104,0.943,2.104,2.107S21.488,14.609,20.323,14.609z"/>
</svg>
