<?xml version="1.0" encoding="utf-8"?>
<!-- Generator: Adobe Illustrator 13.0.2, SVG Export Plug-In . SVG Version: 6.00 Build 14948)  -->
<!DOCTYPE svg PUBLIC "-//W3C//DTD SVG 1.1//EN" "http://www.w3.org/Graphics/SVG/1.1/DTD/svg11.dtd">
<svg version="1.1" id="Layer_1" xmlns="http://www.w3.org/2000/svg" xmlns:xlink="http://www.w3.org/1999/xlink" x="0px" y="0px"
	 width="25px" height="25px" viewBox="0 0 25 25" enable-background="new 0 0 25 25" xml:space="preserve">
<path fill="#FFFFFF" d="M12.5,0C5.598,0,0,5.596,0,12.5C0,19.405,5.596,25,12.5,25S25,19.402,25,12.5C25,5.597,19.404,0,12.5,0z
	 M7.645,18.309c-1.455,0-2.637-1.182-2.637-2.637c0-1.456,1.182-2.637,2.637-2.637s2.637,1.181,2.637,2.637
	C10.281,17.127,9.1,18.309,7.645,18.309z M12.5,9.792c-1.456,0-2.637-1.18-2.637-2.637c0-1.455,1.181-2.634,2.637-2.634
	c1.458,0,2.637,1.179,2.637,2.634C15.137,8.612,13.958,9.792,12.5,9.792z M17.355,18.309c-1.457,0-2.637-1.182-2.637-2.637
	c0-1.456,1.18-2.637,2.637-2.637s2.638,1.181,2.638,2.637C19.993,17.127,18.812,18.309,17.355,18.309z"/>
</svg>
