<?xml version="1.0" ?><!DOCTYPE svg  PUBLIC '-//W3C//DTD SVG 1.1//EN'  'http://www.w3.org/Graphics/SVG/1.1/DTD/svg11.dtd'><svg enable-background="new 0 0 55 55" height="55px" version="1.1" viewBox="0 0 55 55" width="55px" x="0px" xml:space="preserve" xmlns="http://www.w3.org/2000/svg" xmlns:xlink="http://www.w3.org/1999/xlink" y="0px"><g display="block" id="zoom-neighborhood">
	<path d="M27.375,5c-12.426,0-22.5,10.074-22.5,22.5c0,12.427,10.074,22.5,22.5,22.5   c12.427,0,22.5-10.073,22.5-22.5C49.875,15.074,39.802,5,27.375,5z M37.479,13.904c2.096,0,3.795,1.699,3.795,3.794   c0,2.096-1.699,3.794-3.795,3.794s-3.794-1.699-3.794-3.794S35.385,13.904,37.479,13.904z M9.501,27.501   c0-2.099,1.7-3.799,3.793-3.799c2.097,0,3.796,1.7,3.796,3.799c0,2.095-1.7,3.793-3.796,3.793   C11.199,31.294,9.501,29.596,9.501,27.501z M17.266,41.096c-2.093,0-3.793-1.695-3.793-3.792c0-2.099,1.701-3.796,3.793-3.796   c2.099,0,3.799,1.696,3.799,3.796C21.064,39.399,19.364,41.096,17.266,41.096z M17.573,21.195c-2.094,0-3.795-1.7-3.795-3.799   c0-2.096,1.7-3.795,3.795-3.795c2.099,0,3.796,1.701,3.796,3.795C21.37,19.495,19.673,21.195,17.573,21.195z M27.374,45.374   c-2.1,0-3.797-1.7-3.797-3.794c0-2.098,1.696-3.797,3.797-3.797c2.095,0,3.794,1.699,3.794,3.797   C31.168,43.676,29.469,45.374,27.374,45.374z M27.376,17.217c-2.096,0-3.795-1.699-3.795-3.795s1.699-3.795,3.795-3.795   c2.097,0,3.795,1.699,3.795,3.795S29.473,17.217,27.376,17.217z M37.176,41.401c-2.096,0-3.795-1.699-3.795-3.795   s1.699-3.794,3.795-3.794s3.794,1.698,3.794,3.794S39.271,41.401,37.176,41.401z M41.456,31.298c-2.096,0-3.795-1.698-3.795-3.795   c0-2.096,1.699-3.793,3.799-3.793c2.094,0,3.791,1.697,3.791,3.793C45.251,29.6,43.554,31.298,41.456,31.298z" fill="#FFFFFF" id="zoom-neighborhood_3_"/>
</g></svg>