<?xml version="1.0" encoding="utf-8"?>
<!-- Generator: Adobe Illustrator 12.0.1, SVG Export Plug-In . SVG Version: 6.00 Build 51448)  -->
<!DOCTYPE svg PUBLIC "-//W3C//DTD SVG 1.1//EN" "http://www.w3.org/Graphics/SVG/1.1/DTD/svg11.dtd" [
	<!ENTITY ns_svg "http://www.w3.org/2000/svg">
	<!ENTITY ns_xlink "http://www.w3.org/1999/xlink">
]>
<svg  version="1.1" id="Icon" xmlns="&ns_svg;" xmlns:xlink="&ns_xlink;" width="75" height="75" viewBox="0 0 75 75"
	 overflow="visible" enable-background="new 0 0 75 75" xml:space="preserve">
<path fill="#B2B2B2" stroke="#FFFFFF" stroke-width="3.5" stroke-linejoin="round" d="M38.03,21.024h-0.002
	c0-0.002-1.711-2.053-9.377-2.504c-7.666-0.449-11.683,1.601-11.686,1.602c-1.898,0.619-3.495,1.736-3.495,3.494v27.703
	c0,2.025,1.235,3.494,3.495,3.494c0.003,0,4.41-1.35,10.004-1.35c5.589-0.001,11.061,2.253,11.061,2.253"/>
<path fill="#B2B2B2" stroke="#FFFFFF" stroke-width="3.5" stroke-linejoin="round" d="M38.024,21.024L38.024,21.024
	c0-0.002,1.714-2.053,9.377-2.504c7.667-0.449,11.685,1.601,11.688,1.602c1.898,0.619,3.494,1.736,3.494,3.494v27.703
	c0,2.025-1.234,3.494-3.494,3.494c-0.003,0-4.41-1.35-10.004-1.35c-5.589-0.001-11.061,2.253-11.061,2.253"/>
<line fill="#B2B2B2" stroke="#FFFFFF" stroke-width="3.5" stroke-linecap="round" stroke-linejoin="round" x1="38.024" y1="21.024" x2="38.026" y2="55.717"/>
<path fill="#FFFFFF" stroke="#FFFFFF" stroke-width="3.5" stroke-linecap="round" stroke-linejoin="round" d="M42.691,54.276
	c0-0.001-0.031,2.906-4.665,2.906c-4.633,0-4.663-2.907-4.663-2.906"/>
</svg>
