<?xml version="1.0" encoding="utf-8"?>
<!-- Generator: Adobe Illustrator 12.0.1, SVG Export Plug-In . SVG Version: 6.00 Build 51448)  -->
<!DOCTYPE svg PUBLIC "-//W3C//DTD SVG 1.1//EN" "http://www.w3.org/Graphics/SVG/1.1/DTD/svg11.dtd" [
	<!ENTITY ns_svg "http://www.w3.org/2000/svg">
	<!ENTITY ns_xlink "http://www.w3.org/1999/xlink">
]>
<svg  version="1.1" id="Icon" xmlns="&ns_svg;" xmlns:xlink="&ns_xlink;" width="75" height="75" viewBox="0 0 75 75"
	 overflow="visible" enable-background="new 0 0 75 75" xml:space="preserve">

<path fill="none" stroke="#020202" stroke-width="3.5" d="M29.453,41.787l7.574,7.575c0.564,0.562,0.912,1.338,0.912,2.198
	c0,1.715-1.393,3.106-3.109,3.106c-0.857,0-1.633-0.347-2.199-0.908l-7.574-7.576l-7.574,7.576c-0.562,0.562-1.34,0.907-2.199,0.907
	c-1.715,0-3.107-1.391-3.107-3.105c0-0.86,0.35-1.636,0.91-2.198l7.576-7.575l-7.576-7.577c-0.561-0.562-0.91-1.34-0.91-2.197
	c0-1.717,1.391-3.109,3.109-3.109c0.857,0,1.635,0.35,2.197,0.911l7.574,7.575l7.574-7.575c0.566-0.562,1.342-0.911,2.199-0.911
	c1.717,0,3.109,1.393,3.109,3.109c0,0.857-0.348,1.635-0.912,2.197L29.453,41.787z"/>
<circle fill="none" stroke="#020202" stroke-width="3.5" cx="25.056" cy="23.599" r="6.092"/>
<polyline fill="none" stroke="#000000" stroke-width="3.5" stroke-linecap="round" stroke-linejoin="round" points="52.055,14.833 
	59.555,14.833 59.555,60.166 52.055,60.166 "/>
<line fill="none" stroke="#000000" stroke-width="3.5" stroke-linecap="round" stroke-linejoin="round" x1="54.438" y1="41.787" x2="31.982" y2="41.787"/>
<polyline fill="none" stroke="#000000" stroke-width="3.5" stroke-linecap="round" stroke-linejoin="round" points="46.516,48.469 
	54.438,41.787 46.516,35.106 "/>
</svg>
