<?xml version="1.0" encoding="utf-8"?>
<!-- Generator: Adobe Illustrator 12.0.1, SVG Export Plug-In . SVG Version: 6.00 Build 51448)  -->
<!DOCTYPE svg PUBLIC "-//W3C//DTD SVG 1.1//EN" "http://www.w3.org/Graphics/SVG/1.1/DTD/svg11.dtd" [
	<!ENTITY ns_svg "http://www.w3.org/2000/svg">
	<!ENTITY ns_xlink "http://www.w3.org/1999/xlink">
]>
<svg  version="1.1" id="Icon" xmlns="&ns_svg;" xmlns:xlink="&ns_xlink;" width="75" height="75" viewBox="0 0 75 75"
	 overflow="visible" enable-background="new 0 0 75 75" xml:space="preserve">

<path fill="#FFFFFF" d="M37.501,25c-6.906,0-12.502,5.596-12.502,12.502C24.999,44.404,30.595,50,37.501,50
	C44.406,50,50,44.404,50,37.502C50,30.596,44.406,25,37.501,25z M43.17,40.104c-0.684,0.684-1.791,0.684-2.475,0L37.5,36.912
	l-3.191,3.191c-0.684,0.684-1.791,0.684-2.475,0s-0.684-1.791,0-2.475l4.426-4.426c0.002,0,0.002-0.002,0.002-0.002
	c0.258-0.258,0.572-0.418,0.904-0.481c0.061-0.012,0.123-0.013,0.184-0.018c0.051-0.005,0.1-0.015,0.15-0.015
	c0.037,0,0.074,0.008,0.111,0.011c0.411,0.026,0.813,0.188,1.127,0.501l4.432,4.43C43.854,38.312,43.854,39.42,43.17,40.104z"/>
</svg>
