<?xml version="1.0" encoding="utf-8"?>
<!-- Generator: Adobe Illustrator 12.0.1, SVG Export Plug-In . SVG Version: 6.00 Build 51448)  -->
<!DOCTYPE svg PUBLIC "-//W3C//DTD SVG 1.1//EN" "http://www.w3.org/Graphics/SVG/1.1/DTD/svg11.dtd" [
	<!ENTITY ns_svg "http://www.w3.org/2000/svg">
	<!ENTITY ns_xlink "http://www.w3.org/1999/xlink">
]>
<svg  version="1.1" id="Icon" xmlns="&ns_svg;" xmlns:xlink="&ns_xlink;" width="75" height="75" viewBox="0 0 75 75"
	 overflow="visible" enable-background="new 0 0 75 75" xml:space="preserve">

<path fill="#FFFFFF" d="M37.498,25c-6.766,0-12.248,5.596-12.248,12.498C25.25,44.403,30.732,50,37.498,50
	c6.768,0,12.252-5.597,12.252-12.502C49.75,30.596,44.266,25,37.498,25z M45.078,33.354l-7.874,9.575l-1.225,1.49l-1.364-1.365
	l-4.582-4.581c-0.684-0.683-0.684-1.791,0-2.475s1.791-0.684,2.475,0l3.218,3.218l6.649-8.085c0.613-0.747,1.717-0.854,2.463-0.24
	C45.584,31.505,45.691,32.608,45.078,33.354z"/>
</svg>
