<?xml version="1.0" encoding="utf-8"?>
<!-- Generator: Adobe Illustrator 12.0.1, SVG Export Plug-In . SVG Version: 6.00 Build 51448)  -->
<!DOCTYPE svg PUBLIC "-//W3C//DTD SVG 1.1//EN" "http://www.w3.org/Graphics/SVG/1.1/DTD/svg11.dtd" [
	<!ENTITY ns_svg "http://www.w3.org/2000/svg">
	<!ENTITY ns_xlink "http://www.w3.org/1999/xlink">
]>
<svg  version="1.1" id="Icon" xmlns="&ns_svg;" xmlns:xlink="&ns_xlink;" width="45" height="45" viewBox="0 0 45 45"
	 overflow="visible" enable-background="new 0 0 45 45" xml:space="preserve">

	<path fill="#FFFFFF" d="M22.498,10c-6.766,0-12.248,5.596-12.248,12.498C10.25,29.403,15.732,35,22.498,35
		c6.768,0,12.252-5.597,12.252-12.502C34.75,15.596,29.266,10,22.498,10z M30.078,18.354l-7.874,9.575l-1.225,1.49l-1.364-1.365
		l-4.582-4.581c-0.684-0.683-0.684-1.791,0-2.475s1.791-0.684,2.475,0l3.218,3.218l6.649-8.085c0.613-0.747,1.717-0.854,2.463-0.24
		C30.584,16.505,30.691,17.608,30.078,18.354z"/>
</svg>
