<?xml version="1.0" encoding="utf-8"?>
<!-- Generator: Adobe Illustrator 12.0.1, SVG Export Plug-In . SVG Version: 6.00 Build 51448)  -->
<!DOCTYPE svg PUBLIC "-//W3C//DTD SVG 1.1//EN" "http://www.w3.org/Graphics/SVG/1.1/DTD/svg11.dtd" [
	<!ENTITY ns_svg "http://www.w3.org/2000/svg">
	<!ENTITY ns_xlink "http://www.w3.org/1999/xlink">
]>
<svg  version="1.1" id="Icon" xmlns="&ns_svg;" xmlns:xlink="&ns_xlink;" width="75" height="75" viewBox="0 0 75 75"
	 overflow="visible" enable-background="new 0 0 75 75" xml:space="preserve">

<path fill="none" stroke="#000000" stroke-width="3.5" d="M37.5,59.003c-11.877,0-21.5-9.63-21.5-21.5
	c0-11.874,9.623-21.506,21.5-21.506c11.873,0,21.5,9.632,21.5,21.506C59,49.373,49.373,59.003,37.5,59.003z"/>
<path fill="none" stroke="#000000" stroke-width="3.5" d="M37.5,49.221c-6.473,0-11.719-5.25-11.719-11.719
	c0-6.472,5.246-11.722,11.719-11.722s11.719,5.25,11.719,11.722C49.219,43.971,43.973,49.221,37.5,49.221z"/>
<line fill="none" stroke="#000000" stroke-width="3.5" stroke-linecap="round" stroke-linejoin="round" x1="37.5" y1="29.665" x2="37.5" y2="7.208"/>
<polyline fill="none" stroke="#000000" stroke-width="3.5" stroke-linecap="round" stroke-linejoin="round" points="30.818,21.743 
	37.5,29.665 44.18,21.743 "/>
</svg>
