<?xml version="1.0" encoding="utf-8"?>
<!-- Generator: Adobe Illustrator 12.0.1, SVG Export Plug-In . SVG Version: 6.00 Build 51448)  -->
<!DOCTYPE svg PUBLIC "-//W3C//DTD SVG 1.1//EN" "http://www.w3.org/Graphics/SVG/1.1/DTD/svg11.dtd" [
	<!ENTITY ns_svg "http://www.w3.org/2000/svg">
	<!ENTITY ns_xlink "http://www.w3.org/1999/xlink">
]>
<svg  version="1.1" id="Icon" xmlns="&ns_svg;" xmlns:xlink="&ns_xlink;" width="45" height="45" viewBox="0 0 45 45"
	 overflow="visible" enable-background="new 0 0 45 45" xml:space="preserve">

<path fill="#FFFFFF" d="M22.501,10c-6.906,0-12.502,5.596-12.502,12.502C9.999,29.404,15.595,35,22.501,35
	C29.406,35,35,29.404,35,22.502C35,15.596,29.406,10,22.501,10z M28.17,25.104c-0.684,0.684-1.791,0.684-2.475,0L22.5,21.912
	l-3.191,3.191c-0.684,0.684-1.791,0.684-2.475,0s-0.684-1.791,0-2.475l4.426-4.426c0.002,0,0.002-0.002,0.002-0.002
	c0.258-0.258,0.572-0.418,0.904-0.481c0.061-0.012,0.123-0.013,0.184-0.018c0.051-0.005,0.1-0.015,0.15-0.015
	c0.037,0,0.074,0.008,0.111,0.011c0.411,0.026,0.813,0.188,1.127,0.501l4.432,4.43C28.854,23.312,28.854,24.42,28.17,25.104z"/>
</svg>
