<?xml version="1.0" encoding="utf-8"?>
<!-- Generator: Adobe Illustrator 12.0.1, SVG Export Plug-In . SVG Version: 6.00 Build 51448)  -->
<!DOCTYPE svg PUBLIC "-//W3C//DTD SVG 1.1//EN" "http://www.w3.org/Graphics/SVG/1.1/DTD/svg11.dtd" [
	<!ENTITY ns_svg "http://www.w3.org/2000/svg">
	<!ENTITY ns_xlink "http://www.w3.org/1999/xlink">
]>
<svg  version="1.1" id="Icon" xmlns="&ns_svg;" xmlns:xlink="&ns_xlink;" width="75" height="75" viewBox="0 0 75 75"
	 overflow="visible" enable-background="new 0 0 75 75" xml:space="preserve">

<path fill="none" stroke="#000000" stroke-width="3.5" d="M59.951,37.5c0,12.398-10.055,22.449-22.453,22.449
	c-12.396,0-22.449-10.051-22.449-22.449c0-12.4,10.053-22.449,22.449-22.449C49.896,15.051,59.951,25.1,59.951,37.5z"/>
<circle cx="27.72" cy="27.418" r="3.788"/>
<path d="M23.449,33.709c2.092,0,3.787,1.695,3.787,3.791c0,2.09-1.695,3.785-3.787,3.785s-3.785-1.695-3.785-3.785
	C19.664,35.404,21.359,33.709,23.449,33.709z"/>
<path d="M27.412,43.494c2.094,0,3.791,1.693,3.791,3.787c0,2.092-1.697,3.785-3.791,3.785c-2.09,0-3.785-1.693-3.785-3.785
	C23.627,45.188,25.324,43.494,27.412,43.494z"/>
<path d="M33.709,51.549c0-2.094,1.693-3.789,3.789-3.789c2.09,0,3.787,1.695,3.787,3.789c0,2.092-1.697,3.785-3.787,3.785
	C35.402,55.334,33.709,53.639,33.709,51.549z"/>
<circle cx="47.28" cy="47.584" r="3.786"/>
<path d="M51.551,41.289c-2.092,0-3.789-1.695-3.789-3.787s1.697-3.785,3.791-3.785c2.088,0,3.783,1.693,3.783,3.785
	S53.641,41.289,51.551,41.289z"/>
<circle cx="47.582" cy="27.72" r="3.786"/>
<circle cx="37.501" cy="23.451" r="3.787"/>
</svg>
